<?xml version="1.0" encoding="UTF-8" standalone="no"?>
<!DOCTYPE svg PUBLIC "-//W3C//DTD SVG 1.1//EN"
 "http://www.w3.org/Graphics/SVG/1.1/DTD/svg11.dtd">
<!-- Generated by graphviz version 2.43.0 (0)
 -->
<!-- Title: src/diriteminfo.cpp Pages: 1 -->
<svg width="426pt" height="137pt"
 viewBox="0.00 0.00 426.00 137.00" xmlns="http://www.w3.org/2000/svg" xmlns:xlink="http://www.w3.org/1999/xlink">
<g id="graph0" class="graph" transform="scale(1 1) rotate(0) translate(4 133)">
<title>src/diriteminfo.cpp</title>
<!-- Node1 -->
<g id="node1" class="node">
<title>Node1</title>
<g id="a_node1"><a xlink:title=" ">
<polygon fill="#999999" stroke="#666666" points="287,-129 179,-129 179,-110 287,-110 287,-129"/>
<text text-anchor="middle" x="233" y="-117" font-family="Helvetica,sans-Serif" font-size="10.00">src/diriteminfo.cpp</text>
</a>
</g>
</g>
<!-- Node2 -->
<g id="node2" class="node">
<title>Node2</title>
<g id="a_node2"><a xlink:href="diriteminfo_8h.html" target="_top" xlink:title=" ">
<polygon fill="white" stroke="#666666" points="124,-74 44,-74 44,-55 124,-55 124,-74"/>
<text text-anchor="middle" x="84" y="-62" font-family="Helvetica,sans-Serif" font-size="10.00">diriteminfo.h</text>
</a>
</g>
</g>
<!-- Node1&#45;&gt;Node2 -->
<g id="edge1" class="edge">
<title>Node1&#45;&gt;Node2</title>
<path fill="none" stroke="#63b8ff" d="M209.06,-109.98C184.44,-101.23 145.88,-87.51 118.08,-77.62"/>
<polygon fill="#63b8ff" stroke="#63b8ff" points="118.97,-74.22 108.38,-74.17 116.62,-80.82 118.97,-74.22"/>
</g>
<!-- Node5 -->
<g id="node5" class="node">
<title>Node5</title>
<g id="a_node5"><a xlink:title=" ">
<polygon fill="#e0e0e0" stroke="#999999" points="236,-74 142,-74 142,-55 236,-55 236,-74"/>
<text text-anchor="middle" x="189" y="-62" font-family="Helvetica,sans-Serif" font-size="10.00">ui_diriteminfo.h</text>
</a>
</g>
</g>
<!-- Node1&#45;&gt;Node5 -->
<g id="edge4" class="edge">
<title>Node1&#45;&gt;Node5</title>
<path fill="none" stroke="#63b8ff" d="M225.73,-109.75C219.46,-102.18 210.21,-91.05 202.57,-81.84"/>
<polygon fill="#63b8ff" stroke="#63b8ff" points="205.21,-79.55 196.13,-74.09 199.83,-84.02 205.21,-79.55"/>
</g>
<!-- Node6 -->
<g id="node6" class="node">
<title>Node6</title>
<g id="a_node6"><a xlink:href="utils_8h.html" target="_top" xlink:title=" ">
<polygon fill="white" stroke="#666666" points="301.5,-74 254.5,-74 254.5,-55 301.5,-55 301.5,-74"/>
<text text-anchor="middle" x="278" y="-62" font-family="Helvetica,sans-Serif" font-size="10.00">utils.h</text>
</a>
</g>
</g>
<!-- Node1&#45;&gt;Node6 -->
<g id="edge5" class="edge">
<title>Node1&#45;&gt;Node6</title>
<path fill="none" stroke="#63b8ff" d="M240.43,-109.75C246.85,-102.18 256.31,-91.05 264.12,-81.84"/>
<polygon fill="#63b8ff" stroke="#63b8ff" points="266.9,-83.98 270.71,-74.09 261.57,-79.45 266.9,-83.98"/>
</g>
<!-- Node8 -->
<g id="node8" class="node">
<title>Node8</title>
<g id="a_node8"><a xlink:title=" ">
<polygon fill="#e0e0e0" stroke="#999999" points="418,-74 320,-74 320,-55 418,-55 418,-74"/>
<text text-anchor="middle" x="369" y="-62" font-family="Helvetica,sans-Serif" font-size="10.00">QMimeDatabase</text>
</a>
</g>
</g>
<!-- Node1&#45;&gt;Node8 -->
<g id="edge7" class="edge">
<title>Node1&#45;&gt;Node8</title>
<path fill="none" stroke="#63b8ff" d="M254.85,-109.98C277.12,-101.3 311.9,-87.75 337.22,-77.88"/>
<polygon fill="#63b8ff" stroke="#63b8ff" points="338.71,-81.06 346.75,-74.17 336.16,-74.54 338.71,-81.06"/>
</g>
<!-- Node3 -->
<g id="node3" class="node">
<title>Node3</title>
<g id="a_node3"><a xlink:title=" ">
<polygon fill="#e0e0e0" stroke="#999999" points="80,-19 0,-19 0,0 80,0 80,-19"/>
<text text-anchor="middle" x="40" y="-7" font-family="Helvetica,sans-Serif" font-size="10.00">QStorageInfo</text>
</a>
</g>
</g>
<!-- Node2&#45;&gt;Node3 -->
<g id="edge2" class="edge">
<title>Node2&#45;&gt;Node3</title>
<path fill="none" stroke="#63b8ff" d="M76.73,-54.75C70.46,-47.18 61.21,-36.05 53.57,-26.84"/>
<polygon fill="#63b8ff" stroke="#63b8ff" points="56.21,-24.55 47.13,-19.09 50.83,-29.02 56.21,-24.55"/>
</g>
<!-- Node4 -->
<g id="node4" class="node">
<title>Node4</title>
<g id="a_node4"><a xlink:title=" ">
<polygon fill="#e0e0e0" stroke="#999999" points="157.5,-19 98.5,-19 98.5,0 157.5,0 157.5,-19"/>
<text text-anchor="middle" x="128" y="-7" font-family="Helvetica,sans-Serif" font-size="10.00">QWidget</text>
</a>
</g>
</g>
<!-- Node2&#45;&gt;Node4 -->
<g id="edge3" class="edge">
<title>Node2&#45;&gt;Node4</title>
<path fill="none" stroke="#63b8ff" d="M91.27,-54.75C97.54,-47.18 106.79,-36.05 114.43,-26.84"/>
<polygon fill="#63b8ff" stroke="#63b8ff" points="117.17,-29.02 120.87,-19.09 111.79,-24.55 117.17,-29.02"/>
</g>
<!-- Node7 -->
<g id="node7" class="node">
<title>Node7</title>
<g id="a_node7"><a xlink:title=" ">
<polygon fill="#e0e0e0" stroke="#999999" points="303,-19 253,-19 253,0 303,0 303,-19"/>
<text text-anchor="middle" x="278" y="-7" font-family="Helvetica,sans-Serif" font-size="10.00">QtCore</text>
</a>
</g>
</g>
<!-- Node6&#45;&gt;Node7 -->
<g id="edge6" class="edge">
<title>Node6&#45;&gt;Node7</title>
<path fill="none" stroke="#63b8ff" d="M278,-54.75C278,-47.8 278,-37.85 278,-29.13"/>
<polygon fill="#63b8ff" stroke="#63b8ff" points="281.5,-29.09 278,-19.09 274.5,-29.09 281.5,-29.09"/>
</g>
</g>
</svg>
