<?xml version="1.0" encoding="UTF-8" standalone="no"?>
<!DOCTYPE svg PUBLIC "-//W3C//DTD SVG 1.1//EN"
 "http://www.w3.org/Graphics/SVG/1.1/DTD/svg11.dtd">
<!-- Generated by graphviz version 2.43.0 (0)
 -->
<!-- Title: Graphical Class Hierarchy Pages: 1 -->
<svg width="165pt" height="64pt"
 viewBox="0.00 0.00 165.00 64.00" xmlns="http://www.w3.org/2000/svg" xmlns:xlink="http://www.w3.org/1999/xlink">
<g id="graph0" class="graph" transform="scale(1 1) rotate(0) translate(4 60)">
<title>Graphical Class Hierarchy</title>
<!-- Node0 -->
<g id="node1" class="node">
<title>Node0</title>
<g id="a_node1"><a xlink:title=" ">
<polygon fill="#e0e0e0" stroke="#999999" points="59,-37 0,-37 0,-18 59,-18 59,-37"/>
<text text-anchor="middle" x="29.5" y="-25" font-family="Helvetica,sans-Serif" font-size="10.00">QWidget</text>
</a>
</g>
</g>
<!-- Node1 -->
<g id="node2" class="node">
<title>Node1</title>
<g id="a_node2"><a xlink:href="classDriveInfo.html" target="_top" xlink:title=" ">
<polygon fill="white" stroke="#666666" points="157,-56 95,-56 95,-37 157,-37 157,-56"/>
<text text-anchor="middle" x="126" y="-44" font-family="Helvetica,sans-Serif" font-size="10.00">DriveInfo</text>
</a>
</g>
</g>
<!-- Node0&#45;&gt;Node1 -->
<g id="edge1" class="edge">
<title>Node0&#45;&gt;Node1</title>
<path fill="none" stroke="#63b8ff" d="M68.97,-35.24C77.6,-36.97 86.62,-38.78 94.85,-40.44"/>
<polygon fill="#63b8ff" stroke="#63b8ff" points="69.6,-31.79 59.11,-33.25 68.22,-38.65 69.6,-31.79"/>
</g>
<!-- Node2 -->
<g id="node3" class="node">
<title>Node2</title>
<g id="a_node3"><a xlink:href="classNavpage.html" target="_top" xlink:title=" ">
<polygon fill="white" stroke="#666666" points="156,-19 96,-19 96,0 156,0 156,-19"/>
<text text-anchor="middle" x="126" y="-7" font-family="Helvetica,sans-Serif" font-size="10.00">Navpage</text>
</a>
</g>
</g>
<!-- Node0&#45;&gt;Node2 -->
<g id="edge2" class="edge">
<title>Node0&#45;&gt;Node2</title>
<path fill="none" stroke="#63b8ff" d="M68.98,-20.17C77.94,-18.46 87.35,-16.67 95.83,-15.06"/>
<polygon fill="#63b8ff" stroke="#63b8ff" points="68.28,-16.74 59.11,-22.05 69.59,-23.62 68.28,-16.74"/>
</g>
</g>
</svg>
