<?xml version="1.0" encoding="UTF-8" standalone="no"?>
<!DOCTYPE svg PUBLIC "-//W3C//DTD SVG 1.1//EN"
 "http://www.w3.org/Graphics/SVG/1.1/DTD/svg11.dtd">
<!-- Generated by graphviz version 2.43.0 (0)
 -->
<!-- Title: Graphical Class Hierarchy Pages: 1 -->
<svg width="175pt" height="101pt"
 viewBox="0.00 0.00 175.00 101.00" xmlns="http://www.w3.org/2000/svg" xmlns:xlink="http://www.w3.org/1999/xlink">
<g id="graph0" class="graph" transform="scale(1 1) rotate(0) translate(4 97)">
<title>Graphical Class Hierarchy</title>
<!-- Node0 -->
<g id="node1" class="node">
<title>Node0</title>
<g id="a_node1"><a xlink:title=" ">
<polygon fill="#e0e0e0" stroke="#999999" points="59,-56 0,-56 0,-37 59,-37 59,-56"/>
<text text-anchor="middle" x="29.5" y="-44" font-family="Helvetica,sans-Serif" font-size="10.00">QWidget</text>
</a>
</g>
</g>
<!-- Node1 -->
<g id="node2" class="node">
<title>Node1</title>
<g id="a_node2"><a xlink:href="classDirItemInfo.html" target="_top" xlink:title="The DirItemInfo class is used to display information about the currently selected item in the directo...">
<polygon fill="white" stroke="#666666" points="167,-93 95,-93 95,-74 167,-74 167,-93"/>
<text text-anchor="middle" x="131" y="-81" font-family="Helvetica,sans-Serif" font-size="10.00">DirItemInfo</text>
</a>
</g>
</g>
<!-- Node0&#45;&gt;Node1 -->
<g id="edge1" class="edge">
<title>Node0&#45;&gt;Node1</title>
<path fill="none" stroke="#63b8ff" d="M65.51,-59.52C78.22,-64.24 92.34,-69.49 104.12,-73.88"/>
<polygon fill="#63b8ff" stroke="#63b8ff" points="66.72,-56.23 56.12,-56.03 64.28,-62.79 66.72,-56.23"/>
</g>
<!-- Node2 -->
<g id="node3" class="node">
<title>Node2</title>
<g id="a_node3"><a xlink:href="classDriveInfo.html" target="_top" xlink:title="The DriveInfo class is used to display information about the current drive.">
<polygon fill="white" stroke="#666666" points="162,-56 100,-56 100,-37 162,-37 162,-56"/>
<text text-anchor="middle" x="131" y="-44" font-family="Helvetica,sans-Serif" font-size="10.00">DriveInfo</text>
</a>
</g>
</g>
<!-- Node0&#45;&gt;Node2 -->
<g id="edge2" class="edge">
<title>Node0&#45;&gt;Node2</title>
<path fill="none" stroke="#63b8ff" d="M69.25,-46.5C79.38,-46.5 90.14,-46.5 99.75,-46.5"/>
<polygon fill="#63b8ff" stroke="#63b8ff" points="69.01,-43 59.01,-46.5 69.01,-50 69.01,-43"/>
</g>
<!-- Node3 -->
<g id="node4" class="node">
<title>Node3</title>
<g id="a_node4"><a xlink:href="classNavpage.html" target="_top" xlink:title="The Navpage class.">
<polygon fill="white" stroke="#666666" points="161,-19 101,-19 101,0 161,0 161,-19"/>
<text text-anchor="middle" x="131" y="-7" font-family="Helvetica,sans-Serif" font-size="10.00">Navpage</text>
</a>
</g>
</g>
<!-- Node0&#45;&gt;Node3 -->
<g id="edge3" class="edge">
<title>Node0&#45;&gt;Node3</title>
<path fill="none" stroke="#63b8ff" d="M65.51,-33.48C78.22,-28.76 92.34,-23.51 104.12,-19.12"/>
<polygon fill="#63b8ff" stroke="#63b8ff" points="64.28,-30.21 56.12,-36.97 66.72,-36.77 64.28,-30.21"/>
</g>
</g>
</svg>
