<?xml version="1.0" encoding="UTF-8" standalone="no"?>
<!DOCTYPE svg PUBLIC "-//W3C//DTD SVG 1.1//EN"
 "http://www.w3.org/Graphics/SVG/1.1/DTD/svg11.dtd">
<!-- Generated by graphviz version 2.43.0 (0)
 -->
<!-- Title: src/mainwindow.cpp Pages: 1 -->
<svg width="736pt" height="192pt"
 viewBox="0.00 0.00 736.00 192.00" xmlns="http://www.w3.org/2000/svg" xmlns:xlink="http://www.w3.org/1999/xlink">
<g id="graph0" class="graph" transform="scale(1 1) rotate(0) translate(4 188)">
<title>src/mainwindow.cpp</title>
<!-- Node1 -->
<g id="node1" class="node">
<title>Node1</title>
<g id="a_node1"><a xlink:title=" ">
<polygon fill="#999999" stroke="#666666" points="478.5,-184 362.5,-184 362.5,-165 478.5,-165 478.5,-184"/>
<text text-anchor="middle" x="420.5" y="-172" font-family="Helvetica,sans-Serif" font-size="10.00">src/mainwindow.cpp</text>
</a>
</g>
</g>
<!-- Node2 -->
<g id="node2" class="node">
<title>Node2</title>
<g id="a_node2"><a xlink:href="mainwindow_8h.html" target="_top" xlink:title=" ">
<polygon fill="white" stroke="#666666" points="105,-74 18,-74 18,-55 105,-55 105,-74"/>
<text text-anchor="middle" x="61.5" y="-62" font-family="Helvetica,sans-Serif" font-size="10.00">mainwindow.h</text>
</a>
</g>
</g>
<!-- Node1&#45;&gt;Node2 -->
<g id="edge1" class="edge">
<title>Node1&#45;&gt;Node2</title>
<path fill="none" stroke="#63b8ff" d="M362.2,-168.11C312.11,-162.25 238.53,-150.66 177.5,-129 142.32,-116.52 105.03,-94.27 82.51,-79.71"/>
<polygon fill="#63b8ff" stroke="#63b8ff" points="84.36,-76.73 74.08,-74.17 80.52,-82.58 84.36,-76.73"/>
</g>
<!-- Node4 -->
<g id="node4" class="node">
<title>Node4</title>
<g id="a_node4"><a xlink:href="navpage_8h.html" target="_top" xlink:title=" ">
<polygon fill="white" stroke="#666666" points="254.5,-129 186.5,-129 186.5,-110 254.5,-110 254.5,-129"/>
<text text-anchor="middle" x="220.5" y="-117" font-family="Helvetica,sans-Serif" font-size="10.00">navpage.h</text>
</a>
</g>
</g>
<!-- Node1&#45;&gt;Node4 -->
<g id="edge3" class="edge">
<title>Node1&#45;&gt;Node4</title>
<path fill="none" stroke="#63b8ff" d="M388.37,-164.98C354.35,-155.97 300.5,-141.7 263,-131.76"/>
<polygon fill="#63b8ff" stroke="#63b8ff" points="263.45,-128.26 252.89,-129.08 261.66,-135.03 263.45,-128.26"/>
</g>
<!-- Node11 -->
<g id="node11" class="node">
<title>Node11</title>
<g id="a_node11"><a xlink:title=" ">
<polygon fill="#e0e0e0" stroke="#999999" points="374,-129 273,-129 273,-110 374,-110 374,-129"/>
<text text-anchor="middle" x="323.5" y="-117" font-family="Helvetica,sans-Serif" font-size="10.00">ui_mainwindow.h</text>
</a>
</g>
</g>
<!-- Node1&#45;&gt;Node11 -->
<g id="edge12" class="edge">
<title>Node1&#45;&gt;Node11</title>
<path fill="none" stroke="#63b8ff" d="M404.92,-164.98C389.73,-156.69 366.4,-143.94 348.6,-134.22"/>
<polygon fill="#63b8ff" stroke="#63b8ff" points="349.82,-130.89 339.37,-129.17 346.47,-137.04 349.82,-130.89"/>
</g>
<!-- Node12 -->
<g id="node12" class="node">
<title>Node12</title>
<g id="a_node12"><a xlink:title=" ">
<polygon fill="#e0e0e0" stroke="#999999" points="448.5,-129 392.5,-129 392.5,-110 448.5,-110 448.5,-129"/>
<text text-anchor="middle" x="420.5" y="-117" font-family="Helvetica,sans-Serif" font-size="10.00">QDebug</text>
</a>
</g>
</g>
<!-- Node1&#45;&gt;Node12 -->
<g id="edge13" class="edge">
<title>Node1&#45;&gt;Node12</title>
<path fill="none" stroke="#63b8ff" d="M420.5,-164.75C420.5,-157.8 420.5,-147.85 420.5,-139.13"/>
<polygon fill="#63b8ff" stroke="#63b8ff" points="424,-139.09 420.5,-129.09 417,-139.09 424,-139.09"/>
</g>
<!-- Node13 -->
<g id="node13" class="node">
<title>Node13</title>
<g id="a_node13"><a xlink:title=" ">
<polygon fill="#e0e0e0" stroke="#999999" points="530,-129 467,-129 467,-110 530,-110 530,-129"/>
<text text-anchor="middle" x="498.5" y="-117" font-family="Helvetica,sans-Serif" font-size="10.00">QLineEdit</text>
</a>
</g>
</g>
<!-- Node1&#45;&gt;Node13 -->
<g id="edge14" class="edge">
<title>Node1&#45;&gt;Node13</title>
<path fill="none" stroke="#63b8ff" d="M433.03,-164.98C444.9,-156.92 462.96,-144.65 477.11,-135.03"/>
<polygon fill="#63b8ff" stroke="#63b8ff" points="479.44,-137.69 485.74,-129.17 475.5,-131.9 479.44,-137.69"/>
</g>
<!-- Node14 -->
<g id="node14" class="node">
<title>Node14</title>
<g id="a_node14"><a xlink:title=" ">
<polygon fill="#e0e0e0" stroke="#999999" points="634.5,-129 548.5,-129 548.5,-110 634.5,-110 634.5,-129"/>
<text text-anchor="middle" x="591.5" y="-117" font-family="Helvetica,sans-Serif" font-size="10.00">QMessageBox</text>
</a>
</g>
</g>
<!-- Node1&#45;&gt;Node14 -->
<g id="edge15" class="edge">
<title>Node1&#45;&gt;Node14</title>
<path fill="none" stroke="#63b8ff" d="M447.97,-164.98C476.68,-156.09 521.92,-142.07 553.92,-132.15"/>
<polygon fill="#63b8ff" stroke="#63b8ff" points="555.3,-135.39 563.81,-129.08 553.22,-128.7 555.3,-135.39"/>
</g>
<!-- Node15 -->
<g id="node15" class="node">
<title>Node15</title>
<g id="a_node15"><a xlink:title=" ">
<polygon fill="#e0e0e0" stroke="#999999" points="728,-129 653,-129 653,-110 728,-110 728,-129"/>
<text text-anchor="middle" x="690.5" y="-117" font-family="Helvetica,sans-Serif" font-size="10.00">QTabWidget</text>
</a>
</g>
</g>
<!-- Node1&#45;&gt;Node15 -->
<g id="edge16" class="edge">
<title>Node1&#45;&gt;Node15</title>
<path fill="none" stroke="#63b8ff" d="M463.88,-164.98C512.83,-155.38 592.21,-139.79 642.85,-129.85"/>
<polygon fill="#63b8ff" stroke="#63b8ff" points="643.75,-133.24 652.89,-127.88 642.4,-126.37 643.75,-133.24"/>
</g>
<!-- Node3 -->
<g id="node3" class="node">
<title>Node3</title>
<g id="a_node3"><a xlink:title=" ">
<polygon fill="#e0e0e0" stroke="#999999" points="87,-19 0,-19 0,0 87,0 87,-19"/>
<text text-anchor="middle" x="43.5" y="-7" font-family="Helvetica,sans-Serif" font-size="10.00">QMainWindow</text>
</a>
</g>
</g>
<!-- Node2&#45;&gt;Node3 -->
<g id="edge2" class="edge">
<title>Node2&#45;&gt;Node3</title>
<path fill="none" stroke="#63b8ff" d="M58.53,-54.75C56.14,-47.72 52.71,-37.62 49.73,-28.84"/>
<polygon fill="#63b8ff" stroke="#63b8ff" points="52.95,-27.43 46.42,-19.09 46.32,-29.68 52.95,-27.43"/>
</g>
<!-- Node4&#45;&gt;Node2 -->
<g id="edge7" class="edge">
<title>Node4&#45;&gt;Node2</title>
<path fill="none" stroke="#63b8ff" d="M194.95,-109.98C168.38,-101.13 126.56,-87.19 96.83,-77.28"/>
<polygon fill="#63b8ff" stroke="#63b8ff" points="97.84,-73.92 87.25,-74.08 95.63,-80.56 97.84,-73.92"/>
</g>
<!-- Node5 -->
<g id="node5" class="node">
<title>Node5</title>
<g id="a_node5"><a xlink:href="driveinfo_8h.html" target="_top" xlink:title=" ">
<polygon fill="white" stroke="#666666" points="192,-74 123,-74 123,-55 192,-55 192,-74"/>
<text text-anchor="middle" x="157.5" y="-62" font-family="Helvetica,sans-Serif" font-size="10.00">driveinfo.h</text>
</a>
</g>
</g>
<!-- Node4&#45;&gt;Node5 -->
<g id="edge4" class="edge">
<title>Node4&#45;&gt;Node5</title>
<path fill="none" stroke="#63b8ff" d="M210.38,-109.98C201.06,-102.15 187.03,-90.34 175.76,-80.86"/>
<polygon fill="#63b8ff" stroke="#63b8ff" points="177.71,-77.93 167.81,-74.17 173.21,-83.29 177.71,-77.93"/>
</g>
<!-- Node7 -->
<g id="node7" class="node">
<title>Node7</title>
<g id="a_node7"><a xlink:title=" ">
<polygon fill="#e0e0e0" stroke="#999999" points="263,-19 204,-19 204,0 263,0 263,-19"/>
<text text-anchor="middle" x="233.5" y="-7" font-family="Helvetica,sans-Serif" font-size="10.00">QWidget</text>
</a>
</g>
</g>
<!-- Node4&#45;&gt;Node7 -->
<g id="edge11" class="edge">
<title>Node4&#45;&gt;Node7</title>
<path fill="none" stroke="#63b8ff" d="M221.56,-109.66C223.67,-92.17 228.41,-52.8 231.24,-29.27"/>
<polygon fill="#63b8ff" stroke="#63b8ff" points="234.74,-29.51 232.46,-19.16 227.79,-28.67 234.74,-29.51"/>
</g>
<!-- Node8 -->
<g id="node8" class="node">
<title>Node8</title>
<g id="a_node8"><a xlink:title=" ">
<polygon fill="#e0e0e0" stroke="#999999" points="360,-74 249,-74 249,-55 360,-55 360,-74"/>
<text text-anchor="middle" x="304.5" y="-62" font-family="Helvetica,sans-Serif" font-size="10.00">QAbstractItemView</text>
</a>
</g>
</g>
<!-- Node4&#45;&gt;Node8 -->
<g id="edge8" class="edge">
<title>Node4&#45;&gt;Node8</title>
<path fill="none" stroke="#63b8ff" d="M234,-109.98C246.9,-101.84 266.6,-89.41 281.9,-79.76"/>
<polygon fill="#63b8ff" stroke="#63b8ff" points="284.17,-82.47 290.76,-74.17 280.43,-76.55 284.17,-82.47"/>
</g>
<!-- Node9 -->
<g id="node9" class="node">
<title>Node9</title>
<g id="a_node9"><a xlink:title=" ">
<polygon fill="#e0e0e0" stroke="#999999" points="416.5,-74 378.5,-74 378.5,-55 416.5,-55 416.5,-74"/>
<text text-anchor="middle" x="397.5" y="-62" font-family="Helvetica,sans-Serif" font-size="10.00">QDir</text>
</a>
</g>
</g>
<!-- Node4&#45;&gt;Node9 -->
<g id="edge9" class="edge">
<title>Node4&#45;&gt;Node9</title>
<path fill="none" stroke="#63b8ff" d="M249.35,-109.92C277.44,-101.57 321.59,-88.41 368.49,-74.29"/>
<polygon fill="#63b8ff" stroke="#63b8ff" points="369.66,-77.6 378.22,-71.36 367.64,-70.9 369.66,-77.6"/>
</g>
<!-- Node10 -->
<g id="node10" class="node">
<title>Node10</title>
<g id="a_node10"><a xlink:title=" ">
<polygon fill="#e0e0e0" stroke="#999999" points="542.5,-74 434.5,-74 434.5,-55 542.5,-55 542.5,-74"/>
<text text-anchor="middle" x="488.5" y="-62" font-family="Helvetica,sans-Serif" font-size="10.00">QFileSystemModel</text>
</a>
</g>
</g>
<!-- Node4&#45;&gt;Node10 -->
<g id="edge10" class="edge">
<title>Node4&#45;&gt;Node10</title>
<path fill="none" stroke="#63b8ff" d="M254.71,-111.73C300.32,-102.72 381.49,-86.66 435.17,-76.05"/>
<polygon fill="#63b8ff" stroke="#63b8ff" points="436.05,-79.44 445.19,-74.07 434.7,-72.57 436.05,-79.44"/>
</g>
<!-- Node6 -->
<g id="node6" class="node">
<title>Node6</title>
<g id="a_node6"><a xlink:title=" ">
<polygon fill="#e0e0e0" stroke="#999999" points="185.5,-19 105.5,-19 105.5,0 185.5,0 185.5,-19"/>
<text text-anchor="middle" x="145.5" y="-7" font-family="Helvetica,sans-Serif" font-size="10.00">QStorageInfo</text>
</a>
</g>
</g>
<!-- Node5&#45;&gt;Node6 -->
<g id="edge5" class="edge">
<title>Node5&#45;&gt;Node6</title>
<path fill="none" stroke="#63b8ff" d="M155.52,-54.75C153.93,-47.72 151.64,-37.62 149.65,-28.84"/>
<polygon fill="#63b8ff" stroke="#63b8ff" points="153.07,-28.07 147.44,-19.09 146.24,-29.62 153.07,-28.07"/>
</g>
<!-- Node5&#45;&gt;Node7 -->
<g id="edge6" class="edge">
<title>Node5&#45;&gt;Node7</title>
<path fill="none" stroke="#63b8ff" d="M169.71,-54.98C181.28,-46.92 198.88,-34.65 212.66,-25.03"/>
<polygon fill="#63b8ff" stroke="#63b8ff" points="214.87,-27.76 221.07,-19.17 210.86,-22.02 214.87,-27.76"/>
</g>
</g>
</svg>
