<?xml version="1.0" encoding="UTF-8" standalone="no"?>
<!DOCTYPE svg PUBLIC "-//W3C//DTD SVG 1.1//EN"
 "http://www.w3.org/Graphics/SVG/1.1/DTD/svg11.dtd">
<!-- Generated by graphviz version 2.43.0 (0)
 -->
<!-- Title: src/mainwindow.cpp Pages: 1 -->
<svg width="852pt" height="192pt"
 viewBox="0.00 0.00 852.00 192.00" xmlns="http://www.w3.org/2000/svg" xmlns:xlink="http://www.w3.org/1999/xlink">
<g id="graph0" class="graph" transform="scale(1 1) rotate(0) translate(4 188)">
<title>src/mainwindow.cpp</title>
<!-- Node1 -->
<g id="node1" class="node">
<title>Node1</title>
<g id="a_node1"><a xlink:title=" ">
<polygon fill="#999999" stroke="#666666" points="497.5,-184 381.5,-184 381.5,-165 497.5,-165 497.5,-184"/>
<text text-anchor="middle" x="439.5" y="-172" font-family="Helvetica,sans-Serif" font-size="10.00">src/mainwindow.cpp</text>
</a>
</g>
</g>
<!-- Node2 -->
<g id="node2" class="node">
<title>Node2</title>
<g id="a_node2"><a xlink:href="mainwindow_8h.html" target="_top" xlink:title=" ">
<polygon fill="white" stroke="#666666" points="87,-74 0,-74 0,-55 87,-55 87,-74"/>
<text text-anchor="middle" x="43.5" y="-62" font-family="Helvetica,sans-Serif" font-size="10.00">mainwindow.h</text>
</a>
</g>
</g>
<!-- Node1&#45;&gt;Node2 -->
<g id="edge1" class="edge">
<title>Node1&#45;&gt;Node2</title>
<path fill="none" stroke="#63b8ff" d="M381.29,-165.8C332.86,-158.62 262.4,-146.41 202.5,-129 155.11,-115.23 102.31,-92.61 71.05,-78.41"/>
<polygon fill="#63b8ff" stroke="#63b8ff" points="72.24,-75.11 61.69,-74.12 69.32,-81.47 72.24,-75.11"/>
</g>
<!-- Node4 -->
<g id="node4" class="node">
<title>Node4</title>
<g id="a_node4"><a xlink:href="navpage_8h.html" target="_top" xlink:title=" ">
<polygon fill="white" stroke="#666666" points="279.5,-129 211.5,-129 211.5,-110 279.5,-110 279.5,-129"/>
<text text-anchor="middle" x="245.5" y="-117" font-family="Helvetica,sans-Serif" font-size="10.00">navpage.h</text>
</a>
</g>
</g>
<!-- Node1&#45;&gt;Node4 -->
<g id="edge3" class="edge">
<title>Node1&#45;&gt;Node4</title>
<path fill="none" stroke="#63b8ff" d="M408.33,-164.98C375.34,-155.97 323.1,-141.7 286.73,-131.76"/>
<polygon fill="#63b8ff" stroke="#63b8ff" points="287.48,-128.34 276.91,-129.08 285.64,-135.09 287.48,-128.34"/>
</g>
<!-- Node6 -->
<g id="node6" class="node">
<title>Node6</title>
<g id="a_node6"><a xlink:title=" ">
<polygon fill="#e0e0e0" stroke="#999999" points="349.5,-74 311.5,-74 311.5,-55 349.5,-55 349.5,-74"/>
<text text-anchor="middle" x="330.5" y="-62" font-family="Helvetica,sans-Serif" font-size="10.00">QDir</text>
</a>
</g>
</g>
<!-- Node1&#45;&gt;Node6 -->
<g id="edge11" class="edge">
<title>Node1&#45;&gt;Node6</title>
<path fill="none" stroke="#63b8ff" d="M423.31,-164.94C409.12,-156.91 388.47,-143.94 373.5,-129 359.7,-115.23 347.62,-96.43 339.8,-82.87"/>
<polygon fill="#63b8ff" stroke="#63b8ff" points="342.82,-81.1 334.9,-74.06 336.71,-84.5 342.82,-81.1"/>
</g>
<!-- Node7 -->
<g id="node7" class="node">
<title>Node7</title>
<g id="a_node7"><a xlink:title=" ">
<polygon fill="#e0e0e0" stroke="#999999" points="475.5,-74 367.5,-74 367.5,-55 475.5,-55 475.5,-74"/>
<text text-anchor="middle" x="421.5" y="-62" font-family="Helvetica,sans-Serif" font-size="10.00">QFileSystemModel</text>
</a>
</g>
</g>
<!-- Node1&#45;&gt;Node7 -->
<g id="edge12" class="edge">
<title>Node1&#45;&gt;Node7</title>
<path fill="none" stroke="#63b8ff" d="M420.23,-164.9C406.38,-157.55 388.74,-145.54 380.5,-129 371.89,-111.72 386.72,-93.33 400.89,-80.81"/>
<polygon fill="#63b8ff" stroke="#63b8ff" points="403.47,-83.22 408.97,-74.17 399.02,-77.81 403.47,-83.22"/>
</g>
<!-- Node9 -->
<g id="node9" class="node">
<title>Node9</title>
<g id="a_node9"><a xlink:title=" ">
<polygon fill="#e0e0e0" stroke="#999999" points="490,-129 389,-129 389,-110 490,-110 490,-129"/>
<text text-anchor="middle" x="439.5" y="-117" font-family="Helvetica,sans-Serif" font-size="10.00">ui_mainwindow.h</text>
</a>
</g>
</g>
<!-- Node1&#45;&gt;Node9 -->
<g id="edge9" class="edge">
<title>Node1&#45;&gt;Node9</title>
<path fill="none" stroke="#63b8ff" d="M439.5,-164.75C439.5,-157.8 439.5,-147.85 439.5,-139.13"/>
<polygon fill="#63b8ff" stroke="#63b8ff" points="443,-139.09 439.5,-129.09 436,-139.09 443,-139.09"/>
</g>
<!-- Node10 -->
<g id="node10" class="node">
<title>Node10</title>
<g id="a_node10"><a xlink:title=" ">
<polygon fill="#e0e0e0" stroke="#999999" points="564.5,-129 508.5,-129 508.5,-110 564.5,-110 564.5,-129"/>
<text text-anchor="middle" x="536.5" y="-117" font-family="Helvetica,sans-Serif" font-size="10.00">QDebug</text>
</a>
</g>
</g>
<!-- Node1&#45;&gt;Node10 -->
<g id="edge10" class="edge">
<title>Node1&#45;&gt;Node10</title>
<path fill="none" stroke="#63b8ff" d="M455.08,-164.98C470.27,-156.69 493.6,-143.94 511.4,-134.22"/>
<polygon fill="#63b8ff" stroke="#63b8ff" points="513.53,-137.04 520.63,-129.17 510.18,-130.89 513.53,-137.04"/>
</g>
<!-- Node11 -->
<g id="node11" class="node">
<title>Node11</title>
<g id="a_node11"><a xlink:title=" ">
<polygon fill="#e0e0e0" stroke="#999999" points="646,-129 583,-129 583,-110 646,-110 646,-129"/>
<text text-anchor="middle" x="614.5" y="-117" font-family="Helvetica,sans-Serif" font-size="10.00">QLineEdit</text>
</a>
</g>
</g>
<!-- Node1&#45;&gt;Node11 -->
<g id="edge13" class="edge">
<title>Node1&#45;&gt;Node11</title>
<path fill="none" stroke="#63b8ff" d="M467.62,-164.98C497.12,-156.05 543.69,-141.94 576.47,-132.02"/>
<polygon fill="#63b8ff" stroke="#63b8ff" points="577.61,-135.33 586.16,-129.08 575.58,-128.63 577.61,-135.33"/>
</g>
<!-- Node12 -->
<g id="node12" class="node">
<title>Node12</title>
<g id="a_node12"><a xlink:title=" ">
<polygon fill="#e0e0e0" stroke="#999999" points="750.5,-129 664.5,-129 664.5,-110 750.5,-110 750.5,-129"/>
<text text-anchor="middle" x="707.5" y="-117" font-family="Helvetica,sans-Serif" font-size="10.00">QMessageBox</text>
</a>
</g>
</g>
<!-- Node1&#45;&gt;Node12 -->
<g id="edge14" class="edge">
<title>Node1&#45;&gt;Node12</title>
<path fill="none" stroke="#63b8ff" d="M482.56,-164.98C529.21,-155.76 603.7,-141.03 654.06,-131.07"/>
<polygon fill="#63b8ff" stroke="#63b8ff" points="654.97,-134.46 664.1,-129.08 653.61,-127.59 654.97,-134.46"/>
</g>
<!-- Node13 -->
<g id="node13" class="node">
<title>Node13</title>
<g id="a_node13"><a xlink:title=" ">
<polygon fill="#e0e0e0" stroke="#999999" points="844,-129 769,-129 769,-110 844,-110 844,-129"/>
<text text-anchor="middle" x="806.5" y="-117" font-family="Helvetica,sans-Serif" font-size="10.00">QTabWidget</text>
</a>
</g>
</g>
<!-- Node1&#45;&gt;Node13 -->
<g id="edge15" class="edge">
<title>Node1&#45;&gt;Node13</title>
<path fill="none" stroke="#63b8ff" d="M497.71,-166.13C559.79,-158.11 661.24,-144.53 758.78,-129.06"/>
<polygon fill="#63b8ff" stroke="#63b8ff" points="759.49,-132.49 768.81,-127.46 758.39,-125.57 759.49,-132.49"/>
</g>
<!-- Node3 -->
<g id="node3" class="node">
<title>Node3</title>
<g id="a_node3"><a xlink:title=" ">
<polygon fill="#e0e0e0" stroke="#999999" points="87,-19 0,-19 0,0 87,0 87,-19"/>
<text text-anchor="middle" x="43.5" y="-7" font-family="Helvetica,sans-Serif" font-size="10.00">QMainWindow</text>
</a>
</g>
</g>
<!-- Node2&#45;&gt;Node3 -->
<g id="edge2" class="edge">
<title>Node2&#45;&gt;Node3</title>
<path fill="none" stroke="#63b8ff" d="M43.5,-54.75C43.5,-47.8 43.5,-37.85 43.5,-29.13"/>
<polygon fill="#63b8ff" stroke="#63b8ff" points="47,-29.09 43.5,-19.09 40,-29.09 47,-29.09"/>
</g>
<!-- Node4&#45;&gt;Node2 -->
<g id="edge4" class="edge">
<title>Node4&#45;&gt;Node2</title>
<path fill="none" stroke="#63b8ff" d="M213.05,-109.98C178.54,-100.93 123.84,-86.58 85.94,-76.64"/>
<polygon fill="#63b8ff" stroke="#63b8ff" points="86.77,-73.23 76.21,-74.08 84.99,-80.01 86.77,-73.23"/>
</g>
<!-- Node5 -->
<g id="node5" class="node">
<title>Node5</title>
<g id="a_node5"><a xlink:title=" ">
<polygon fill="#e0e0e0" stroke="#999999" points="293,-74 182,-74 182,-55 293,-55 293,-74"/>
<text text-anchor="middle" x="237.5" y="-62" font-family="Helvetica,sans-Serif" font-size="10.00">QAbstractItemView</text>
</a>
</g>
</g>
<!-- Node4&#45;&gt;Node5 -->
<g id="edge5" class="edge">
<title>Node4&#45;&gt;Node5</title>
<path fill="none" stroke="#63b8ff" d="M244.18,-109.75C243.13,-102.8 241.63,-92.85 240.31,-84.13"/>
<polygon fill="#63b8ff" stroke="#63b8ff" points="243.75,-83.45 238.8,-74.09 236.83,-84.5 243.75,-83.45"/>
</g>
<!-- Node4&#45;&gt;Node6 -->
<g id="edge6" class="edge">
<title>Node4&#45;&gt;Node6</title>
<path fill="none" stroke="#63b8ff" d="M259.16,-109.98C272.34,-101.77 292.53,-89.18 308.07,-79.49"/>
<polygon fill="#63b8ff" stroke="#63b8ff" points="309.96,-82.43 316.59,-74.17 306.26,-76.49 309.96,-82.43"/>
</g>
<!-- Node4&#45;&gt;Node7 -->
<g id="edge7" class="edge">
<title>Node4&#45;&gt;Node7</title>
<path fill="none" stroke="#63b8ff" d="M273.78,-109.98C303.45,-101.05 350.29,-86.94 383.25,-77.02"/>
<polygon fill="#63b8ff" stroke="#63b8ff" points="384.43,-80.32 393,-74.08 382.42,-73.61 384.43,-80.32"/>
</g>
<!-- Node8 -->
<g id="node8" class="node">
<title>Node8</title>
<g id="a_node8"><a xlink:title=" ">
<polygon fill="#e0e0e0" stroke="#999999" points="164,-74 105,-74 105,-55 164,-55 164,-74"/>
<text text-anchor="middle" x="134.5" y="-62" font-family="Helvetica,sans-Serif" font-size="10.00">QWidget</text>
</a>
</g>
</g>
<!-- Node4&#45;&gt;Node8 -->
<g id="edge8" class="edge">
<title>Node4&#45;&gt;Node8</title>
<path fill="none" stroke="#63b8ff" d="M227.67,-109.98C209.89,-101.5 182.35,-88.35 161.82,-78.54"/>
<polygon fill="#63b8ff" stroke="#63b8ff" points="163.19,-75.32 152.66,-74.17 160.17,-81.64 163.19,-75.32"/>
</g>
</g>
</svg>
