<?xml version="1.0" encoding="UTF-8" standalone="no"?>
<!DOCTYPE svg PUBLIC "-//W3C//DTD SVG 1.1//EN"
 "http://www.w3.org/Graphics/SVG/1.1/DTD/svg11.dtd">
<!-- Generated by graphviz version 2.43.0 (0)
 -->
<!-- Title: src/mainwindow.cpp Pages: 1 -->
<svg width="769pt" height="192pt"
 viewBox="0.00 0.00 769.00 192.00" xmlns="http://www.w3.org/2000/svg" xmlns:xlink="http://www.w3.org/1999/xlink">
<g id="graph0" class="graph" transform="scale(1 1) rotate(0) translate(4 188)">
<title>src/mainwindow.cpp</title>
<!-- Node1 -->
<g id="node1" class="node">
<title>Node1</title>
<g id="a_node1"><a xlink:title=" ">
<polygon fill="#999999" stroke="#666666" points="550.5,-184 434.5,-184 434.5,-165 550.5,-165 550.5,-184"/>
<text text-anchor="middle" x="492.5" y="-172" font-family="Helvetica,sans-Serif" font-size="10.00">src/mainwindow.cpp</text>
</a>
</g>
</g>
<!-- Node2 -->
<g id="node2" class="node">
<title>Node2</title>
<g id="a_node2"><a xlink:href="navpage_8h.html" target="_top" xlink:title=" ">
<polygon fill="white" stroke="#666666" points="287.5,-129 219.5,-129 219.5,-110 287.5,-110 287.5,-129"/>
<text text-anchor="middle" x="253.5" y="-117" font-family="Helvetica,sans-Serif" font-size="10.00">navpage.h</text>
</a>
</g>
</g>
<!-- Node1&#45;&gt;Node2 -->
<g id="edge1" class="edge">
<title>Node1&#45;&gt;Node2</title>
<path fill="none" stroke="#63b8ff" d="M454.1,-164.98C411.38,-155.51 342.47,-140.23 297.58,-130.27"/>
<polygon fill="#63b8ff" stroke="#63b8ff" points="298.07,-126.8 287.55,-128.05 296.55,-133.63 298.07,-126.8"/>
</g>
<!-- Node9 -->
<g id="node9" class="node">
<title>Node9</title>
<g id="a_node9"><a xlink:title=" ">
<polygon fill="#e0e0e0" stroke="#999999" points="407,-129 306,-129 306,-110 407,-110 407,-129"/>
<text text-anchor="middle" x="356.5" y="-117" font-family="Helvetica,sans-Serif" font-size="10.00">ui_mainwindow.h</text>
</a>
</g>
</g>
<!-- Node1&#45;&gt;Node9 -->
<g id="edge8" class="edge">
<title>Node1&#45;&gt;Node9</title>
<path fill="none" stroke="#63b8ff" d="M470.65,-164.98C448.38,-156.3 413.6,-142.75 388.28,-132.88"/>
<polygon fill="#63b8ff" stroke="#63b8ff" points="389.34,-129.54 378.75,-129.17 386.79,-136.06 389.34,-129.54"/>
</g>
<!-- Node10 -->
<g id="node10" class="node">
<title>Node10</title>
<g id="a_node10"><a xlink:title=" ">
<polygon fill="#e0e0e0" stroke="#999999" points="481.5,-129 425.5,-129 425.5,-110 481.5,-110 481.5,-129"/>
<text text-anchor="middle" x="453.5" y="-117" font-family="Helvetica,sans-Serif" font-size="10.00">QDebug</text>
</a>
</g>
</g>
<!-- Node1&#45;&gt;Node10 -->
<g id="edge9" class="edge">
<title>Node1&#45;&gt;Node10</title>
<path fill="none" stroke="#63b8ff" d="M486.06,-164.75C480.61,-157.34 472.64,-146.5 465.94,-137.41"/>
<polygon fill="#63b8ff" stroke="#63b8ff" points="468.57,-135.07 459.82,-129.09 462.93,-139.22 468.57,-135.07"/>
</g>
<!-- Node11 -->
<g id="node11" class="node">
<title>Node11</title>
<g id="a_node11"><a xlink:title=" ">
<polygon fill="#e0e0e0" stroke="#999999" points="563,-129 500,-129 500,-110 563,-110 563,-129"/>
<text text-anchor="middle" x="531.5" y="-117" font-family="Helvetica,sans-Serif" font-size="10.00">QLineEdit</text>
</a>
</g>
</g>
<!-- Node1&#45;&gt;Node11 -->
<g id="edge10" class="edge">
<title>Node1&#45;&gt;Node11</title>
<path fill="none" stroke="#63b8ff" d="M498.94,-164.75C504.39,-157.34 512.36,-146.5 519.06,-137.41"/>
<polygon fill="#63b8ff" stroke="#63b8ff" points="522.07,-139.22 525.18,-129.09 516.43,-135.07 522.07,-139.22"/>
</g>
<!-- Node12 -->
<g id="node12" class="node">
<title>Node12</title>
<g id="a_node12"><a xlink:title=" ">
<polygon fill="#e0e0e0" stroke="#999999" points="667.5,-129 581.5,-129 581.5,-110 667.5,-110 667.5,-129"/>
<text text-anchor="middle" x="624.5" y="-117" font-family="Helvetica,sans-Serif" font-size="10.00">QMessageBox</text>
</a>
</g>
</g>
<!-- Node1&#45;&gt;Node12 -->
<g id="edge11" class="edge">
<title>Node1&#45;&gt;Node12</title>
<path fill="none" stroke="#63b8ff" d="M513.71,-164.98C535.23,-156.34 568.78,-142.87 593.33,-133.02"/>
<polygon fill="#63b8ff" stroke="#63b8ff" points="594.93,-136.14 602.91,-129.17 592.32,-129.65 594.93,-136.14"/>
</g>
<!-- Node13 -->
<g id="node13" class="node">
<title>Node13</title>
<g id="a_node13"><a xlink:title=" ">
<polygon fill="#e0e0e0" stroke="#999999" points="761,-129 686,-129 686,-110 761,-110 761,-129"/>
<text text-anchor="middle" x="723.5" y="-117" font-family="Helvetica,sans-Serif" font-size="10.00">QTabWidget</text>
</a>
</g>
</g>
<!-- Node1&#45;&gt;Node13 -->
<g id="edge12" class="edge">
<title>Node1&#45;&gt;Node13</title>
<path fill="none" stroke="#63b8ff" d="M529.61,-164.98C569.49,-155.84 632.96,-141.27 676.34,-131.32"/>
<polygon fill="#63b8ff" stroke="#63b8ff" points="677.13,-134.73 686.09,-129.08 675.57,-127.91 677.13,-134.73"/>
</g>
<!-- Node3 -->
<g id="node3" class="node">
<title>Node3</title>
<g id="a_node3"><a xlink:href="mainwindow_8h.html" target="_top" xlink:title=" ">
<polygon fill="white" stroke="#666666" points="87,-74 0,-74 0,-55 87,-55 87,-74"/>
<text text-anchor="middle" x="43.5" y="-62" font-family="Helvetica,sans-Serif" font-size="10.00">mainwindow.h</text>
</a>
</g>
</g>
<!-- Node2&#45;&gt;Node3 -->
<g id="edge2" class="edge">
<title>Node2&#45;&gt;Node3</title>
<path fill="none" stroke="#63b8ff" d="M219.76,-109.98C183.82,-100.91 126.78,-86.52 87.37,-76.57"/>
<polygon fill="#63b8ff" stroke="#63b8ff" points="88.06,-73.14 77.5,-74.08 86.34,-79.92 88.06,-73.14"/>
</g>
<!-- Node5 -->
<g id="node5" class="node">
<title>Node5</title>
<g id="a_node5"><a xlink:title=" ">
<polygon fill="#e0e0e0" stroke="#999999" points="216,-74 105,-74 105,-55 216,-55 216,-74"/>
<text text-anchor="middle" x="160.5" y="-62" font-family="Helvetica,sans-Serif" font-size="10.00">QAbstractItemView</text>
</a>
</g>
</g>
<!-- Node2&#45;&gt;Node5 -->
<g id="edge4" class="edge">
<title>Node2&#45;&gt;Node5</title>
<path fill="none" stroke="#63b8ff" d="M238.56,-109.98C224,-101.69 201.63,-88.94 184.57,-79.22"/>
<polygon fill="#63b8ff" stroke="#63b8ff" points="186.14,-76.08 175.71,-74.17 182.67,-82.16 186.14,-76.08"/>
</g>
<!-- Node6 -->
<g id="node6" class="node">
<title>Node6</title>
<g id="a_node6"><a xlink:title=" ">
<polygon fill="#e0e0e0" stroke="#999999" points="272.5,-74 234.5,-74 234.5,-55 272.5,-55 272.5,-74"/>
<text text-anchor="middle" x="253.5" y="-62" font-family="Helvetica,sans-Serif" font-size="10.00">QDir</text>
</a>
</g>
</g>
<!-- Node2&#45;&gt;Node6 -->
<g id="edge5" class="edge">
<title>Node2&#45;&gt;Node6</title>
<path fill="none" stroke="#63b8ff" d="M253.5,-109.75C253.5,-102.8 253.5,-92.85 253.5,-84.13"/>
<polygon fill="#63b8ff" stroke="#63b8ff" points="257,-84.09 253.5,-74.09 250,-84.09 257,-84.09"/>
</g>
<!-- Node7 -->
<g id="node7" class="node">
<title>Node7</title>
<g id="a_node7"><a xlink:title=" ">
<polygon fill="#e0e0e0" stroke="#999999" points="398.5,-74 290.5,-74 290.5,-55 398.5,-55 398.5,-74"/>
<text text-anchor="middle" x="344.5" y="-62" font-family="Helvetica,sans-Serif" font-size="10.00">QFileSystemModel</text>
</a>
</g>
</g>
<!-- Node2&#45;&gt;Node7 -->
<g id="edge6" class="edge">
<title>Node2&#45;&gt;Node7</title>
<path fill="none" stroke="#63b8ff" d="M268.12,-109.98C282.36,-101.69 304.25,-88.94 320.95,-79.22"/>
<polygon fill="#63b8ff" stroke="#63b8ff" points="322.73,-82.23 329.61,-74.17 319.21,-76.18 322.73,-82.23"/>
</g>
<!-- Node8 -->
<g id="node8" class="node">
<title>Node8</title>
<g id="a_node8"><a xlink:title=" ">
<polygon fill="#e0e0e0" stroke="#999999" points="476,-74 417,-74 417,-55 476,-55 476,-74"/>
<text text-anchor="middle" x="446.5" y="-62" font-family="Helvetica,sans-Serif" font-size="10.00">QWidget</text>
</a>
</g>
</g>
<!-- Node2&#45;&gt;Node8 -->
<g id="edge7" class="edge">
<title>Node2&#45;&gt;Node8</title>
<path fill="none" stroke="#63b8ff" d="M284.51,-109.98C317.82,-100.84 370.84,-86.28 407.09,-76.32"/>
<polygon fill="#63b8ff" stroke="#63b8ff" points="408.12,-79.67 416.84,-73.65 406.27,-72.92 408.12,-79.67"/>
</g>
<!-- Node4 -->
<g id="node4" class="node">
<title>Node4</title>
<g id="a_node4"><a xlink:title=" ">
<polygon fill="#e0e0e0" stroke="#999999" points="87,-19 0,-19 0,0 87,0 87,-19"/>
<text text-anchor="middle" x="43.5" y="-7" font-family="Helvetica,sans-Serif" font-size="10.00">QMainWindow</text>
</a>
</g>
</g>
<!-- Node3&#45;&gt;Node4 -->
<g id="edge3" class="edge">
<title>Node3&#45;&gt;Node4</title>
<path fill="none" stroke="#63b8ff" d="M43.5,-54.75C43.5,-47.8 43.5,-37.85 43.5,-29.13"/>
<polygon fill="#63b8ff" stroke="#63b8ff" points="47,-29.09 43.5,-19.09 40,-29.09 47,-29.09"/>
</g>
</g>
</svg>
