<?xml version="1.0" encoding="UTF-8" standalone="no"?>
<!DOCTYPE svg PUBLIC "-//W3C//DTD SVG 1.1//EN"
 "http://www.w3.org/Graphics/SVG/1.1/DTD/svg11.dtd">
<!-- Generated by graphviz version 2.43.0 (0)
 -->
<!-- Title: src/mainwindow.cpp Pages: 1 -->
<svg width="825pt" height="137pt"
 viewBox="0.00 0.00 825.00 137.00" xmlns="http://www.w3.org/2000/svg" xmlns:xlink="http://www.w3.org/1999/xlink">
<g id="graph0" class="graph" transform="scale(1 1) rotate(0) translate(4 133)">
<title>src/mainwindow.cpp</title>
<!-- Node1 -->
<g id="node1" class="node">
<title>Node1</title>
<g id="a_node1"><a xlink:title=" ">
<polygon fill="#999999" stroke="#666666" points="441.5,-129 325.5,-129 325.5,-110 441.5,-110 441.5,-129"/>
<text text-anchor="middle" x="383.5" y="-117" font-family="Helvetica,sans-Serif" font-size="10.00">src/mainwindow.cpp</text>
</a>
</g>
</g>
<!-- Node2 -->
<g id="node2" class="node">
<title>Node2</title>
<g id="a_node2"><a xlink:href="mainwindow_8h.html" target="_top" xlink:title=" ">
<polygon fill="white" stroke="#666666" points="91,-74 4,-74 4,-55 91,-55 91,-74"/>
<text text-anchor="middle" x="47.5" y="-62" font-family="Helvetica,sans-Serif" font-size="10.00">mainwindow.h</text>
</a>
</g>
</g>
<!-- Node1&#45;&gt;Node2 -->
<g id="edge1" class="edge">
<title>Node1&#45;&gt;Node2</title>
<path fill="none" stroke="#63b8ff" d="M329.52,-109.98C266.78,-100.09 163.89,-83.86 101.25,-73.98"/>
<polygon fill="#63b8ff" stroke="#63b8ff" points="101.6,-70.49 91.18,-72.39 100.51,-77.41 101.6,-70.49"/>
</g>
<!-- Node4 -->
<g id="node4" class="node">
<title>Node4</title>
<g id="a_node4"><a xlink:href="navpage_8h.html" target="_top" xlink:title=" ">
<polygon fill="white" stroke="#666666" points="217.5,-74 149.5,-74 149.5,-55 217.5,-55 217.5,-74"/>
<text text-anchor="middle" x="183.5" y="-62" font-family="Helvetica,sans-Serif" font-size="10.00">navpage.h</text>
</a>
</g>
</g>
<!-- Node1&#45;&gt;Node4 -->
<g id="edge3" class="edge">
<title>Node1&#45;&gt;Node4</title>
<path fill="none" stroke="#63b8ff" d="M351.37,-109.98C317.35,-100.97 263.5,-86.7 226,-76.76"/>
<polygon fill="#63b8ff" stroke="#63b8ff" points="226.45,-73.26 215.89,-74.08 224.66,-80.03 226.45,-73.26"/>
</g>
<!-- Node5 -->
<g id="node5" class="node">
<title>Node5</title>
<g id="a_node5"><a xlink:title=" ">
<polygon fill="#e0e0e0" stroke="#999999" points="143.5,-19 105.5,-19 105.5,0 143.5,0 143.5,-19"/>
<text text-anchor="middle" x="124.5" y="-7" font-family="Helvetica,sans-Serif" font-size="10.00">QDir</text>
</a>
</g>
</g>
<!-- Node1&#45;&gt;Node5 -->
<g id="edge8" class="edge">
<title>Node1&#45;&gt;Node5</title>
<path fill="none" stroke="#63b8ff" d="M325.29,-114.98C262.09,-109.96 166.64,-98.48 140.5,-74 128.45,-62.72 124.92,-43.81 124.13,-29.55"/>
<polygon fill="#63b8ff" stroke="#63b8ff" points="127.62,-29.29 123.96,-19.35 120.62,-29.41 127.62,-29.29"/>
</g>
<!-- Node7 -->
<g id="node7" class="node">
<title>Node7</title>
<g id="a_node7"><a xlink:title=" ">
<polygon fill="#e0e0e0" stroke="#999999" points="337,-74 236,-74 236,-55 337,-55 337,-74"/>
<text text-anchor="middle" x="286.5" y="-62" font-family="Helvetica,sans-Serif" font-size="10.00">ui_mainwindow.h</text>
</a>
</g>
</g>
<!-- Node1&#45;&gt;Node7 -->
<g id="edge6" class="edge">
<title>Node1&#45;&gt;Node7</title>
<path fill="none" stroke="#63b8ff" d="M367.92,-109.98C352.73,-101.69 329.4,-88.94 311.6,-79.22"/>
<polygon fill="#63b8ff" stroke="#63b8ff" points="312.82,-75.89 302.37,-74.17 309.47,-82.04 312.82,-75.89"/>
</g>
<!-- Node8 -->
<g id="node8" class="node">
<title>Node8</title>
<g id="a_node8"><a xlink:title=" ">
<polygon fill="#e0e0e0" stroke="#999999" points="411.5,-74 355.5,-74 355.5,-55 411.5,-55 411.5,-74"/>
<text text-anchor="middle" x="383.5" y="-62" font-family="Helvetica,sans-Serif" font-size="10.00">QDebug</text>
</a>
</g>
</g>
<!-- Node1&#45;&gt;Node8 -->
<g id="edge7" class="edge">
<title>Node1&#45;&gt;Node8</title>
<path fill="none" stroke="#63b8ff" d="M383.5,-109.75C383.5,-102.8 383.5,-92.85 383.5,-84.13"/>
<polygon fill="#63b8ff" stroke="#63b8ff" points="387,-84.09 383.5,-74.09 380,-84.09 387,-84.09"/>
</g>
<!-- Node9 -->
<g id="node9" class="node">
<title>Node9</title>
<g id="a_node9"><a xlink:title=" ">
<polygon fill="#e0e0e0" stroke="#999999" points="537.5,-74 429.5,-74 429.5,-55 537.5,-55 537.5,-74"/>
<text text-anchor="middle" x="483.5" y="-62" font-family="Helvetica,sans-Serif" font-size="10.00">QFileSystemModel</text>
</a>
</g>
</g>
<!-- Node1&#45;&gt;Node9 -->
<g id="edge9" class="edge">
<title>Node1&#45;&gt;Node9</title>
<path fill="none" stroke="#63b8ff" d="M399.57,-109.98C415.36,-101.61 439.72,-88.7 458.13,-78.95"/>
<polygon fill="#63b8ff" stroke="#63b8ff" points="459.94,-81.95 467.14,-74.17 456.67,-75.76 459.94,-81.95"/>
</g>
<!-- Node10 -->
<g id="node10" class="node">
<title>Node10</title>
<g id="a_node10"><a xlink:title=" ">
<polygon fill="#e0e0e0" stroke="#999999" points="619,-74 556,-74 556,-55 619,-55 619,-74"/>
<text text-anchor="middle" x="587.5" y="-62" font-family="Helvetica,sans-Serif" font-size="10.00">QLineEdit</text>
</a>
</g>
</g>
<!-- Node1&#45;&gt;Node10 -->
<g id="edge10" class="edge">
<title>Node1&#45;&gt;Node10</title>
<path fill="none" stroke="#63b8ff" d="M416.28,-109.98C451.53,-100.82 507.68,-86.24 546,-76.28"/>
<polygon fill="#63b8ff" stroke="#63b8ff" points="547.01,-79.63 555.81,-73.73 545.25,-72.86 547.01,-79.63"/>
</g>
<!-- Node11 -->
<g id="node11" class="node">
<title>Node11</title>
<g id="a_node11"><a xlink:title=" ">
<polygon fill="#e0e0e0" stroke="#999999" points="723.5,-74 637.5,-74 637.5,-55 723.5,-55 723.5,-74"/>
<text text-anchor="middle" x="680.5" y="-62" font-family="Helvetica,sans-Serif" font-size="10.00">QMessageBox</text>
</a>
</g>
</g>
<!-- Node1&#45;&gt;Node11 -->
<g id="edge11" class="edge">
<title>Node1&#45;&gt;Node11</title>
<path fill="none" stroke="#63b8ff" d="M431.22,-109.98C484.78,-100.43 571.47,-84.96 627.21,-75.01"/>
<polygon fill="#63b8ff" stroke="#63b8ff" points="628.02,-78.42 637.25,-73.22 626.79,-71.53 628.02,-78.42"/>
</g>
<!-- Node12 -->
<g id="node12" class="node">
<title>Node12</title>
<g id="a_node12"><a xlink:title=" ">
<polygon fill="#e0e0e0" stroke="#999999" points="817,-74 742,-74 742,-55 817,-55 817,-74"/>
<text text-anchor="middle" x="779.5" y="-62" font-family="Helvetica,sans-Serif" font-size="10.00">QTabWidget</text>
</a>
</g>
</g>
<!-- Node1&#45;&gt;Node12 -->
<g id="edge12" class="edge">
<title>Node1&#45;&gt;Node12</title>
<path fill="none" stroke="#63b8ff" d="M441.68,-112.02C508.96,-104.32 623.29,-90.58 731.69,-74.05"/>
<polygon fill="#63b8ff" stroke="#63b8ff" points="732.47,-77.47 741.82,-72.49 731.4,-70.55 732.47,-77.47"/>
</g>
<!-- Node3 -->
<g id="node3" class="node">
<title>Node3</title>
<g id="a_node3"><a xlink:title=" ">
<polygon fill="#e0e0e0" stroke="#999999" points="87,-19 0,-19 0,0 87,0 87,-19"/>
<text text-anchor="middle" x="43.5" y="-7" font-family="Helvetica,sans-Serif" font-size="10.00">QMainWindow</text>
</a>
</g>
</g>
<!-- Node2&#45;&gt;Node3 -->
<g id="edge2" class="edge">
<title>Node2&#45;&gt;Node3</title>
<path fill="none" stroke="#63b8ff" d="M46.84,-54.75C46.32,-47.8 45.56,-37.85 44.91,-29.13"/>
<polygon fill="#63b8ff" stroke="#63b8ff" points="48.39,-28.8 44.15,-19.09 41.41,-29.32 48.39,-28.8"/>
</g>
<!-- Node4&#45;&gt;Node5 -->
<g id="edge4" class="edge">
<title>Node4&#45;&gt;Node5</title>
<path fill="none" stroke="#63b8ff" d="M174.02,-54.98C165.3,-47.15 152.16,-35.34 141.6,-25.86"/>
<polygon fill="#63b8ff" stroke="#63b8ff" points="143.93,-23.25 134.15,-19.17 139.25,-28.46 143.93,-23.25"/>
</g>
<!-- Node6 -->
<g id="node6" class="node">
<title>Node6</title>
<g id="a_node6"><a xlink:title=" ">
<polygon fill="#e0e0e0" stroke="#999999" points="221,-19 162,-19 162,0 221,0 221,-19"/>
<text text-anchor="middle" x="191.5" y="-7" font-family="Helvetica,sans-Serif" font-size="10.00">QWidget</text>
</a>
</g>
</g>
<!-- Node4&#45;&gt;Node6 -->
<g id="edge5" class="edge">
<title>Node4&#45;&gt;Node6</title>
<path fill="none" stroke="#63b8ff" d="M184.82,-54.75C185.87,-47.8 187.37,-37.85 188.69,-29.13"/>
<polygon fill="#63b8ff" stroke="#63b8ff" points="192.17,-29.5 190.2,-19.09 185.25,-28.45 192.17,-29.5"/>
</g>
</g>
</svg>
