<?xml version="1.0" encoding="UTF-8" standalone="no"?>
<!DOCTYPE svg PUBLIC "-//W3C//DTD SVG 1.1//EN"
 "http://www.w3.org/Graphics/SVG/1.1/DTD/svg11.dtd">
<!-- Generated by graphviz version 2.43.0 (0)
 -->
<!-- Title: src/mainwindow.cpp Pages: 1 -->
<svg width="1613pt" height="192pt"
 viewBox="0.00 0.00 1613.00 192.00" xmlns="http://www.w3.org/2000/svg" xmlns:xlink="http://www.w3.org/1999/xlink">
<g id="graph0" class="graph" transform="scale(1 1) rotate(0) translate(4 188)">
<title>src/mainwindow.cpp</title>
<!-- Node1 -->
<g id="node1" class="node">
<title>Node1</title>
<g id="a_node1"><a xlink:title=" ">
<polygon fill="#999999" stroke="#666666" points="1020.5,-184 904.5,-184 904.5,-165 1020.5,-165 1020.5,-184"/>
<text text-anchor="middle" x="962.5" y="-172" font-family="Helvetica,sans-Serif" font-size="10.00">src/mainwindow.cpp</text>
</a>
</g>
</g>
<!-- Node2 -->
<g id="node2" class="node">
<title>Node2</title>
<g id="a_node2"><a xlink:href="mainwindow_8h.html" target="_top" xlink:title=" ">
<polygon fill="white" stroke="#666666" points="87,-74 0,-74 0,-55 87,-55 87,-74"/>
<text text-anchor="middle" x="43.5" y="-62" font-family="Helvetica,sans-Serif" font-size="10.00">mainwindow.h</text>
</a>
</g>
</g>
<!-- Node1&#45;&gt;Node2 -->
<g id="edge1" class="edge">
<title>Node1&#45;&gt;Node2</title>
<path fill="none" stroke="#63b8ff" d="M904.4,-171.73C795.89,-167.87 555.27,-156.73 354.5,-129 258.52,-115.74 147.67,-90.74 87.66,-76.38"/>
<polygon fill="#63b8ff" stroke="#63b8ff" points="88.31,-72.94 77.77,-74 86.67,-79.74 88.31,-72.94"/>
</g>
<!-- Node6 -->
<g id="node6" class="node">
<title>Node6</title>
<g id="a_node6"><a xlink:href="navpage_8h.html" target="_top" xlink:title=" ">
<polygon fill="white" stroke="#666666" points="431.5,-129 363.5,-129 363.5,-110 431.5,-110 431.5,-129"/>
<text text-anchor="middle" x="397.5" y="-117" font-family="Helvetica,sans-Serif" font-size="10.00">navpage.h</text>
</a>
</g>
</g>
<!-- Node1&#45;&gt;Node6 -->
<g id="edge5" class="edge">
<title>Node1&#45;&gt;Node6</title>
<path fill="none" stroke="#63b8ff" d="M904.43,-168.05C791.15,-157.43 542.95,-134.14 441.77,-124.65"/>
<polygon fill="#63b8ff" stroke="#63b8ff" points="441.87,-121.15 431.59,-123.7 441.22,-128.12 441.87,-121.15"/>
</g>
<!-- Node9 -->
<g id="node9" class="node">
<title>Node9</title>
<g id="a_node9"><a xlink:title=" ">
<polygon fill="#e0e0e0" stroke="#999999" points="495,-19 436,-19 436,0 495,0 495,-19"/>
<text text-anchor="middle" x="465.5" y="-7" font-family="Helvetica,sans-Serif" font-size="10.00">QWidget</text>
</a>
</g>
</g>
<!-- Node1&#45;&gt;Node9 -->
<g id="edge35" class="edge">
<title>Node1&#45;&gt;Node9</title>
<path fill="none" stroke="#63b8ff" d="M904.46,-172.35C819.12,-169.61 665.07,-160.34 620.5,-129 590.26,-107.73 610.05,-79.65 582.5,-55 560.72,-35.51 529.54,-24.22 504.84,-17.89"/>
<polygon fill="#63b8ff" stroke="#63b8ff" points="505.59,-14.47 495.05,-15.55 503.96,-21.28 505.59,-14.47"/>
</g>
<!-- Node12 -->
<g id="node12" class="node">
<title>Node12</title>
<g id="a_node12"><a xlink:title=" ">
<polygon fill="#e0e0e0" stroke="#999999" points="573.5,-74 535.5,-74 535.5,-55 573.5,-55 573.5,-74"/>
<text text-anchor="middle" x="554.5" y="-62" font-family="Helvetica,sans-Serif" font-size="10.00">QDir</text>
</a>
</g>
</g>
<!-- Node1&#45;&gt;Node12 -->
<g id="edge28" class="edge">
<title>Node1&#45;&gt;Node12</title>
<path fill="none" stroke="#63b8ff" d="M904.22,-173.1C811.95,-171.41 637.52,-163.58 587.5,-129 572.35,-118.53 563.68,-98.9 559.07,-84.22"/>
<polygon fill="#63b8ff" stroke="#63b8ff" points="562.33,-82.9 556.29,-74.2 555.59,-84.77 562.33,-82.9"/>
</g>
<!-- Node13 -->
<g id="node13" class="node">
<title>Node13</title>
<g id="a_node13"><a xlink:href="searchwindow_8h.html" target="_top" xlink:title=" ">
<polygon fill="white" stroke="#666666" points="725,-129 630,-129 630,-110 725,-110 725,-129"/>
<text text-anchor="middle" x="677.5" y="-117" font-family="Helvetica,sans-Serif" font-size="10.00">searchwindow.h</text>
</a>
</g>
</g>
<!-- Node1&#45;&gt;Node13 -->
<g id="edge17" class="edge">
<title>Node1&#45;&gt;Node13</title>
<path fill="none" stroke="#63b8ff" d="M916.71,-164.98C866.89,-155.72 787.22,-140.9 733.66,-130.94"/>
<polygon fill="#63b8ff" stroke="#63b8ff" points="734.12,-127.47 723.65,-129.08 732.84,-134.35 734.12,-127.47"/>
</g>
<!-- Node17 -->
<g id="node17" class="node">
<title>Node17</title>
<g id="a_node17"><a xlink:title=" ">
<polygon fill="#e0e0e0" stroke="#999999" points="844,-129 743,-129 743,-110 844,-110 844,-129"/>
<text text-anchor="middle" x="793.5" y="-117" font-family="Helvetica,sans-Serif" font-size="10.00">ui_mainwindow.h</text>
</a>
</g>
</g>
<!-- Node1&#45;&gt;Node17 -->
<g id="edge23" class="edge">
<title>Node1&#45;&gt;Node17</title>
<path fill="none" stroke="#63b8ff" d="M935.35,-164.98C906.97,-156.09 862.27,-142.07 830.64,-132.15"/>
<polygon fill="#63b8ff" stroke="#63b8ff" points="831.45,-128.73 820.87,-129.08 829.36,-135.41 831.45,-128.73"/>
</g>
<!-- Node18 -->
<g id="node18" class="node">
<title>Node18</title>
<g id="a_node18"><a xlink:href="utils_8h.html" target="_top" xlink:title=" ">
<polygon fill="white" stroke="#666666" points="909,-129 862,-129 862,-110 909,-110 909,-129"/>
<text text-anchor="middle" x="885.5" y="-117" font-family="Helvetica,sans-Serif" font-size="10.00">utils.h</text>
</a>
</g>
</g>
<!-- Node1&#45;&gt;Node18 -->
<g id="edge24" class="edge">
<title>Node1&#45;&gt;Node18</title>
<path fill="none" stroke="#63b8ff" d="M950.13,-164.98C938.41,-156.92 920.58,-144.65 906.61,-135.03"/>
<polygon fill="#63b8ff" stroke="#63b8ff" points="908.32,-131.96 898.1,-129.17 904.35,-137.72 908.32,-131.96"/>
</g>
<!-- Node20 -->
<g id="node20" class="node">
<title>Node20</title>
<g id="a_node20"><a xlink:title=" ">
<polygon fill="#e0e0e0" stroke="#999999" points="998,-129 927,-129 927,-110 998,-110 998,-129"/>
<text text-anchor="middle" x="962.5" y="-117" font-family="Helvetica,sans-Serif" font-size="10.00">QClipboard</text>
</a>
</g>
</g>
<!-- Node1&#45;&gt;Node20 -->
<g id="edge26" class="edge">
<title>Node1&#45;&gt;Node20</title>
<path fill="none" stroke="#63b8ff" d="M962.5,-164.75C962.5,-157.8 962.5,-147.85 962.5,-139.13"/>
<polygon fill="#63b8ff" stroke="#63b8ff" points="966,-139.09 962.5,-129.09 959,-139.09 966,-139.09"/>
</g>
<!-- Node21 -->
<g id="node21" class="node">
<title>Node21</title>
<g id="a_node21"><a xlink:title=" ">
<polygon fill="#e0e0e0" stroke="#999999" points="1072.5,-129 1016.5,-129 1016.5,-110 1072.5,-110 1072.5,-129"/>
<text text-anchor="middle" x="1044.5" y="-117" font-family="Helvetica,sans-Serif" font-size="10.00">QDebug</text>
</a>
</g>
</g>
<!-- Node1&#45;&gt;Node21 -->
<g id="edge27" class="edge">
<title>Node1&#45;&gt;Node21</title>
<path fill="none" stroke="#63b8ff" d="M975.67,-164.98C988.27,-156.84 1007.5,-144.41 1022.44,-134.76"/>
<polygon fill="#63b8ff" stroke="#63b8ff" points="1024.59,-137.54 1031.09,-129.17 1020.79,-131.66 1024.59,-137.54"/>
</g>
<!-- Node22 -->
<g id="node22" class="node">
<title>Node22</title>
<g id="a_node22"><a xlink:title=" ">
<polygon fill="#e0e0e0" stroke="#999999" points="1170.5,-129 1090.5,-129 1090.5,-110 1170.5,-110 1170.5,-129"/>
<text text-anchor="middle" x="1130.5" y="-117" font-family="Helvetica,sans-Serif" font-size="10.00">QInputDialog</text>
</a>
</g>
</g>
<!-- Node1&#45;&gt;Node22 -->
<g id="edge29" class="edge">
<title>Node1&#45;&gt;Node22</title>
<path fill="none" stroke="#63b8ff" d="M989.49,-164.98C1017.7,-156.09 1062.14,-142.07 1093.58,-132.15"/>
<polygon fill="#63b8ff" stroke="#63b8ff" points="1094.81,-135.43 1103.3,-129.08 1092.71,-128.75 1094.81,-135.43"/>
</g>
<!-- Node23 -->
<g id="node23" class="node">
<title>Node23</title>
<g id="a_node23"><a xlink:title=" ">
<polygon fill="#e0e0e0" stroke="#999999" points="1252,-129 1189,-129 1189,-110 1252,-110 1252,-129"/>
<text text-anchor="middle" x="1220.5" y="-117" font-family="Helvetica,sans-Serif" font-size="10.00">QLineEdit</text>
</a>
</g>
</g>
<!-- Node1&#45;&gt;Node23 -->
<g id="edge30" class="edge">
<title>Node1&#45;&gt;Node23</title>
<path fill="none" stroke="#63b8ff" d="M1004.11,-165C1045.74,-156.48 1111.91,-142.93 1178.84,-129.13"/>
<polygon fill="#63b8ff" stroke="#63b8ff" points="1179.63,-132.54 1188.72,-127.1 1178.22,-125.69 1179.63,-132.54"/>
</g>
<!-- Node24 -->
<g id="node24" class="node">
<title>Node24</title>
<g id="a_node24"><a xlink:title=" ">
<polygon fill="#e0e0e0" stroke="#999999" points="1356.5,-129 1270.5,-129 1270.5,-110 1356.5,-110 1356.5,-129"/>
<text text-anchor="middle" x="1313.5" y="-117" font-family="Helvetica,sans-Serif" font-size="10.00">QMessageBox</text>
</a>
</g>
</g>
<!-- Node1&#45;&gt;Node24 -->
<g id="edge31" class="edge">
<title>Node1&#45;&gt;Node24</title>
<path fill="none" stroke="#63b8ff" d="M1020.7,-165.09C1078.8,-156.64 1170.93,-143.08 1260.34,-129.16"/>
<polygon fill="#63b8ff" stroke="#63b8ff" points="1261.04,-132.6 1270.38,-127.6 1259.96,-125.68 1261.04,-132.6"/>
</g>
<!-- Node25 -->
<g id="node25" class="node">
<title>Node25</title>
<g id="a_node25"><a xlink:title=" ">
<polygon fill="#e0e0e0" stroke="#999999" points="1430.5,-129 1374.5,-129 1374.5,-110 1430.5,-110 1430.5,-129"/>
<text text-anchor="middle" x="1402.5" y="-117" font-family="Helvetica,sans-Serif" font-size="10.00">QObject</text>
</a>
</g>
</g>
<!-- Node1&#45;&gt;Node25 -->
<g id="edge32" class="edge">
<title>Node1&#45;&gt;Node25</title>
<path fill="none" stroke="#63b8ff" d="M1020.52,-169.22C1097.09,-163.09 1236.24,-150.34 1364.3,-129.02"/>
<polygon fill="#63b8ff" stroke="#63b8ff" points="1365.01,-132.45 1374.29,-127.34 1363.84,-125.55 1365.01,-132.45"/>
</g>
<!-- Node26 -->
<g id="node26" class="node">
<title>Node26</title>
<g id="a_node26"><a xlink:title=" ">
<polygon fill="#e0e0e0" stroke="#999999" points="1524,-129 1449,-129 1449,-110 1524,-110 1524,-129"/>
<text text-anchor="middle" x="1486.5" y="-117" font-family="Helvetica,sans-Serif" font-size="10.00">QTabWidget</text>
</a>
</g>
</g>
<!-- Node1&#45;&gt;Node26 -->
<g id="edge33" class="edge">
<title>Node1&#45;&gt;Node26</title>
<path fill="none" stroke="#63b8ff" d="M1020.69,-169.69C1108.79,-163.56 1281.49,-150.17 1438.52,-129.01"/>
<polygon fill="#63b8ff" stroke="#63b8ff" points="1439.4,-132.42 1448.84,-127.61 1438.45,-125.49 1439.4,-132.42"/>
</g>
<!-- Node27 -->
<g id="node27" class="node">
<title>Node27</title>
<g id="a_node27"><a xlink:title=" ">
<polygon fill="#e0e0e0" stroke="#999999" points="1605,-129 1542,-129 1542,-110 1605,-110 1605,-129"/>
<text text-anchor="middle" x="1573.5" y="-117" font-family="Helvetica,sans-Serif" font-size="10.00">QTextEdit</text>
</a>
</g>
</g>
<!-- Node1&#45;&gt;Node27 -->
<g id="edge34" class="edge">
<title>Node1&#45;&gt;Node27</title>
<path fill="none" stroke="#63b8ff" d="M1020.73,-171.49C1122.56,-167.43 1339.68,-156.31 1531.7,-129.09"/>
<polygon fill="#63b8ff" stroke="#63b8ff" points="1532.29,-132.54 1541.69,-127.65 1531.3,-125.61 1532.29,-132.54"/>
</g>
<!-- Node3 -->
<g id="node3" class="node">
<title>Node3</title>
<g id="a_node3"><a xlink:title=" ">
<polygon fill="#e0e0e0" stroke="#999999" points="169.5,-19 61.5,-19 61.5,0 169.5,0 169.5,-19"/>
<text text-anchor="middle" x="115.5" y="-7" font-family="Helvetica,sans-Serif" font-size="10.00">QFileSystemModel</text>
</a>
</g>
</g>
<!-- Node2&#45;&gt;Node3 -->
<g id="edge2" class="edge">
<title>Node2&#45;&gt;Node3</title>
<path fill="none" stroke="#63b8ff" d="M55.07,-54.98C65.92,-47 82.38,-34.88 95.38,-25.31"/>
<polygon fill="#63b8ff" stroke="#63b8ff" points="97.74,-27.92 103.72,-19.17 93.59,-22.28 97.74,-27.92"/>
</g>
<!-- Node4 -->
<g id="node4" class="node">
<title>Node4</title>
<g id="a_node4"><a xlink:title=" ">
<polygon fill="#e0e0e0" stroke="#999999" points="43,-19 2,-19 2,0 43,0 43,-19"/>
<text text-anchor="middle" x="22.5" y="-7" font-family="Helvetica,sans-Serif" font-size="10.00">QList</text>
</a>
</g>
</g>
<!-- Node2&#45;&gt;Node4 -->
<g id="edge3" class="edge">
<title>Node2&#45;&gt;Node4</title>
<path fill="none" stroke="#63b8ff" d="M40.03,-54.75C37.22,-47.65 33.16,-37.4 29.65,-28.56"/>
<polygon fill="#63b8ff" stroke="#63b8ff" points="32.84,-27.1 25.9,-19.09 26.33,-29.68 32.84,-27.1"/>
</g>
<!-- Node5 -->
<g id="node5" class="node">
<title>Node5</title>
<g id="a_node5"><a xlink:title=" ">
<polygon fill="#e0e0e0" stroke="#999999" points="306,-19 219,-19 219,0 306,0 306,-19"/>
<text text-anchor="middle" x="262.5" y="-7" font-family="Helvetica,sans-Serif" font-size="10.00">QMainWindow</text>
</a>
</g>
</g>
<!-- Node2&#45;&gt;Node5 -->
<g id="edge4" class="edge">
<title>Node2&#45;&gt;Node5</title>
<path fill="none" stroke="#63b8ff" d="M78.69,-54.98C116.33,-45.87 176.16,-31.4 217.27,-21.45"/>
<polygon fill="#63b8ff" stroke="#63b8ff" points="218.14,-24.84 227.04,-19.08 216.5,-18.03 218.14,-24.84"/>
</g>
<!-- Node6&#45;&gt;Node2 -->
<g id="edge12" class="edge">
<title>Node6&#45;&gt;Node2</title>
<path fill="none" stroke="#63b8ff" d="M363.24,-113.37C301.42,-104.12 170.84,-84.56 97.1,-73.53"/>
<polygon fill="#63b8ff" stroke="#63b8ff" points="97.5,-70.05 87.09,-72.03 96.46,-76.97 97.5,-70.05"/>
</g>
<!-- Node6&#45;&gt;Node3 -->
<g id="edge15" class="edge">
<title>Node6&#45;&gt;Node3</title>
<path fill="none" stroke="#63b8ff" d="M363.15,-117.09C299.78,-113.81 167.9,-103.52 134.5,-74 121.98,-62.94 117.55,-44 116.06,-29.67"/>
<polygon fill="#63b8ff" stroke="#63b8ff" points="119.54,-29.17 115.4,-19.42 112.55,-29.62 119.54,-29.17"/>
</g>
<!-- Node7 -->
<g id="node7" class="node">
<title>Node7</title>
<g id="a_node7"><a xlink:href="diriteminfo_8h.html" target="_top" xlink:title=" ">
<polygon fill="white" stroke="#666666" points="391.5,-74 311.5,-74 311.5,-55 391.5,-55 391.5,-74"/>
<text text-anchor="middle" x="351.5" y="-62" font-family="Helvetica,sans-Serif" font-size="10.00">diriteminfo.h</text>
</a>
</g>
</g>
<!-- Node6&#45;&gt;Node7 -->
<g id="edge6" class="edge">
<title>Node6&#45;&gt;Node7</title>
<path fill="none" stroke="#63b8ff" d="M389.9,-109.75C383.34,-102.18 373.68,-91.05 365.69,-81.84"/>
<polygon fill="#63b8ff" stroke="#63b8ff" points="368.15,-79.35 358.95,-74.09 362.87,-83.94 368.15,-79.35"/>
</g>
<!-- Node6&#45;&gt;Node9 -->
<g id="edge16" class="edge">
<title>Node6&#45;&gt;Node9</title>
<path fill="none" stroke="#63b8ff" d="M431.85,-111.05C451.81,-104.77 475.36,-93.55 487.5,-74 496.5,-59.51 488.04,-40.85 479.13,-27.51"/>
<polygon fill="#63b8ff" stroke="#63b8ff" points="481.82,-25.26 473.1,-19.25 476.16,-29.39 481.82,-25.26"/>
</g>
<!-- Node10 -->
<g id="node10" class="node">
<title>Node10</title>
<g id="a_node10"><a xlink:href="driveinfo_8h.html" target="_top" xlink:title=" ">
<polygon fill="white" stroke="#666666" points="479,-74 410,-74 410,-55 479,-55 479,-74"/>
<text text-anchor="middle" x="444.5" y="-62" font-family="Helvetica,sans-Serif" font-size="10.00">driveinfo.h</text>
</a>
</g>
</g>
<!-- Node6&#45;&gt;Node10 -->
<g id="edge9" class="edge">
<title>Node6&#45;&gt;Node10</title>
<path fill="none" stroke="#63b8ff" d="M405.26,-109.75C411.97,-102.18 421.84,-91.05 430.01,-81.84"/>
<polygon fill="#63b8ff" stroke="#63b8ff" points="432.87,-83.89 436.88,-74.09 427.63,-79.25 432.87,-83.89"/>
</g>
<!-- Node11 -->
<g id="node11" class="node">
<title>Node11</title>
<g id="a_node11"><a xlink:title=" ">
<polygon fill="#e0e0e0" stroke="#999999" points="255,-74 144,-74 144,-55 255,-55 255,-74"/>
<text text-anchor="middle" x="199.5" y="-62" font-family="Helvetica,sans-Serif" font-size="10.00">QAbstractItemView</text>
</a>
</g>
</g>
<!-- Node6&#45;&gt;Node11 -->
<g id="edge13" class="edge">
<title>Node6&#45;&gt;Node11</title>
<path fill="none" stroke="#63b8ff" d="M365.69,-109.98C332.01,-100.97 278.7,-86.7 241.58,-76.76"/>
<polygon fill="#63b8ff" stroke="#63b8ff" points="242.13,-73.29 231.56,-74.08 240.32,-80.05 242.13,-73.29"/>
</g>
<!-- Node6&#45;&gt;Node12 -->
<g id="edge14" class="edge">
<title>Node6&#45;&gt;Node12</title>
<path fill="none" stroke="#63b8ff" d="M422.72,-109.98C450.79,-100.51 496.07,-85.23 525.56,-75.27"/>
<polygon fill="#63b8ff" stroke="#63b8ff" points="526.92,-78.5 535.28,-71.99 524.68,-71.87 526.92,-78.5"/>
</g>
<!-- Node8 -->
<g id="node8" class="node">
<title>Node8</title>
<g id="a_node8"><a xlink:title=" ">
<polygon fill="#e0e0e0" stroke="#999999" points="415.5,-19 335.5,-19 335.5,0 415.5,0 415.5,-19"/>
<text text-anchor="middle" x="375.5" y="-7" font-family="Helvetica,sans-Serif" font-size="10.00">QStorageInfo</text>
</a>
</g>
</g>
<!-- Node7&#45;&gt;Node8 -->
<g id="edge7" class="edge">
<title>Node7&#45;&gt;Node8</title>
<path fill="none" stroke="#63b8ff" d="M355.46,-54.75C358.71,-47.57 363.42,-37.18 367.45,-28.27"/>
<polygon fill="#63b8ff" stroke="#63b8ff" points="370.67,-29.64 371.61,-19.09 364.3,-26.75 370.67,-29.64"/>
</g>
<!-- Node7&#45;&gt;Node9 -->
<g id="edge8" class="edge">
<title>Node7&#45;&gt;Node9</title>
<path fill="none" stroke="#63b8ff" d="M369.82,-54.98C388.16,-46.46 416.61,-33.23 437.73,-23.41"/>
<polygon fill="#63b8ff" stroke="#63b8ff" points="439.26,-26.56 446.85,-19.17 436.31,-20.21 439.26,-26.56"/>
</g>
<!-- Node10&#45;&gt;Node8 -->
<g id="edge10" class="edge">
<title>Node10&#45;&gt;Node8</title>
<path fill="none" stroke="#63b8ff" d="M433.41,-54.98C423.01,-47 407.24,-34.88 394.78,-25.31"/>
<polygon fill="#63b8ff" stroke="#63b8ff" points="396.85,-22.49 386.79,-19.17 392.59,-28.04 396.85,-22.49"/>
</g>
<!-- Node10&#45;&gt;Node9 -->
<g id="edge11" class="edge">
<title>Node10&#45;&gt;Node9</title>
<path fill="none" stroke="#63b8ff" d="M447.97,-54.75C450.78,-47.65 454.84,-37.4 458.35,-28.56"/>
<polygon fill="#63b8ff" stroke="#63b8ff" points="461.67,-29.68 462.1,-19.09 455.16,-27.1 461.67,-29.68"/>
</g>
<!-- Node13&#45;&gt;Node5 -->
<g id="edge22" class="edge">
<title>Node13&#45;&gt;Node5</title>
<path fill="none" stroke="#63b8ff" d="M629.92,-117.87C541.49,-115.9 355.92,-107.74 302.5,-74 286.01,-63.59 275.13,-43.64 268.94,-28.87"/>
<polygon fill="#63b8ff" stroke="#63b8ff" points="272.09,-27.33 265.24,-19.24 265.56,-29.83 272.09,-27.33"/>
</g>
<!-- Node14 -->
<g id="node14" class="node">
<title>Node14</title>
<g id="a_node14"><a xlink:href="qfileinfolistmodel_8h.html" target="_top" xlink:title=" ">
<polygon fill="white" stroke="#666666" points="741,-74 630,-74 630,-55 741,-55 741,-74"/>
<text text-anchor="middle" x="685.5" y="-62" font-family="Helvetica,sans-Serif" font-size="10.00">qfileinfolistmodel.h</text>
</a>
</g>
</g>
<!-- Node13&#45;&gt;Node14 -->
<g id="edge18" class="edge">
<title>Node13&#45;&gt;Node14</title>
<path fill="none" stroke="#63b8ff" d="M678.82,-109.75C679.87,-102.8 681.37,-92.85 682.69,-84.13"/>
<polygon fill="#63b8ff" stroke="#63b8ff" points="686.17,-84.5 684.2,-74.09 679.25,-83.45 686.17,-84.5"/>
</g>
<!-- Node16 -->
<g id="node16" class="node">
<title>Node16</title>
<g id="a_node16"><a xlink:title=" ">
<polygon fill="#e0e0e0" stroke="#999999" points="799.5,-19 739.5,-19 739.5,0 799.5,0 799.5,-19"/>
<text text-anchor="middle" x="769.5" y="-7" font-family="Helvetica,sans-Serif" font-size="10.00">QFileInfo</text>
</a>
</g>
</g>
<!-- Node13&#45;&gt;Node16 -->
<g id="edge21" class="edge">
<title>Node13&#45;&gt;Node16</title>
<path fill="none" stroke="#63b8ff" d="M699.32,-109.99C715.35,-102.69 736.51,-90.7 749.5,-74 759.59,-61.03 764.64,-42.88 767.14,-29.3"/>
<polygon fill="#63b8ff" stroke="#63b8ff" points="770.63,-29.6 768.69,-19.19 763.71,-28.54 770.63,-29.6"/>
</g>
<!-- Node15 -->
<g id="node15" class="node">
<title>Node15</title>
<g id="a_node15"><a xlink:title=" ">
<polygon fill="#e0e0e0" stroke="#999999" points="721.5,-19 601.5,-19 601.5,0 721.5,0 721.5,-19"/>
<text text-anchor="middle" x="661.5" y="-7" font-family="Helvetica,sans-Serif" font-size="10.00">QAbstractTableModel</text>
</a>
</g>
</g>
<!-- Node14&#45;&gt;Node15 -->
<g id="edge19" class="edge">
<title>Node14&#45;&gt;Node15</title>
<path fill="none" stroke="#63b8ff" d="M681.54,-54.75C678.29,-47.57 673.58,-37.18 669.55,-28.27"/>
<polygon fill="#63b8ff" stroke="#63b8ff" points="672.7,-26.75 665.39,-19.09 666.33,-29.64 672.7,-26.75"/>
</g>
<!-- Node14&#45;&gt;Node16 -->
<g id="edge20" class="edge">
<title>Node14&#45;&gt;Node16</title>
<path fill="none" stroke="#63b8ff" d="M699,-54.98C711.9,-46.84 731.6,-34.41 746.9,-24.76"/>
<polygon fill="#63b8ff" stroke="#63b8ff" points="749.17,-27.47 755.76,-19.17 745.43,-21.55 749.17,-27.47"/>
</g>
<!-- Node19 -->
<g id="node19" class="node">
<title>Node19</title>
<g id="a_node19"><a xlink:title=" ">
<polygon fill="#e0e0e0" stroke="#999999" points="910.5,-74 860.5,-74 860.5,-55 910.5,-55 910.5,-74"/>
<text text-anchor="middle" x="885.5" y="-62" font-family="Helvetica,sans-Serif" font-size="10.00">QtCore</text>
</a>
</g>
</g>
<!-- Node18&#45;&gt;Node19 -->
<g id="edge25" class="edge">
<title>Node18&#45;&gt;Node19</title>
<path fill="none" stroke="#63b8ff" d="M885.5,-109.75C885.5,-102.8 885.5,-92.85 885.5,-84.13"/>
<polygon fill="#63b8ff" stroke="#63b8ff" points="889,-84.09 885.5,-74.09 882,-84.09 889,-84.09"/>
</g>
</g>
</svg>
