<?xml version="1.0" encoding="UTF-8" standalone="no"?>
<!DOCTYPE svg PUBLIC "-//W3C//DTD SVG 1.1//EN"
 "http://www.w3.org/Graphics/SVG/1.1/DTD/svg11.dtd">
<!-- Generated by graphviz version 2.43.0 (0)
 -->
<!-- Title: src/mainwindow.cpp Pages: 1 -->
<svg width="832pt" height="192pt"
 viewBox="0.00 0.00 832.00 192.00" xmlns="http://www.w3.org/2000/svg" xmlns:xlink="http://www.w3.org/1999/xlink">
<g id="graph0" class="graph" transform="scale(1 1) rotate(0) translate(4 188)">
<title>src/mainwindow.cpp</title>
<!-- Node1 -->
<g id="node1" class="node">
<title>Node1</title>
<g id="a_node1"><a xlink:title=" ">
<polygon fill="#999999" stroke="#666666" points="574.5,-184 458.5,-184 458.5,-165 574.5,-165 574.5,-184"/>
<text text-anchor="middle" x="516.5" y="-172" font-family="Helvetica,sans-Serif" font-size="10.00">src/mainwindow.cpp</text>
</a>
</g>
</g>
<!-- Node2 -->
<g id="node2" class="node">
<title>Node2</title>
<g id="a_node2"><a xlink:href="mainwindow_8h.html" target="_top" xlink:title=" ">
<polygon fill="white" stroke="#666666" points="105,-74 18,-74 18,-55 105,-55 105,-74"/>
<text text-anchor="middle" x="61.5" y="-62" font-family="Helvetica,sans-Serif" font-size="10.00">mainwindow.h</text>
</a>
</g>
</g>
<!-- Node1&#45;&gt;Node2 -->
<g id="edge1" class="edge">
<title>Node1&#45;&gt;Node2</title>
<path fill="none" stroke="#63b8ff" d="M460.15,-164.98C410.67,-157.08 336.88,-144.25 273.5,-129 210.35,-113.81 138.15,-90.99 96.39,-77.24"/>
<polygon fill="#63b8ff" stroke="#63b8ff" points="97.3,-73.85 86.71,-74.03 95.1,-80.5 97.3,-73.85"/>
</g>
<!-- Node5 -->
<g id="node5" class="node">
<title>Node5</title>
<g id="a_node5"><a xlink:href="navpage_8h.html" target="_top" xlink:title=" ">
<polygon fill="white" stroke="#666666" points="350.5,-129 282.5,-129 282.5,-110 350.5,-110 350.5,-129"/>
<text text-anchor="middle" x="316.5" y="-117" font-family="Helvetica,sans-Serif" font-size="10.00">navpage.h</text>
</a>
</g>
</g>
<!-- Node1&#45;&gt;Node5 -->
<g id="edge4" class="edge">
<title>Node1&#45;&gt;Node5</title>
<path fill="none" stroke="#63b8ff" d="M484.37,-164.98C450.35,-155.97 396.5,-141.7 359,-131.76"/>
<polygon fill="#63b8ff" stroke="#63b8ff" points="359.45,-128.26 348.89,-129.08 357.66,-135.03 359.45,-128.26"/>
</g>
<!-- Node13 -->
<g id="node13" class="node">
<title>Node13</title>
<g id="a_node13"><a xlink:title=" ">
<polygon fill="#e0e0e0" stroke="#999999" points="470,-129 369,-129 369,-110 470,-110 470,-129"/>
<text text-anchor="middle" x="419.5" y="-117" font-family="Helvetica,sans-Serif" font-size="10.00">ui_mainwindow.h</text>
</a>
</g>
</g>
<!-- Node1&#45;&gt;Node13 -->
<g id="edge16" class="edge">
<title>Node1&#45;&gt;Node13</title>
<path fill="none" stroke="#63b8ff" d="M500.92,-164.98C485.73,-156.69 462.4,-143.94 444.6,-134.22"/>
<polygon fill="#63b8ff" stroke="#63b8ff" points="445.82,-130.89 435.37,-129.17 442.47,-137.04 445.82,-130.89"/>
</g>
<!-- Node14 -->
<g id="node14" class="node">
<title>Node14</title>
<g id="a_node14"><a xlink:title=" ">
<polygon fill="#e0e0e0" stroke="#999999" points="544.5,-129 488.5,-129 488.5,-110 544.5,-110 544.5,-129"/>
<text text-anchor="middle" x="516.5" y="-117" font-family="Helvetica,sans-Serif" font-size="10.00">QDebug</text>
</a>
</g>
</g>
<!-- Node1&#45;&gt;Node14 -->
<g id="edge17" class="edge">
<title>Node1&#45;&gt;Node14</title>
<path fill="none" stroke="#63b8ff" d="M516.5,-164.75C516.5,-157.8 516.5,-147.85 516.5,-139.13"/>
<polygon fill="#63b8ff" stroke="#63b8ff" points="520,-139.09 516.5,-129.09 513,-139.09 520,-139.09"/>
</g>
<!-- Node15 -->
<g id="node15" class="node">
<title>Node15</title>
<g id="a_node15"><a xlink:title=" ">
<polygon fill="#e0e0e0" stroke="#999999" points="626,-129 563,-129 563,-110 626,-110 626,-129"/>
<text text-anchor="middle" x="594.5" y="-117" font-family="Helvetica,sans-Serif" font-size="10.00">QLineEdit</text>
</a>
</g>
</g>
<!-- Node1&#45;&gt;Node15 -->
<g id="edge18" class="edge">
<title>Node1&#45;&gt;Node15</title>
<path fill="none" stroke="#63b8ff" d="M529.03,-164.98C540.9,-156.92 558.96,-144.65 573.11,-135.03"/>
<polygon fill="#63b8ff" stroke="#63b8ff" points="575.44,-137.69 581.74,-129.17 571.5,-131.9 575.44,-137.69"/>
</g>
<!-- Node16 -->
<g id="node16" class="node">
<title>Node16</title>
<g id="a_node16"><a xlink:title=" ">
<polygon fill="#e0e0e0" stroke="#999999" points="730.5,-129 644.5,-129 644.5,-110 730.5,-110 730.5,-129"/>
<text text-anchor="middle" x="687.5" y="-117" font-family="Helvetica,sans-Serif" font-size="10.00">QMessageBox</text>
</a>
</g>
</g>
<!-- Node1&#45;&gt;Node16 -->
<g id="edge19" class="edge">
<title>Node1&#45;&gt;Node16</title>
<path fill="none" stroke="#63b8ff" d="M543.97,-164.98C572.68,-156.09 617.92,-142.07 649.92,-132.15"/>
<polygon fill="#63b8ff" stroke="#63b8ff" points="651.3,-135.39 659.81,-129.08 649.22,-128.7 651.3,-135.39"/>
</g>
<!-- Node17 -->
<g id="node17" class="node">
<title>Node17</title>
<g id="a_node17"><a xlink:title=" ">
<polygon fill="#e0e0e0" stroke="#999999" points="824,-129 749,-129 749,-110 824,-110 824,-129"/>
<text text-anchor="middle" x="786.5" y="-117" font-family="Helvetica,sans-Serif" font-size="10.00">QTabWidget</text>
</a>
</g>
</g>
<!-- Node1&#45;&gt;Node17 -->
<g id="edge20" class="edge">
<title>Node1&#45;&gt;Node17</title>
<path fill="none" stroke="#63b8ff" d="M559.88,-164.98C608.83,-155.38 688.21,-139.79 738.85,-129.85"/>
<polygon fill="#63b8ff" stroke="#63b8ff" points="739.75,-133.24 748.89,-127.88 738.4,-126.37 739.75,-133.24"/>
</g>
<!-- Node3 -->
<g id="node3" class="node">
<title>Node3</title>
<g id="a_node3"><a xlink:title=" ">
<polygon fill="#e0e0e0" stroke="#999999" points="41,-19 0,-19 0,0 41,0 41,-19"/>
<text text-anchor="middle" x="20.5" y="-7" font-family="Helvetica,sans-Serif" font-size="10.00">QList</text>
</a>
</g>
</g>
<!-- Node2&#45;&gt;Node3 -->
<g id="edge2" class="edge">
<title>Node2&#45;&gt;Node3</title>
<path fill="none" stroke="#63b8ff" d="M54.73,-54.75C48.94,-47.26 40.44,-36.28 33.36,-27.13"/>
<polygon fill="#63b8ff" stroke="#63b8ff" points="36.03,-24.86 27.14,-19.09 30.49,-29.14 36.03,-24.86"/>
</g>
<!-- Node4 -->
<g id="node4" class="node">
<title>Node4</title>
<g id="a_node4"><a xlink:title=" ">
<polygon fill="#e0e0e0" stroke="#999999" points="146,-19 59,-19 59,0 146,0 146,-19"/>
<text text-anchor="middle" x="102.5" y="-7" font-family="Helvetica,sans-Serif" font-size="10.00">QMainWindow</text>
</a>
</g>
</g>
<!-- Node2&#45;&gt;Node4 -->
<g id="edge3" class="edge">
<title>Node2&#45;&gt;Node4</title>
<path fill="none" stroke="#63b8ff" d="M68.27,-54.75C74.06,-47.26 82.56,-36.28 89.64,-27.13"/>
<polygon fill="#63b8ff" stroke="#63b8ff" points="92.51,-29.14 95.86,-19.09 86.97,-24.86 92.51,-29.14"/>
</g>
<!-- Node5&#45;&gt;Node2 -->
<g id="edge11" class="edge">
<title>Node5&#45;&gt;Node2</title>
<path fill="none" stroke="#63b8ff" d="M282.37,-111.41C238.82,-102.36 163.1,-86.62 112.64,-76.13"/>
<polygon fill="#63b8ff" stroke="#63b8ff" points="113.1,-72.65 102.59,-74.04 111.67,-79.5 113.1,-72.65"/>
</g>
<!-- Node6 -->
<g id="node6" class="node">
<title>Node6</title>
<g id="a_node6"><a xlink:href="diriteminfo_8h.html" target="_top" xlink:title=" ">
<polygon fill="white" stroke="#666666" points="602.5,-74 522.5,-74 522.5,-55 602.5,-55 602.5,-74"/>
<text text-anchor="middle" x="562.5" y="-62" font-family="Helvetica,sans-Serif" font-size="10.00">diriteminfo.h</text>
</a>
</g>
</g>
<!-- Node5&#45;&gt;Node6 -->
<g id="edge5" class="edge">
<title>Node5&#45;&gt;Node6</title>
<path fill="none" stroke="#63b8ff" d="M350.71,-111.13C392.86,-102.05 464.8,-86.55 512.99,-76.17"/>
<polygon fill="#63b8ff" stroke="#63b8ff" points="513.85,-79.56 522.89,-74.03 512.38,-72.72 513.85,-79.56"/>
</g>
<!-- Node8 -->
<g id="node8" class="node">
<title>Node8</title>
<g id="a_node8"><a xlink:title=" ">
<polygon fill="#e0e0e0" stroke="#999999" points="592,-19 533,-19 533,0 592,0 592,-19"/>
<text text-anchor="middle" x="562.5" y="-7" font-family="Helvetica,sans-Serif" font-size="10.00">QWidget</text>
</a>
</g>
</g>
<!-- Node5&#45;&gt;Node8 -->
<g id="edge15" class="edge">
<title>Node5&#45;&gt;Node8</title>
<path fill="none" stroke="#63b8ff" d="M350.74,-111.56C353.7,-111.01 356.65,-110.49 359.5,-110 415.27,-100.51 574.44,-116.73 611.5,-74 625.6,-57.74 604.82,-37.98 586.14,-24.86"/>
<polygon fill="#63b8ff" stroke="#63b8ff" points="587.83,-21.78 577.56,-19.17 583.96,-27.61 587.83,-21.78"/>
</g>
<!-- Node9 -->
<g id="node9" class="node">
<title>Node9</title>
<g id="a_node9"><a xlink:href="driveinfo_8h.html" target="_top" xlink:title=" ">
<polygon fill="white" stroke="#666666" points="504,-74 435,-74 435,-55 504,-55 504,-74"/>
<text text-anchor="middle" x="469.5" y="-62" font-family="Helvetica,sans-Serif" font-size="10.00">driveinfo.h</text>
</a>
</g>
</g>
<!-- Node5&#45;&gt;Node9 -->
<g id="edge8" class="edge">
<title>Node5&#45;&gt;Node9</title>
<path fill="none" stroke="#63b8ff" d="M341.08,-109.98C366.55,-101.16 406.54,-87.31 435.13,-77.41"/>
<polygon fill="#63b8ff" stroke="#63b8ff" points="436.42,-80.66 444.73,-74.08 434.13,-74.05 436.42,-80.66"/>
</g>
<!-- Node10 -->
<g id="node10" class="node">
<title>Node10</title>
<g id="a_node10"><a xlink:title=" ">
<polygon fill="#e0e0e0" stroke="#999999" points="234,-74 123,-74 123,-55 234,-55 234,-74"/>
<text text-anchor="middle" x="178.5" y="-62" font-family="Helvetica,sans-Serif" font-size="10.00">QAbstractItemView</text>
</a>
</g>
</g>
<!-- Node5&#45;&gt;Node10 -->
<g id="edge12" class="edge">
<title>Node5&#45;&gt;Node10</title>
<path fill="none" stroke="#63b8ff" d="M294.33,-109.98C271.73,-101.3 236.44,-87.75 210.75,-77.88"/>
<polygon fill="#63b8ff" stroke="#63b8ff" points="211.67,-74.49 201.08,-74.17 209.16,-81.02 211.67,-74.49"/>
</g>
<!-- Node11 -->
<g id="node11" class="node">
<title>Node11</title>
<g id="a_node11"><a xlink:title=" ">
<polygon fill="#e0e0e0" stroke="#999999" points="290.5,-74 252.5,-74 252.5,-55 290.5,-55 290.5,-74"/>
<text text-anchor="middle" x="271.5" y="-62" font-family="Helvetica,sans-Serif" font-size="10.00">QDir</text>
</a>
</g>
</g>
<!-- Node5&#45;&gt;Node11 -->
<g id="edge13" class="edge">
<title>Node5&#45;&gt;Node11</title>
<path fill="none" stroke="#63b8ff" d="M309.07,-109.75C302.65,-102.18 293.19,-91.05 285.38,-81.84"/>
<polygon fill="#63b8ff" stroke="#63b8ff" points="287.93,-79.45 278.79,-74.09 282.6,-83.98 287.93,-79.45"/>
</g>
<!-- Node12 -->
<g id="node12" class="node">
<title>Node12</title>
<g id="a_node12"><a xlink:title=" ">
<polygon fill="#e0e0e0" stroke="#999999" points="416.5,-74 308.5,-74 308.5,-55 416.5,-55 416.5,-74"/>
<text text-anchor="middle" x="362.5" y="-62" font-family="Helvetica,sans-Serif" font-size="10.00">QFileSystemModel</text>
</a>
</g>
</g>
<!-- Node5&#45;&gt;Node12 -->
<g id="edge14" class="edge">
<title>Node5&#45;&gt;Node12</title>
<path fill="none" stroke="#63b8ff" d="M324.1,-109.75C330.66,-102.18 340.32,-91.05 348.31,-81.84"/>
<polygon fill="#63b8ff" stroke="#63b8ff" points="351.13,-83.94 355.05,-74.09 345.85,-79.35 351.13,-83.94"/>
</g>
<!-- Node7 -->
<g id="node7" class="node">
<title>Node7</title>
<g id="a_node7"><a xlink:title=" ">
<polygon fill="#e0e0e0" stroke="#999999" points="511.5,-19 431.5,-19 431.5,0 511.5,0 511.5,-19"/>
<text text-anchor="middle" x="471.5" y="-7" font-family="Helvetica,sans-Serif" font-size="10.00">QStorageInfo</text>
</a>
</g>
</g>
<!-- Node6&#45;&gt;Node7 -->
<g id="edge6" class="edge">
<title>Node6&#45;&gt;Node7</title>
<path fill="none" stroke="#63b8ff" d="M547.88,-54.98C533.64,-46.69 511.75,-33.94 495.05,-24.22"/>
<polygon fill="#63b8ff" stroke="#63b8ff" points="496.79,-21.18 486.39,-19.17 493.27,-27.23 496.79,-21.18"/>
</g>
<!-- Node6&#45;&gt;Node8 -->
<g id="edge7" class="edge">
<title>Node6&#45;&gt;Node8</title>
<path fill="none" stroke="#63b8ff" d="M562.5,-54.75C562.5,-47.8 562.5,-37.85 562.5,-29.13"/>
<polygon fill="#63b8ff" stroke="#63b8ff" points="566,-29.09 562.5,-19.09 559,-29.09 566,-29.09"/>
</g>
<!-- Node9&#45;&gt;Node7 -->
<g id="edge9" class="edge">
<title>Node9&#45;&gt;Node7</title>
<path fill="none" stroke="#63b8ff" d="M469.83,-54.75C470.09,-47.8 470.47,-37.85 470.8,-29.13"/>
<polygon fill="#63b8ff" stroke="#63b8ff" points="474.3,-29.21 471.18,-19.09 467.3,-28.95 474.3,-29.21"/>
</g>
<!-- Node9&#45;&gt;Node8 -->
<g id="edge10" class="edge">
<title>Node9&#45;&gt;Node8</title>
<path fill="none" stroke="#63b8ff" d="M484.44,-54.98C499,-46.69 521.37,-33.94 538.43,-24.22"/>
<polygon fill="#63b8ff" stroke="#63b8ff" points="540.33,-27.16 547.29,-19.17 536.86,-21.08 540.33,-27.16"/>
</g>
</g>
</svg>
