<?xml version="1.0" encoding="UTF-8" standalone="no"?>
<!DOCTYPE svg PUBLIC "-//W3C//DTD SVG 1.1//EN"
 "http://www.w3.org/Graphics/SVG/1.1/DTD/svg11.dtd">
<!-- Generated by graphviz version 2.43.0 (0)
 -->
<!-- Title: src/mainwindow.h Pages: 1 -->
<svg width="258pt" height="137pt"
 viewBox="0.00 0.00 257.50 137.00" xmlns="http://www.w3.org/2000/svg" xmlns:xlink="http://www.w3.org/1999/xlink">
<g id="graph0" class="graph" transform="scale(1 1) rotate(0) translate(4 133)">
<title>src/mainwindow.h</title>
<!-- Node1 -->
<g id="node1" class="node">
<title>Node1</title>
<g id="a_node1"><a xlink:title=" ">
<polygon fill="#999999" stroke="#666666" points="141.5,-129 37.5,-129 37.5,-110 141.5,-110 141.5,-129"/>
<text text-anchor="middle" x="89.5" y="-117" font-family="Helvetica,sans-Serif" font-size="10.00">src/mainwindow.h</text>
</a>
</g>
</g>
<!-- Node2 -->
<g id="node2" class="node">
<title>Node2</title>
<g id="a_node2"><a xlink:href="main_8cpp.html" target="_top" xlink:title=" ">
<polygon fill="white" stroke="#666666" points="79,-74 0,-74 0,-55 79,-55 79,-74"/>
<text text-anchor="middle" x="39.5" y="-62" font-family="Helvetica,sans-Serif" font-size="10.00">src/main.cpp</text>
</a>
</g>
</g>
<!-- Node1&#45;&gt;Node2 -->
<g id="edge1" class="edge">
<title>Node1&#45;&gt;Node2</title>
<path fill="none" stroke="#63b8ff" d="M74.16,-102.24C65.4,-92.95 54.76,-81.68 47.6,-74.09"/>
<polygon fill="#63b8ff" stroke="#63b8ff" points="71.84,-104.88 81.24,-109.75 76.93,-100.07 71.84,-104.88"/>
</g>
<!-- Node3 -->
<g id="node3" class="node">
<title>Node3</title>
<g id="a_node3"><a xlink:href="navpage_8h.html" target="_top" xlink:title=" ">
<polygon fill="white" stroke="#666666" points="182,-74 97,-74 97,-55 182,-55 182,-74"/>
<text text-anchor="middle" x="139.5" y="-62" font-family="Helvetica,sans-Serif" font-size="10.00">src/navpage.h</text>
</a>
</g>
</g>
<!-- Node1&#45;&gt;Node3 -->
<g id="edge2" class="edge">
<title>Node1&#45;&gt;Node3</title>
<path fill="none" stroke="#63b8ff" d="M104.84,-102.24C113.6,-92.95 124.24,-81.68 131.4,-74.09"/>
<polygon fill="#63b8ff" stroke="#63b8ff" points="102.07,-100.07 97.76,-109.75 107.16,-104.88 102.07,-100.07"/>
</g>
<!-- Node4 -->
<g id="node4" class="node">
<title>Node4</title>
<g id="a_node4"><a xlink:href="mainwindow_8cpp.html" target="_top" xlink:title=" ">
<polygon fill="white" stroke="#666666" points="135.5,-19 19.5,-19 19.5,0 135.5,0 135.5,-19"/>
<text text-anchor="middle" x="77.5" y="-7" font-family="Helvetica,sans-Serif" font-size="10.00">src/mainwindow.cpp</text>
</a>
</g>
</g>
<!-- Node3&#45;&gt;Node4 -->
<g id="edge3" class="edge">
<title>Node3&#45;&gt;Node4</title>
<path fill="none" stroke="#63b8ff" d="M121.75,-48.32C110.69,-38.87 96.87,-27.06 87.64,-19.17"/>
<polygon fill="#63b8ff" stroke="#63b8ff" points="119.66,-51.15 129.54,-54.98 124.21,-45.83 119.66,-51.15"/>
</g>
<!-- Node5 -->
<g id="node5" class="node">
<title>Node5</title>
<g id="a_node5"><a xlink:href="navpage_8cpp.html" target="_top" xlink:title=" ">
<polygon fill="white" stroke="#666666" points="249.5,-19 153.5,-19 153.5,0 249.5,0 249.5,-19"/>
<text text-anchor="middle" x="201.5" y="-7" font-family="Helvetica,sans-Serif" font-size="10.00">src/navpage.cpp</text>
</a>
</g>
</g>
<!-- Node3&#45;&gt;Node5 -->
<g id="edge4" class="edge">
<title>Node3&#45;&gt;Node5</title>
<path fill="none" stroke="#63b8ff" d="M157.25,-48.32C168.31,-38.87 182.13,-27.06 191.36,-19.17"/>
<polygon fill="#63b8ff" stroke="#63b8ff" points="154.79,-45.83 149.46,-54.98 159.34,-51.15 154.79,-45.83"/>
</g>
</g>
</svg>
