<?xml version="1.0" encoding="UTF-8" standalone="no"?>
<!DOCTYPE svg PUBLIC "-//W3C//DTD SVG 1.1//EN"
 "http://www.w3.org/Graphics/SVG/1.1/DTD/svg11.dtd">
<!-- Generated by graphviz version 2.43.0 (0)
 -->
<!-- Title: src/mainwindow.cpp Pages: 1 -->
<svg width="1477pt" height="192pt"
 viewBox="0.00 0.00 1477.00 192.00" xmlns="http://www.w3.org/2000/svg" xmlns:xlink="http://www.w3.org/1999/xlink">
<g id="graph0" class="graph" transform="scale(1 1) rotate(0) translate(4 188)">
<title>src/mainwindow.cpp</title>
<!-- Node1 -->
<g id="node1" class="node">
<title>Node1</title>
<g id="a_node1"><a xlink:title=" ">
<polygon fill="#999999" stroke="#666666" points="966.5,-184 850.5,-184 850.5,-165 966.5,-165 966.5,-184"/>
<text text-anchor="middle" x="908.5" y="-172" font-family="Helvetica,sans-Serif" font-size="10.00">src/mainwindow.cpp</text>
</a>
</g>
</g>
<!-- Node2 -->
<g id="node2" class="node">
<title>Node2</title>
<g id="a_node2"><a xlink:href="mainwindow_8h.html" target="_top" xlink:title=" ">
<polygon fill="white" stroke="#666666" points="168,-74 81,-74 81,-55 168,-55 168,-74"/>
<text text-anchor="middle" x="124.5" y="-62" font-family="Helvetica,sans-Serif" font-size="10.00">mainwindow.h</text>
</a>
</g>
</g>
<!-- Node1&#45;&gt;Node2 -->
<g id="edge1" class="edge">
<title>Node1&#45;&gt;Node2</title>
<path fill="none" stroke="#63b8ff" d="M850.39,-171.3C754.36,-167.03 556.71,-155.61 391.5,-129 309.69,-115.83 215.82,-91.25 164.02,-76.84"/>
<polygon fill="#63b8ff" stroke="#63b8ff" points="164.81,-73.42 154.24,-74.1 162.93,-80.17 164.81,-73.42"/>
</g>
<!-- Node6 -->
<g id="node6" class="node">
<title>Node6</title>
<g id="a_node6"><a xlink:href="navpage_8h.html" target="_top" xlink:title=" ">
<polygon fill="white" stroke="#666666" points="468.5,-129 400.5,-129 400.5,-110 468.5,-110 468.5,-129"/>
<text text-anchor="middle" x="434.5" y="-117" font-family="Helvetica,sans-Serif" font-size="10.00">navpage.h</text>
</a>
</g>
</g>
<!-- Node1&#45;&gt;Node6 -->
<g id="edge5" class="edge">
<title>Node1&#45;&gt;Node6</title>
<path fill="none" stroke="#63b8ff" d="M850.38,-167C754.29,-156.26 564.4,-135.03 478.52,-125.42"/>
<polygon fill="#63b8ff" stroke="#63b8ff" points="478.9,-121.94 468.58,-124.31 478.13,-128.9 478.9,-121.94"/>
</g>
<!-- Node9 -->
<g id="node9" class="node">
<title>Node9</title>
<g id="a_node9"><a xlink:title=" ">
<polygon fill="#e0e0e0" stroke="#999999" points="545,-19 486,-19 486,0 545,0 545,-19"/>
<text text-anchor="middle" x="515.5" y="-7" font-family="Helvetica,sans-Serif" font-size="10.00">QWidget</text>
</a>
</g>
</g>
<!-- Node1&#45;&gt;Node9 -->
<g id="edge27" class="edge">
<title>Node1&#45;&gt;Node9</title>
<path fill="none" stroke="#63b8ff" d="M850.25,-168.9C787.15,-162.9 691.57,-150.54 662.5,-129 632.79,-106.99 651.75,-79.98 624.5,-55 605.16,-37.27 577.82,-26.14 555.36,-19.44"/>
<polygon fill="#63b8ff" stroke="#63b8ff" points="556,-15.98 545.42,-16.66 554.11,-22.72 556,-15.98"/>
</g>
<!-- Node12 -->
<g id="node12" class="node">
<title>Node12</title>
<g id="a_node12"><a xlink:title=" ">
<polygon fill="#e0e0e0" stroke="#999999" points="615.5,-74 577.5,-74 577.5,-55 615.5,-55 615.5,-74"/>
<text text-anchor="middle" x="596.5" y="-62" font-family="Helvetica,sans-Serif" font-size="10.00">QDir</text>
</a>
</g>
</g>
<!-- Node1&#45;&gt;Node12 -->
<g id="edge20" class="edge">
<title>Node1&#45;&gt;Node12</title>
<path fill="none" stroke="#63b8ff" d="M850.39,-170.33C779.23,-165.42 663.91,-153.82 629.5,-129 614.56,-118.23 605.86,-98.64 601.18,-84.06"/>
<polygon fill="#63b8ff" stroke="#63b8ff" points="604.45,-82.77 598.35,-74.11 597.72,-84.69 604.45,-82.77"/>
</g>
<!-- Node13 -->
<g id="node13" class="node">
<title>Node13</title>
<g id="a_node13"><a xlink:title=" ">
<polygon fill="#e0e0e0" stroke="#999999" points="773,-129 672,-129 672,-110 773,-110 773,-129"/>
<text text-anchor="middle" x="722.5" y="-117" font-family="Helvetica,sans-Serif" font-size="10.00">ui_mainwindow.h</text>
</a>
</g>
</g>
<!-- Node1&#45;&gt;Node13 -->
<g id="edge17" class="edge">
<title>Node1&#45;&gt;Node13</title>
<path fill="none" stroke="#63b8ff" d="M878.62,-164.98C847.12,-156.01 797.33,-141.82 762.47,-131.89"/>
<polygon fill="#63b8ff" stroke="#63b8ff" points="763.19,-128.46 752.62,-129.08 761.28,-135.19 763.19,-128.46"/>
</g>
<!-- Node14 -->
<g id="node14" class="node">
<title>Node14</title>
<g id="a_node14"><a xlink:title=" ">
<polygon fill="#e0e0e0" stroke="#999999" points="862,-129 791,-129 791,-110 862,-110 862,-129"/>
<text text-anchor="middle" x="826.5" y="-117" font-family="Helvetica,sans-Serif" font-size="10.00">QClipboard</text>
</a>
</g>
</g>
<!-- Node1&#45;&gt;Node14 -->
<g id="edge18" class="edge">
<title>Node1&#45;&gt;Node14</title>
<path fill="none" stroke="#63b8ff" d="M895.33,-164.98C882.73,-156.84 863.5,-144.41 848.56,-134.76"/>
<polygon fill="#63b8ff" stroke="#63b8ff" points="850.21,-131.66 839.91,-129.17 846.41,-137.54 850.21,-131.66"/>
</g>
<!-- Node15 -->
<g id="node15" class="node">
<title>Node15</title>
<g id="a_node15"><a xlink:title=" ">
<polygon fill="#e0e0e0" stroke="#999999" points="936.5,-129 880.5,-129 880.5,-110 936.5,-110 936.5,-129"/>
<text text-anchor="middle" x="908.5" y="-117" font-family="Helvetica,sans-Serif" font-size="10.00">QDebug</text>
</a>
</g>
</g>
<!-- Node1&#45;&gt;Node15 -->
<g id="edge19" class="edge">
<title>Node1&#45;&gt;Node15</title>
<path fill="none" stroke="#63b8ff" d="M908.5,-164.75C908.5,-157.8 908.5,-147.85 908.5,-139.13"/>
<polygon fill="#63b8ff" stroke="#63b8ff" points="912,-139.09 908.5,-129.09 905,-139.09 912,-139.09"/>
</g>
<!-- Node16 -->
<g id="node16" class="node">
<title>Node16</title>
<g id="a_node16"><a xlink:title=" ">
<polygon fill="#e0e0e0" stroke="#999999" points="1034.5,-129 954.5,-129 954.5,-110 1034.5,-110 1034.5,-129"/>
<text text-anchor="middle" x="994.5" y="-117" font-family="Helvetica,sans-Serif" font-size="10.00">QInputDialog</text>
</a>
</g>
</g>
<!-- Node1&#45;&gt;Node16 -->
<g id="edge21" class="edge">
<title>Node1&#45;&gt;Node16</title>
<path fill="none" stroke="#63b8ff" d="M922.32,-164.98C935.65,-156.77 956.08,-144.18 971.81,-134.49"/>
<polygon fill="#63b8ff" stroke="#63b8ff" points="973.75,-137.4 980.43,-129.17 970.08,-131.44 973.75,-137.4"/>
</g>
<!-- Node17 -->
<g id="node17" class="node">
<title>Node17</title>
<g id="a_node17"><a xlink:title=" ">
<polygon fill="#e0e0e0" stroke="#999999" points="1116,-129 1053,-129 1053,-110 1116,-110 1116,-129"/>
<text text-anchor="middle" x="1084.5" y="-117" font-family="Helvetica,sans-Serif" font-size="10.00">QLineEdit</text>
</a>
</g>
</g>
<!-- Node1&#45;&gt;Node17 -->
<g id="edge22" class="edge">
<title>Node1&#45;&gt;Node17</title>
<path fill="none" stroke="#63b8ff" d="M936.78,-164.98C966.45,-156.05 1013.29,-141.94 1046.25,-132.02"/>
<polygon fill="#63b8ff" stroke="#63b8ff" points="1047.43,-135.32 1056,-129.08 1045.42,-128.61 1047.43,-135.32"/>
</g>
<!-- Node18 -->
<g id="node18" class="node">
<title>Node18</title>
<g id="a_node18"><a xlink:title=" ">
<polygon fill="#e0e0e0" stroke="#999999" points="1220.5,-129 1134.5,-129 1134.5,-110 1220.5,-110 1220.5,-129"/>
<text text-anchor="middle" x="1177.5" y="-117" font-family="Helvetica,sans-Serif" font-size="10.00">QMessageBox</text>
</a>
</g>
</g>
<!-- Node1&#45;&gt;Node18 -->
<g id="edge23" class="edge">
<title>Node1&#45;&gt;Node18</title>
<path fill="none" stroke="#63b8ff" d="M951.72,-164.98C998.68,-155.73 1073.76,-140.94 1124.31,-130.98"/>
<polygon fill="#63b8ff" stroke="#63b8ff" points="1125.25,-134.36 1134.39,-128.99 1123.9,-127.49 1125.25,-134.36"/>
</g>
<!-- Node19 -->
<g id="node19" class="node">
<title>Node19</title>
<g id="a_node19"><a xlink:title=" ">
<polygon fill="#e0e0e0" stroke="#999999" points="1294.5,-129 1238.5,-129 1238.5,-110 1294.5,-110 1294.5,-129"/>
<text text-anchor="middle" x="1266.5" y="-117" font-family="Helvetica,sans-Serif" font-size="10.00">QObject</text>
</a>
</g>
</g>
<!-- Node1&#45;&gt;Node19 -->
<g id="edge24" class="edge">
<title>Node1&#45;&gt;Node19</title>
<path fill="none" stroke="#63b8ff" d="M966.74,-166.99C1029.1,-159.67 1131.14,-146.68 1228.28,-129.08"/>
<polygon fill="#63b8ff" stroke="#63b8ff" points="1229.07,-132.5 1238.27,-127.25 1227.8,-125.61 1229.07,-132.5"/>
</g>
<!-- Node20 -->
<g id="node20" class="node">
<title>Node20</title>
<g id="a_node20"><a xlink:title=" ">
<polygon fill="#e0e0e0" stroke="#999999" points="1388,-129 1313,-129 1313,-110 1388,-110 1388,-129"/>
<text text-anchor="middle" x="1350.5" y="-117" font-family="Helvetica,sans-Serif" font-size="10.00">QTabWidget</text>
</a>
</g>
</g>
<!-- Node1&#45;&gt;Node20 -->
<g id="edge25" class="edge">
<title>Node1&#45;&gt;Node20</title>
<path fill="none" stroke="#63b8ff" d="M966.55,-168.18C1041.67,-161.03 1176.82,-147.24 1302.63,-129.03"/>
<polygon fill="#63b8ff" stroke="#63b8ff" points="1303.44,-132.45 1312.83,-127.54 1302.43,-125.52 1303.44,-132.45"/>
</g>
<!-- Node21 -->
<g id="node21" class="node">
<title>Node21</title>
<g id="a_node21"><a xlink:title=" ">
<polygon fill="#e0e0e0" stroke="#999999" points="1469,-129 1406,-129 1406,-110 1469,-110 1469,-129"/>
<text text-anchor="middle" x="1437.5" y="-117" font-family="Helvetica,sans-Serif" font-size="10.00">QTextEdit</text>
</a>
</g>
</g>
<!-- Node1&#45;&gt;Node21 -->
<g id="edge26" class="edge">
<title>Node1&#45;&gt;Node21</title>
<path fill="none" stroke="#63b8ff" d="M966.73,-170.44C1056.76,-165.22 1235.31,-152.91 1395.64,-129.13"/>
<polygon fill="#63b8ff" stroke="#63b8ff" points="1396.32,-132.56 1405.69,-127.62 1395.28,-125.64 1396.32,-132.56"/>
</g>
<!-- Node3 -->
<g id="node3" class="node">
<title>Node3</title>
<g id="a_node3"><a xlink:title=" ">
<polygon fill="#e0e0e0" stroke="#999999" points="272.5,-19 164.5,-19 164.5,0 272.5,0 272.5,-19"/>
<text text-anchor="middle" x="218.5" y="-7" font-family="Helvetica,sans-Serif" font-size="10.00">QFileSystemModel</text>
</a>
</g>
</g>
<!-- Node2&#45;&gt;Node3 -->
<g id="edge2" class="edge">
<title>Node2&#45;&gt;Node3</title>
<path fill="none" stroke="#63b8ff" d="M139.6,-54.98C154.32,-46.69 176.92,-33.94 194.17,-24.22"/>
<polygon fill="#63b8ff" stroke="#63b8ff" points="196.13,-27.13 203.12,-19.17 192.69,-21.03 196.13,-27.13"/>
</g>
<!-- Node4 -->
<g id="node4" class="node">
<title>Node4</title>
<g id="a_node4"><a xlink:title=" ">
<polygon fill="#e0e0e0" stroke="#999999" points="41,-19 0,-19 0,0 41,0 41,-19"/>
<text text-anchor="middle" x="20.5" y="-7" font-family="Helvetica,sans-Serif" font-size="10.00">QList</text>
</a>
</g>
</g>
<!-- Node2&#45;&gt;Node4 -->
<g id="edge3" class="edge">
<title>Node2&#45;&gt;Node4</title>
<path fill="none" stroke="#63b8ff" d="M107.79,-54.98C91.29,-46.57 65.8,-33.59 46.62,-23.81"/>
<polygon fill="#63b8ff" stroke="#63b8ff" points="48.01,-20.59 37.51,-19.17 44.83,-26.83 48.01,-20.59"/>
</g>
<!-- Node5 -->
<g id="node5" class="node">
<title>Node5</title>
<g id="a_node5"><a xlink:title=" ">
<polygon fill="#e0e0e0" stroke="#999999" points="146,-19 59,-19 59,0 146,0 146,-19"/>
<text text-anchor="middle" x="102.5" y="-7" font-family="Helvetica,sans-Serif" font-size="10.00">QMainWindow</text>
</a>
</g>
</g>
<!-- Node2&#45;&gt;Node5 -->
<g id="edge4" class="edge">
<title>Node2&#45;&gt;Node5</title>
<path fill="none" stroke="#63b8ff" d="M120.87,-54.75C117.92,-47.65 113.67,-37.4 109.99,-28.56"/>
<polygon fill="#63b8ff" stroke="#63b8ff" points="113.13,-26.98 106.07,-19.09 106.67,-29.67 113.13,-26.98"/>
</g>
<!-- Node6&#45;&gt;Node2 -->
<g id="edge12" class="edge">
<title>Node6&#45;&gt;Node2</title>
<path fill="none" stroke="#63b8ff" d="M400.44,-112.68C346.69,-103.49 241.77,-85.55 177.93,-74.63"/>
<polygon fill="#63b8ff" stroke="#63b8ff" points="178.49,-71.18 168.05,-72.95 177.32,-78.08 178.49,-71.18"/>
</g>
<!-- Node6&#45;&gt;Node3 -->
<g id="edge15" class="edge">
<title>Node6&#45;&gt;Node3</title>
<path fill="none" stroke="#63b8ff" d="M400.35,-116.67C344.73,-112.89 238.46,-102.09 215.5,-74 205.26,-61.47 207.73,-42.46 211.72,-28.51"/>
<polygon fill="#63b8ff" stroke="#63b8ff" points="215.04,-29.61 214.87,-19.01 208.4,-27.4 215.04,-29.61"/>
</g>
<!-- Node7 -->
<g id="node7" class="node">
<title>Node7</title>
<g id="a_node7"><a xlink:href="diriteminfo_8h.html" target="_top" xlink:title=" ">
<polygon fill="white" stroke="#666666" points="521.5,-74 441.5,-74 441.5,-55 521.5,-55 521.5,-74"/>
<text text-anchor="middle" x="481.5" y="-62" font-family="Helvetica,sans-Serif" font-size="10.00">diriteminfo.h</text>
</a>
</g>
</g>
<!-- Node6&#45;&gt;Node7 -->
<g id="edge6" class="edge">
<title>Node6&#45;&gt;Node7</title>
<path fill="none" stroke="#63b8ff" d="M442.26,-109.75C448.97,-102.18 458.84,-91.05 467.01,-81.84"/>
<polygon fill="#63b8ff" stroke="#63b8ff" points="469.87,-83.89 473.88,-74.09 464.63,-79.25 469.87,-83.89"/>
</g>
<!-- Node6&#45;&gt;Node9 -->
<g id="edge16" class="edge">
<title>Node6&#45;&gt;Node9</title>
<path fill="none" stroke="#63b8ff" d="M468.66,-112.34C490.41,-106.46 516.95,-95.21 530.5,-74 539.33,-60.17 533.37,-41.66 526.52,-28.2"/>
<polygon fill="#63b8ff" stroke="#63b8ff" points="529.54,-26.42 521.58,-19.42 523.44,-29.85 529.54,-26.42"/>
</g>
<!-- Node10 -->
<g id="node10" class="node">
<title>Node10</title>
<g id="a_node10"><a xlink:href="driveinfo_8h.html" target="_top" xlink:title=" ">
<polygon fill="white" stroke="#666666" points="423,-74 354,-74 354,-55 423,-55 423,-74"/>
<text text-anchor="middle" x="388.5" y="-62" font-family="Helvetica,sans-Serif" font-size="10.00">driveinfo.h</text>
</a>
</g>
</g>
<!-- Node6&#45;&gt;Node10 -->
<g id="edge9" class="edge">
<title>Node6&#45;&gt;Node10</title>
<path fill="none" stroke="#63b8ff" d="M426.9,-109.75C420.34,-102.18 410.68,-91.05 402.69,-81.84"/>
<polygon fill="#63b8ff" stroke="#63b8ff" points="405.15,-79.35 395.95,-74.09 399.87,-83.94 405.15,-79.35"/>
</g>
<!-- Node11 -->
<g id="node11" class="node">
<title>Node11</title>
<g id="a_node11"><a xlink:title=" ">
<polygon fill="#e0e0e0" stroke="#999999" points="336,-74 225,-74 225,-55 336,-55 336,-74"/>
<text text-anchor="middle" x="280.5" y="-62" font-family="Helvetica,sans-Serif" font-size="10.00">QAbstractItemView</text>
</a>
</g>
</g>
<!-- Node6&#45;&gt;Node11 -->
<g id="edge13" class="edge">
<title>Node6&#45;&gt;Node11</title>
<path fill="none" stroke="#63b8ff" d="M409.76,-109.98C384.13,-101.16 343.87,-87.31 315.09,-77.41"/>
<polygon fill="#63b8ff" stroke="#63b8ff" points="316.03,-74.03 305.44,-74.08 313.75,-80.65 316.03,-74.03"/>
</g>
<!-- Node6&#45;&gt;Node12 -->
<g id="edge14" class="edge">
<title>Node6&#45;&gt;Node12</title>
<path fill="none" stroke="#63b8ff" d="M460.53,-109.98C489.78,-100.42 537.14,-84.92 567.54,-74.98"/>
<polygon fill="#63b8ff" stroke="#63b8ff" points="568.73,-78.27 577.15,-71.83 566.55,-71.62 568.73,-78.27"/>
</g>
<!-- Node8 -->
<g id="node8" class="node">
<title>Node8</title>
<g id="a_node8"><a xlink:title=" ">
<polygon fill="#e0e0e0" stroke="#999999" points="448.5,-19 368.5,-19 368.5,0 448.5,0 448.5,-19"/>
<text text-anchor="middle" x="408.5" y="-7" font-family="Helvetica,sans-Serif" font-size="10.00">QStorageInfo</text>
</a>
</g>
</g>
<!-- Node7&#45;&gt;Node8 -->
<g id="edge7" class="edge">
<title>Node7&#45;&gt;Node8</title>
<path fill="none" stroke="#63b8ff" d="M469.77,-54.98C458.77,-47 442.08,-34.88 428.9,-25.31"/>
<polygon fill="#63b8ff" stroke="#63b8ff" points="430.59,-22.21 420.44,-19.17 426.48,-27.88 430.59,-22.21"/>
</g>
<!-- Node7&#45;&gt;Node9 -->
<g id="edge8" class="edge">
<title>Node7&#45;&gt;Node9</title>
<path fill="none" stroke="#63b8ff" d="M487.11,-54.75C491.82,-47.42 498.67,-36.73 504.47,-27.7"/>
<polygon fill="#63b8ff" stroke="#63b8ff" points="507.54,-29.4 509.99,-19.09 501.64,-25.62 507.54,-29.4"/>
</g>
<!-- Node10&#45;&gt;Node8 -->
<g id="edge10" class="edge">
<title>Node10&#45;&gt;Node8</title>
<path fill="none" stroke="#63b8ff" d="M391.8,-54.75C394.48,-47.65 398.35,-37.4 401.69,-28.56"/>
<polygon fill="#63b8ff" stroke="#63b8ff" points="405,-29.68 405.26,-19.09 398.45,-27.21 405,-29.68"/>
</g>
<!-- Node10&#45;&gt;Node9 -->
<g id="edge11" class="edge">
<title>Node10&#45;&gt;Node9</title>
<path fill="none" stroke="#63b8ff" d="M408.9,-54.98C429.52,-46.38 461.61,-32.99 485.19,-23.15"/>
<polygon fill="#63b8ff" stroke="#63b8ff" points="486.84,-26.25 494.72,-19.17 484.15,-19.79 486.84,-26.25"/>
</g>
</g>
</svg>
