<?xml version="1.0" encoding="UTF-8" standalone="no"?>
<!DOCTYPE svg PUBLIC "-//W3C//DTD SVG 1.1//EN"
 "http://www.w3.org/Graphics/SVG/1.1/DTD/svg11.dtd">
<!-- Generated by graphviz version 2.43.0 (0)
 -->
<!-- Title: src/mainwindow.cpp Pages: 1 -->
<svg width="1417pt" height="192pt"
 viewBox="0.00 0.00 1417.21 192.00" xmlns="http://www.w3.org/2000/svg" xmlns:xlink="http://www.w3.org/1999/xlink">
<g id="graph0" class="graph" transform="scale(1 1) rotate(0) translate(4 188)">
<title>src/mainwindow.cpp</title>
<!-- Node1 -->
<g id="node1" class="node">
<title>Node1</title>
<g id="a_node1"><a xlink:title=" ">
<polygon fill="#999999" stroke="#666666" points="865.71,-184 749.71,-184 749.71,-165 865.71,-165 865.71,-184"/>
<text text-anchor="middle" x="807.71" y="-172" font-family="Helvetica,sans-Serif" font-size="10.00">src/mainwindow.cpp</text>
</a>
</g>
</g>
<!-- Node2 -->
<g id="node2" class="node">
<title>Node2</title>
<g id="a_node2"><a xlink:href="mainwindow_8h.html" target="_top" xlink:title=" ">
<polygon fill="white" stroke="#666666" points="518.21,-74 431.21,-74 431.21,-55 518.21,-55 518.21,-74"/>
<text text-anchor="middle" x="474.71" y="-62" font-family="Helvetica,sans-Serif" font-size="10.00">mainwindow.h</text>
</a>
</g>
</g>
<!-- Node1&#45;&gt;Node2 -->
<g id="edge1" class="edge">
<title>Node1&#45;&gt;Node2</title>
<path fill="none" stroke="#63b8ff" d="M749.4,-172.98C668.16,-171.02 526.69,-162.7 489.71,-129 477.55,-117.92 474.36,-98.99 473.88,-84.67"/>
<polygon fill="#63b8ff" stroke="#63b8ff" points="477.38,-84.44 473.95,-74.41 470.38,-84.39 477.38,-84.44"/>
</g>
<!-- Node6 -->
<g id="node6" class="node">
<title>Node6</title>
<g id="a_node6"><a xlink:href="navpage_8h.html" target="_top" xlink:title=" ">
<polygon fill="white" stroke="#666666" points="338.71,-129 270.71,-129 270.71,-110 338.71,-110 338.71,-129"/>
<text text-anchor="middle" x="304.71" y="-117" font-family="Helvetica,sans-Serif" font-size="10.00">navpage.h</text>
</a>
</g>
</g>
<!-- Node1&#45;&gt;Node6 -->
<g id="edge5" class="edge">
<title>Node1&#45;&gt;Node6</title>
<path fill="none" stroke="#63b8ff" d="M749.52,-167.37C647.8,-156.65 439.85,-134.74 348.92,-125.16"/>
<polygon fill="#63b8ff" stroke="#63b8ff" points="349.25,-121.67 338.94,-124.11 348.52,-128.64 349.25,-121.67"/>
</g>
<!-- Node9 -->
<g id="node9" class="node">
<title>Node9</title>
<g id="a_node9"><a xlink:title=" ">
<polygon fill="#e0e0e0" stroke="#999999" points="102.21,-19 43.21,-19 43.21,0 102.21,0 102.21,-19"/>
<text text-anchor="middle" x="72.71" y="-7" font-family="Helvetica,sans-Serif" font-size="10.00">QWidget</text>
</a>
</g>
</g>
<!-- Node1&#45;&gt;Node9 -->
<g id="edge33" class="edge">
<title>Node1&#45;&gt;Node9</title>
<path fill="none" stroke="#63b8ff" d="M749.48,-170.85C572.72,-162.21 51.58,-131.96 4.71,-74 -10.96,-54.62 16.96,-35.54 41.62,-23.43"/>
<polygon fill="#63b8ff" stroke="#63b8ff" points="43.23,-26.54 50.81,-19.14 40.27,-20.2 43.23,-26.54"/>
</g>
<!-- Node12 -->
<g id="node12" class="node">
<title>Node12</title>
<g id="a_node12"><a xlink:title=" ">
<polygon fill="#e0e0e0" stroke="#999999" points="412.71,-74 374.71,-74 374.71,-55 412.71,-55 412.71,-74"/>
<text text-anchor="middle" x="393.71" y="-62" font-family="Helvetica,sans-Serif" font-size="10.00">QDir</text>
</a>
</g>
</g>
<!-- Node1&#45;&gt;Node12 -->
<g id="edge26" class="edge">
<title>Node1&#45;&gt;Node12</title>
<path fill="none" stroke="#63b8ff" d="M749.54,-169.43C667.66,-163.07 523.02,-149.36 474.71,-129 448.87,-118.11 424.27,-96.71 409.1,-81.77"/>
<polygon fill="#63b8ff" stroke="#63b8ff" points="411.21,-78.92 401.7,-74.25 406.22,-83.83 411.21,-78.92"/>
</g>
<!-- Node13 -->
<g id="node13" class="node">
<title>Node13</title>
<g id="a_node13"><a xlink:href="searchwindow_8h.html" target="_top" xlink:title=" ">
<polygon fill="white" stroke="#666666" points="594.21,-129 499.21,-129 499.21,-110 594.21,-110 594.21,-129"/>
<text text-anchor="middle" x="546.71" y="-117" font-family="Helvetica,sans-Serif" font-size="10.00">searchwindow.h</text>
</a>
</g>
</g>
<!-- Node1&#45;&gt;Node13 -->
<g id="edge17" class="edge">
<title>Node1&#45;&gt;Node13</title>
<path fill="none" stroke="#63b8ff" d="M765.78,-164.98C720.44,-155.78 648.1,-141.09 599.07,-131.13"/>
<polygon fill="#63b8ff" stroke="#63b8ff" points="599.47,-127.64 588.97,-129.08 598.08,-134.5 599.47,-127.64"/>
</g>
<!-- Node17 -->
<g id="node17" class="node">
<title>Node17</title>
<g id="a_node17"><a xlink:title=" ">
<polygon fill="#e0e0e0" stroke="#999999" points="713.21,-129 612.21,-129 612.21,-110 713.21,-110 713.21,-129"/>
<text text-anchor="middle" x="662.71" y="-117" font-family="Helvetica,sans-Serif" font-size="10.00">ui_mainwindow.h</text>
</a>
</g>
</g>
<!-- Node1&#45;&gt;Node17 -->
<g id="edge23" class="edge">
<title>Node1&#45;&gt;Node17</title>
<path fill="none" stroke="#63b8ff" d="M784.41,-164.98C760.46,-156.23 722.93,-142.51 695.88,-132.62"/>
<polygon fill="#63b8ff" stroke="#63b8ff" points="697.03,-129.32 686.43,-129.17 694.62,-135.89 697.03,-129.32"/>
</g>
<!-- Node18 -->
<g id="node18" class="node">
<title>Node18</title>
<g id="a_node18"><a xlink:title=" ">
<polygon fill="#e0e0e0" stroke="#999999" points="802.21,-129 731.21,-129 731.21,-110 802.21,-110 802.21,-129"/>
<text text-anchor="middle" x="766.71" y="-117" font-family="Helvetica,sans-Serif" font-size="10.00">QClipboard</text>
</a>
</g>
</g>
<!-- Node1&#45;&gt;Node18 -->
<g id="edge24" class="edge">
<title>Node1&#45;&gt;Node18</title>
<path fill="none" stroke="#63b8ff" d="M800.94,-164.75C795.15,-157.26 786.65,-146.28 779.57,-137.13"/>
<polygon fill="#63b8ff" stroke="#63b8ff" points="782.24,-134.86 773.36,-129.09 776.71,-139.14 782.24,-134.86"/>
</g>
<!-- Node19 -->
<g id="node19" class="node">
<title>Node19</title>
<g id="a_node19"><a xlink:title=" ">
<polygon fill="#e0e0e0" stroke="#999999" points="876.71,-129 820.71,-129 820.71,-110 876.71,-110 876.71,-129"/>
<text text-anchor="middle" x="848.71" y="-117" font-family="Helvetica,sans-Serif" font-size="10.00">QDebug</text>
</a>
</g>
</g>
<!-- Node1&#45;&gt;Node19 -->
<g id="edge25" class="edge">
<title>Node1&#45;&gt;Node19</title>
<path fill="none" stroke="#63b8ff" d="M814.48,-164.75C820.27,-157.26 828.77,-146.28 835.85,-137.13"/>
<polygon fill="#63b8ff" stroke="#63b8ff" points="838.72,-139.14 842.07,-129.09 833.18,-134.86 838.72,-139.14"/>
</g>
<!-- Node20 -->
<g id="node20" class="node">
<title>Node20</title>
<g id="a_node20"><a xlink:title=" ">
<polygon fill="#e0e0e0" stroke="#999999" points="974.71,-129 894.71,-129 894.71,-110 974.71,-110 974.71,-129"/>
<text text-anchor="middle" x="934.71" y="-117" font-family="Helvetica,sans-Serif" font-size="10.00">QInputDialog</text>
</a>
</g>
</g>
<!-- Node1&#45;&gt;Node20 -->
<g id="edge27" class="edge">
<title>Node1&#45;&gt;Node20</title>
<path fill="none" stroke="#63b8ff" d="M828.12,-164.98C848.73,-156.38 880.82,-142.99 904.41,-133.15"/>
<polygon fill="#63b8ff" stroke="#63b8ff" points="906.05,-136.25 913.94,-129.17 903.36,-129.79 906.05,-136.25"/>
</g>
<!-- Node21 -->
<g id="node21" class="node">
<title>Node21</title>
<g id="a_node21"><a xlink:title=" ">
<polygon fill="#e0e0e0" stroke="#999999" points="1056.21,-129 993.21,-129 993.21,-110 1056.21,-110 1056.21,-129"/>
<text text-anchor="middle" x="1024.71" y="-117" font-family="Helvetica,sans-Serif" font-size="10.00">QLineEdit</text>
</a>
</g>
</g>
<!-- Node1&#45;&gt;Node21 -->
<g id="edge28" class="edge">
<title>Node1&#45;&gt;Node21</title>
<path fill="none" stroke="#63b8ff" d="M842.58,-164.98C880.9,-155.62 942.43,-140.6 983.21,-130.64"/>
<polygon fill="#63b8ff" stroke="#63b8ff" points="984.22,-133.99 993.11,-128.22 982.56,-127.19 984.22,-133.99"/>
</g>
<!-- Node22 -->
<g id="node22" class="node">
<title>Node22</title>
<g id="a_node22"><a xlink:title=" ">
<polygon fill="#e0e0e0" stroke="#999999" points="1160.71,-129 1074.71,-129 1074.71,-110 1160.71,-110 1160.71,-129"/>
<text text-anchor="middle" x="1117.71" y="-117" font-family="Helvetica,sans-Serif" font-size="10.00">QMessageBox</text>
</a>
</g>
</g>
<!-- Node1&#45;&gt;Node22 -->
<g id="edge29" class="edge">
<title>Node1&#45;&gt;Node22</title>
<path fill="none" stroke="#63b8ff" d="M857.52,-164.98C914.19,-155.3 1006.38,-139.53 1064.45,-129.61"/>
<polygon fill="#63b8ff" stroke="#63b8ff" points="1065.26,-133.02 1074.53,-127.88 1064.08,-126.12 1065.26,-133.02"/>
</g>
<!-- Node23 -->
<g id="node23" class="node">
<title>Node23</title>
<g id="a_node23"><a xlink:title=" ">
<polygon fill="#e0e0e0" stroke="#999999" points="1234.71,-129 1178.71,-129 1178.71,-110 1234.71,-110 1234.71,-129"/>
<text text-anchor="middle" x="1206.71" y="-117" font-family="Helvetica,sans-Serif" font-size="10.00">QObject</text>
</a>
</g>
</g>
<!-- Node1&#45;&gt;Node23 -->
<g id="edge30" class="edge">
<title>Node1&#45;&gt;Node23</title>
<path fill="none" stroke="#63b8ff" d="M865.98,-168.21C935.64,-161.47 1055.92,-148.51 1168.34,-129.08"/>
<polygon fill="#63b8ff" stroke="#63b8ff" points="1169.24,-132.47 1178.49,-127.3 1168.04,-125.58 1169.24,-132.47"/>
</g>
<!-- Node24 -->
<g id="node24" class="node">
<title>Node24</title>
<g id="a_node24"><a xlink:title=" ">
<polygon fill="#e0e0e0" stroke="#999999" points="1328.21,-129 1253.21,-129 1253.21,-110 1328.21,-110 1328.21,-129"/>
<text text-anchor="middle" x="1290.71" y="-117" font-family="Helvetica,sans-Serif" font-size="10.00">QTabWidget</text>
</a>
</g>
</g>
<!-- Node1&#45;&gt;Node24 -->
<g id="edge31" class="edge">
<title>Node1&#45;&gt;Node24</title>
<path fill="none" stroke="#63b8ff" d="M865.72,-169.01C947.46,-162.37 1101.42,-148.71 1242.88,-129.01"/>
<polygon fill="#63b8ff" stroke="#63b8ff" points="1243.63,-132.44 1253.04,-127.58 1242.65,-125.5 1243.63,-132.44"/>
</g>
<!-- Node25 -->
<g id="node25" class="node">
<title>Node25</title>
<g id="a_node25"><a xlink:title=" ">
<polygon fill="#e0e0e0" stroke="#999999" points="1409.21,-129 1346.21,-129 1346.21,-110 1409.21,-110 1409.21,-129"/>
<text text-anchor="middle" x="1377.71" y="-117" font-family="Helvetica,sans-Serif" font-size="10.00">QTextEdit</text>
</a>
</g>
</g>
<!-- Node1&#45;&gt;Node25 -->
<g id="edge32" class="edge">
<title>Node1&#45;&gt;Node25</title>
<path fill="none" stroke="#63b8ff" d="M866.02,-171C962.1,-166.36 1159.84,-154.6 1335.94,-129.1"/>
<polygon fill="#63b8ff" stroke="#63b8ff" points="1336.51,-132.55 1345.9,-127.64 1335.5,-125.62 1336.51,-132.55"/>
</g>
<!-- Node3 -->
<g id="node3" class="node">
<title>Node3</title>
<g id="a_node3"><a xlink:title=" ">
<polygon fill="#e0e0e0" stroke="#999999" points="406.71,-19 298.71,-19 298.71,0 406.71,0 406.71,-19"/>
<text text-anchor="middle" x="352.71" y="-7" font-family="Helvetica,sans-Serif" font-size="10.00">QFileSystemModel</text>
</a>
</g>
</g>
<!-- Node2&#45;&gt;Node3 -->
<g id="edge2" class="edge">
<title>Node2&#45;&gt;Node3</title>
<path fill="none" stroke="#63b8ff" d="M455.11,-54.98C435.4,-46.42 404.76,-33.11 382.13,-23.28"/>
<polygon fill="#63b8ff" stroke="#63b8ff" points="383.24,-19.94 372.67,-19.17 380.45,-26.37 383.24,-19.94"/>
</g>
<!-- Node4 -->
<g id="node4" class="node">
<title>Node4</title>
<g id="a_node4"><a xlink:title=" ">
<polygon fill="#e0e0e0" stroke="#999999" points="478.21,-19 437.21,-19 437.21,0 478.21,0 478.21,-19"/>
<text text-anchor="middle" x="457.71" y="-7" font-family="Helvetica,sans-Serif" font-size="10.00">QList</text>
</a>
</g>
</g>
<!-- Node2&#45;&gt;Node4 -->
<g id="edge3" class="edge">
<title>Node2&#45;&gt;Node4</title>
<path fill="none" stroke="#63b8ff" d="M471.9,-54.75C469.65,-47.72 466.41,-37.62 463.6,-28.84"/>
<polygon fill="#63b8ff" stroke="#63b8ff" points="466.85,-27.54 460.47,-19.09 460.19,-29.68 466.85,-27.54"/>
</g>
<!-- Node5 -->
<g id="node5" class="node">
<title>Node5</title>
<g id="a_node5"><a xlink:title=" ">
<polygon fill="#e0e0e0" stroke="#999999" points="583.21,-19 496.21,-19 496.21,0 583.21,0 583.21,-19"/>
<text text-anchor="middle" x="539.71" y="-7" font-family="Helvetica,sans-Serif" font-size="10.00">QMainWindow</text>
</a>
</g>
</g>
<!-- Node2&#45;&gt;Node5 -->
<g id="edge4" class="edge">
<title>Node2&#45;&gt;Node5</title>
<path fill="none" stroke="#63b8ff" d="M485.15,-54.98C494.86,-47.07 509.53,-35.11 521.21,-25.58"/>
<polygon fill="#63b8ff" stroke="#63b8ff" points="523.54,-28.2 529.08,-19.17 519.12,-22.78 523.54,-28.2"/>
</g>
<!-- Node6&#45;&gt;Node2 -->
<g id="edge12" class="edge">
<title>Node6&#45;&gt;Node2</title>
<path fill="none" stroke="#63b8ff" d="M332.02,-109.98C360.57,-101.09 405.54,-87.07 437.35,-77.15"/>
<polygon fill="#63b8ff" stroke="#63b8ff" points="438.68,-80.4 447.18,-74.08 436.6,-73.72 438.68,-80.4"/>
</g>
<!-- Node6&#45;&gt;Node3 -->
<g id="edge15" class="edge">
<title>Node6&#45;&gt;Node3</title>
<path fill="none" stroke="#63b8ff" d="M309.56,-109.77C314.41,-100.89 321.96,-86.67 327.71,-74 334.52,-59 341.31,-41.56 346.09,-28.75"/>
<polygon fill="#63b8ff" stroke="#63b8ff" points="349.42,-29.84 349.59,-19.24 342.85,-27.42 349.42,-29.84"/>
</g>
<!-- Node7 -->
<g id="node7" class="node">
<title>Node7</title>
<g id="a_node7"><a xlink:href="diriteminfo_8h.html" target="_top" xlink:title=" ">
<polygon fill="white" stroke="#666666" points="318.71,-74 238.71,-74 238.71,-55 318.71,-55 318.71,-74"/>
<text text-anchor="middle" x="278.71" y="-62" font-family="Helvetica,sans-Serif" font-size="10.00">diriteminfo.h</text>
</a>
</g>
</g>
<!-- Node6&#45;&gt;Node7 -->
<g id="edge6" class="edge">
<title>Node6&#45;&gt;Node7</title>
<path fill="none" stroke="#63b8ff" d="M300.42,-109.75C296.9,-102.57 291.8,-92.18 287.43,-83.27"/>
<polygon fill="#63b8ff" stroke="#63b8ff" points="290.47,-81.53 282.92,-74.09 284.19,-84.61 290.47,-81.53"/>
</g>
<!-- Node6&#45;&gt;Node9 -->
<g id="edge16" class="edge">
<title>Node6&#45;&gt;Node9</title>
<path fill="none" stroke="#63b8ff" d="M270.58,-118.6C200.8,-118.01 45.63,-112.31 12.71,-74 -2.66,-56.1 22.8,-36.51 45.15,-23.89"/>
<polygon fill="#63b8ff" stroke="#63b8ff" points="46.94,-26.9 54.1,-19.09 43.63,-20.73 46.94,-26.9"/>
</g>
<!-- Node10 -->
<g id="node10" class="node">
<title>Node10</title>
<g id="a_node10"><a xlink:href="driveinfo_8h.html" target="_top" xlink:title=" ">
<polygon fill="white" stroke="#666666" points="220.21,-74 151.21,-74 151.21,-55 220.21,-55 220.21,-74"/>
<text text-anchor="middle" x="185.71" y="-62" font-family="Helvetica,sans-Serif" font-size="10.00">driveinfo.h</text>
</a>
</g>
</g>
<!-- Node6&#45;&gt;Node10 -->
<g id="edge9" class="edge">
<title>Node6&#45;&gt;Node10</title>
<path fill="none" stroke="#63b8ff" d="M285.59,-109.98C266.36,-101.42 236.48,-88.11 214.4,-78.28"/>
<polygon fill="#63b8ff" stroke="#63b8ff" points="215.74,-75.04 205.18,-74.17 212.89,-81.44 215.74,-75.04"/>
</g>
<!-- Node11 -->
<g id="node11" class="node">
<title>Node11</title>
<g id="a_node11"><a xlink:title=" ">
<polygon fill="#e0e0e0" stroke="#999999" points="133.21,-74 22.21,-74 22.21,-55 133.21,-55 133.21,-74"/>
<text text-anchor="middle" x="77.71" y="-62" font-family="Helvetica,sans-Serif" font-size="10.00">QAbstractItemView</text>
</a>
</g>
</g>
<!-- Node6&#45;&gt;Node11 -->
<g id="edge13" class="edge">
<title>Node6&#45;&gt;Node11</title>
<path fill="none" stroke="#63b8ff" d="M270.23,-110.45C231.23,-101.34 167.5,-86.46 124.14,-76.34"/>
<polygon fill="#63b8ff" stroke="#63b8ff" points="124.93,-72.93 114.4,-74.07 123.34,-79.75 124.93,-72.93"/>
</g>
<!-- Node6&#45;&gt;Node12 -->
<g id="edge14" class="edge">
<title>Node6&#45;&gt;Node12</title>
<path fill="none" stroke="#63b8ff" d="M319.01,-109.98C332.81,-101.77 353.95,-89.18 370.22,-79.49"/>
<polygon fill="#63b8ff" stroke="#63b8ff" points="372.35,-82.29 379.15,-74.17 368.77,-76.28 372.35,-82.29"/>
</g>
<!-- Node8 -->
<g id="node8" class="node">
<title>Node8</title>
<g id="a_node8"><a xlink:title=" ">
<polygon fill="#e0e0e0" stroke="#999999" points="252.71,-19 172.71,-19 172.71,0 252.71,0 252.71,-19"/>
<text text-anchor="middle" x="212.71" y="-7" font-family="Helvetica,sans-Serif" font-size="10.00">QStorageInfo</text>
</a>
</g>
</g>
<!-- Node7&#45;&gt;Node8 -->
<g id="edge7" class="edge">
<title>Node7&#45;&gt;Node8</title>
<path fill="none" stroke="#63b8ff" d="M268.11,-54.98C258.26,-47.07 243.36,-35.11 231.5,-25.58"/>
<polygon fill="#63b8ff" stroke="#63b8ff" points="233.5,-22.7 223.51,-19.17 229.11,-28.16 233.5,-22.7"/>
</g>
<!-- Node7&#45;&gt;Node9 -->
<g id="edge8" class="edge">
<title>Node7&#45;&gt;Node9</title>
<path fill="none" stroke="#63b8ff" d="M245.61,-54.98C209.28,-45.64 150.98,-30.64 112.26,-20.68"/>
<polygon fill="#63b8ff" stroke="#63b8ff" points="112.94,-17.24 102.38,-18.13 111.2,-24.02 112.94,-17.24"/>
</g>
<!-- Node10&#45;&gt;Node8 -->
<g id="edge10" class="edge">
<title>Node10&#45;&gt;Node8</title>
<path fill="none" stroke="#63b8ff" d="M190.17,-54.75C193.83,-47.57 199.12,-37.18 203.66,-28.27"/>
<polygon fill="#63b8ff" stroke="#63b8ff" points="206.92,-29.59 208.34,-19.09 200.68,-26.41 206.92,-29.59"/>
</g>
<!-- Node10&#45;&gt;Node9 -->
<g id="edge11" class="edge">
<title>Node10&#45;&gt;Node9</title>
<path fill="none" stroke="#63b8ff" d="M167.56,-54.98C149.46,-46.5 121.43,-33.35 100.52,-23.54"/>
<polygon fill="#63b8ff" stroke="#63b8ff" points="101.74,-20.25 91.2,-19.17 98.76,-26.59 101.74,-20.25"/>
</g>
<!-- Node13&#45;&gt;Node5 -->
<g id="edge22" class="edge">
<title>Node13&#45;&gt;Node5</title>
<path fill="none" stroke="#63b8ff" d="M546.14,-109.66C545,-92.17 542.45,-52.8 540.93,-29.27"/>
<polygon fill="#63b8ff" stroke="#63b8ff" points="544.41,-28.91 540.27,-19.16 537.43,-29.36 544.41,-28.91"/>
</g>
<!-- Node14 -->
<g id="node14" class="node">
<title>Node14</title>
<g id="a_node14"><a xlink:href="qfileinfolistmodel_8h.html" target="_top" xlink:title=" ">
<polygon fill="white" stroke="#666666" points="724.21,-74 613.21,-74 613.21,-55 724.21,-55 724.21,-74"/>
<text text-anchor="middle" x="668.71" y="-62" font-family="Helvetica,sans-Serif" font-size="10.00">qfileinfolistmodel.h</text>
</a>
</g>
</g>
<!-- Node13&#45;&gt;Node14 -->
<g id="edge18" class="edge">
<title>Node13&#45;&gt;Node14</title>
<path fill="none" stroke="#63b8ff" d="M566.31,-109.98C586.03,-101.42 616.66,-88.11 639.29,-78.28"/>
<polygon fill="#63b8ff" stroke="#63b8ff" points="640.98,-81.37 648.75,-74.17 638.19,-74.94 640.98,-81.37"/>
</g>
<!-- Node16 -->
<g id="node16" class="node">
<title>Node16</title>
<g id="a_node16"><a xlink:title=" ">
<polygon fill="#e0e0e0" stroke="#999999" points="661.71,-19 601.71,-19 601.71,0 661.71,0 661.71,-19"/>
<text text-anchor="middle" x="631.71" y="-7" font-family="Helvetica,sans-Serif" font-size="10.00">QFileInfo</text>
</a>
</g>
</g>
<!-- Node13&#45;&gt;Node16 -->
<g id="edge21" class="edge">
<title>Node13&#45;&gt;Node16</title>
<path fill="none" stroke="#63b8ff" d="M553.67,-109.66C567.87,-91.61 600.4,-50.28 618.67,-27.08"/>
<polygon fill="#63b8ff" stroke="#63b8ff" points="621.46,-29.18 624.9,-19.16 615.96,-24.85 621.46,-29.18"/>
</g>
<!-- Node15 -->
<g id="node15" class="node">
<title>Node15</title>
<g id="a_node15"><a xlink:title=" ">
<polygon fill="#e0e0e0" stroke="#999999" points="799.71,-19 679.71,-19 679.71,0 799.71,0 799.71,-19"/>
<text text-anchor="middle" x="739.71" y="-7" font-family="Helvetica,sans-Serif" font-size="10.00">QAbstractTableModel</text>
</a>
</g>
</g>
<!-- Node14&#45;&gt;Node15 -->
<g id="edge19" class="edge">
<title>Node14&#45;&gt;Node15</title>
<path fill="none" stroke="#63b8ff" d="M680.12,-54.98C690.82,-47 707.05,-34.88 719.87,-25.31"/>
<polygon fill="#63b8ff" stroke="#63b8ff" points="722.18,-27.96 728.1,-19.17 717.99,-22.35 722.18,-27.96"/>
</g>
<!-- Node14&#45;&gt;Node16 -->
<g id="edge20" class="edge">
<title>Node14&#45;&gt;Node16</title>
<path fill="none" stroke="#63b8ff" d="M662.6,-54.75C657.43,-47.34 649.87,-36.5 643.52,-27.41"/>
<polygon fill="#63b8ff" stroke="#63b8ff" points="646.3,-25.29 637.71,-19.09 640.56,-29.29 646.3,-25.29"/>
</g>
</g>
</svg>
