<?xml version="1.0" encoding="UTF-8" standalone="no"?>
<!DOCTYPE svg PUBLIC "-//W3C//DTD SVG 1.1//EN"
 "http://www.w3.org/Graphics/SVG/1.1/DTD/svg11.dtd">
<!-- Generated by graphviz version 2.43.0 (0)
 -->
<!-- Title: src/mainwindow.cpp Pages: 1 -->
<svg width="842pt" height="192pt"
 viewBox="0.00 0.00 842.00 192.00" xmlns="http://www.w3.org/2000/svg" xmlns:xlink="http://www.w3.org/1999/xlink">
<g id="graph0" class="graph" transform="scale(1 1) rotate(0) translate(4 188)">
<title>src/mainwindow.cpp</title>
<!-- Node1 -->
<g id="node1" class="node">
<title>Node1</title>
<g id="a_node1"><a xlink:title=" ">
<polygon fill="#999999" stroke="#666666" points="584.5,-184 468.5,-184 468.5,-165 584.5,-165 584.5,-184"/>
<text text-anchor="middle" x="526.5" y="-172" font-family="Helvetica,sans-Serif" font-size="10.00">src/mainwindow.cpp</text>
</a>
</g>
</g>
<!-- Node2 -->
<g id="node2" class="node">
<title>Node2</title>
<g id="a_node2"><a xlink:href="mainwindow_8h.html" target="_top" xlink:title=" ">
<polygon fill="white" stroke="#666666" points="168,-74 81,-74 81,-55 168,-55 168,-74"/>
<text text-anchor="middle" x="124.5" y="-62" font-family="Helvetica,sans-Serif" font-size="10.00">mainwindow.h</text>
</a>
</g>
</g>
<!-- Node1&#45;&gt;Node2 -->
<g id="edge1" class="edge">
<title>Node1&#45;&gt;Node2</title>
<path fill="none" stroke="#63b8ff" d="M468.31,-166.16C418.61,-159.11 345.52,-146.87 283.5,-129 236.08,-115.34 183.29,-92.69 152.04,-78.45"/>
<polygon fill="#63b8ff" stroke="#63b8ff" points="153.23,-75.15 142.69,-74.15 150.31,-81.51 153.23,-75.15"/>
</g>
<!-- Node6 -->
<g id="node6" class="node">
<title>Node6</title>
<g id="a_node6"><a xlink:href="navpage_8h.html" target="_top" xlink:title=" ">
<polygon fill="white" stroke="#666666" points="360.5,-129 292.5,-129 292.5,-110 360.5,-110 360.5,-129"/>
<text text-anchor="middle" x="326.5" y="-117" font-family="Helvetica,sans-Serif" font-size="10.00">navpage.h</text>
</a>
</g>
</g>
<!-- Node1&#45;&gt;Node6 -->
<g id="edge5" class="edge">
<title>Node1&#45;&gt;Node6</title>
<path fill="none" stroke="#63b8ff" d="M494.37,-164.98C460.35,-155.97 406.5,-141.7 369,-131.76"/>
<polygon fill="#63b8ff" stroke="#63b8ff" points="369.45,-128.26 358.89,-129.08 367.66,-135.03 369.45,-128.26"/>
</g>
<!-- Node13 -->
<g id="node13" class="node">
<title>Node13</title>
<g id="a_node13"><a xlink:title=" ">
<polygon fill="#e0e0e0" stroke="#999999" points="480,-129 379,-129 379,-110 480,-110 480,-129"/>
<text text-anchor="middle" x="429.5" y="-117" font-family="Helvetica,sans-Serif" font-size="10.00">ui_mainwindow.h</text>
</a>
</g>
</g>
<!-- Node1&#45;&gt;Node13 -->
<g id="edge17" class="edge">
<title>Node1&#45;&gt;Node13</title>
<path fill="none" stroke="#63b8ff" d="M510.92,-164.98C495.73,-156.69 472.4,-143.94 454.6,-134.22"/>
<polygon fill="#63b8ff" stroke="#63b8ff" points="455.82,-130.89 445.37,-129.17 452.47,-137.04 455.82,-130.89"/>
</g>
<!-- Node14 -->
<g id="node14" class="node">
<title>Node14</title>
<g id="a_node14"><a xlink:title=" ">
<polygon fill="#e0e0e0" stroke="#999999" points="554.5,-129 498.5,-129 498.5,-110 554.5,-110 554.5,-129"/>
<text text-anchor="middle" x="526.5" y="-117" font-family="Helvetica,sans-Serif" font-size="10.00">QDebug</text>
</a>
</g>
</g>
<!-- Node1&#45;&gt;Node14 -->
<g id="edge18" class="edge">
<title>Node1&#45;&gt;Node14</title>
<path fill="none" stroke="#63b8ff" d="M526.5,-164.75C526.5,-157.8 526.5,-147.85 526.5,-139.13"/>
<polygon fill="#63b8ff" stroke="#63b8ff" points="530,-139.09 526.5,-129.09 523,-139.09 530,-139.09"/>
</g>
<!-- Node15 -->
<g id="node15" class="node">
<title>Node15</title>
<g id="a_node15"><a xlink:title=" ">
<polygon fill="#e0e0e0" stroke="#999999" points="636,-129 573,-129 573,-110 636,-110 636,-129"/>
<text text-anchor="middle" x="604.5" y="-117" font-family="Helvetica,sans-Serif" font-size="10.00">QLineEdit</text>
</a>
</g>
</g>
<!-- Node1&#45;&gt;Node15 -->
<g id="edge19" class="edge">
<title>Node1&#45;&gt;Node15</title>
<path fill="none" stroke="#63b8ff" d="M539.03,-164.98C550.9,-156.92 568.96,-144.65 583.11,-135.03"/>
<polygon fill="#63b8ff" stroke="#63b8ff" points="585.44,-137.69 591.74,-129.17 581.5,-131.9 585.44,-137.69"/>
</g>
<!-- Node16 -->
<g id="node16" class="node">
<title>Node16</title>
<g id="a_node16"><a xlink:title=" ">
<polygon fill="#e0e0e0" stroke="#999999" points="740.5,-129 654.5,-129 654.5,-110 740.5,-110 740.5,-129"/>
<text text-anchor="middle" x="697.5" y="-117" font-family="Helvetica,sans-Serif" font-size="10.00">QMessageBox</text>
</a>
</g>
</g>
<!-- Node1&#45;&gt;Node16 -->
<g id="edge20" class="edge">
<title>Node1&#45;&gt;Node16</title>
<path fill="none" stroke="#63b8ff" d="M553.97,-164.98C582.68,-156.09 627.92,-142.07 659.92,-132.15"/>
<polygon fill="#63b8ff" stroke="#63b8ff" points="661.3,-135.39 669.81,-129.08 659.22,-128.7 661.3,-135.39"/>
</g>
<!-- Node17 -->
<g id="node17" class="node">
<title>Node17</title>
<g id="a_node17"><a xlink:title=" ">
<polygon fill="#e0e0e0" stroke="#999999" points="834,-129 759,-129 759,-110 834,-110 834,-129"/>
<text text-anchor="middle" x="796.5" y="-117" font-family="Helvetica,sans-Serif" font-size="10.00">QTabWidget</text>
</a>
</g>
</g>
<!-- Node1&#45;&gt;Node17 -->
<g id="edge21" class="edge">
<title>Node1&#45;&gt;Node17</title>
<path fill="none" stroke="#63b8ff" d="M569.88,-164.98C618.83,-155.38 698.21,-139.79 748.85,-129.85"/>
<polygon fill="#63b8ff" stroke="#63b8ff" points="749.75,-133.24 758.89,-127.88 748.4,-126.37 749.75,-133.24"/>
</g>
<!-- Node3 -->
<g id="node3" class="node">
<title>Node3</title>
<g id="a_node3"><a xlink:title=" ">
<polygon fill="#e0e0e0" stroke="#999999" points="272.5,-19 164.5,-19 164.5,0 272.5,0 272.5,-19"/>
<text text-anchor="middle" x="218.5" y="-7" font-family="Helvetica,sans-Serif" font-size="10.00">QFileSystemModel</text>
</a>
</g>
</g>
<!-- Node2&#45;&gt;Node3 -->
<g id="edge2" class="edge">
<title>Node2&#45;&gt;Node3</title>
<path fill="none" stroke="#63b8ff" d="M139.6,-54.98C154.32,-46.69 176.92,-33.94 194.17,-24.22"/>
<polygon fill="#63b8ff" stroke="#63b8ff" points="196.13,-27.13 203.12,-19.17 192.69,-21.03 196.13,-27.13"/>
</g>
<!-- Node4 -->
<g id="node4" class="node">
<title>Node4</title>
<g id="a_node4"><a xlink:title=" ">
<polygon fill="#e0e0e0" stroke="#999999" points="41,-19 0,-19 0,0 41,0 41,-19"/>
<text text-anchor="middle" x="20.5" y="-7" font-family="Helvetica,sans-Serif" font-size="10.00">QList</text>
</a>
</g>
</g>
<!-- Node2&#45;&gt;Node4 -->
<g id="edge3" class="edge">
<title>Node2&#45;&gt;Node4</title>
<path fill="none" stroke="#63b8ff" d="M107.79,-54.98C91.29,-46.57 65.8,-33.59 46.62,-23.81"/>
<polygon fill="#63b8ff" stroke="#63b8ff" points="48.01,-20.59 37.51,-19.17 44.83,-26.83 48.01,-20.59"/>
</g>
<!-- Node5 -->
<g id="node5" class="node">
<title>Node5</title>
<g id="a_node5"><a xlink:title=" ">
<polygon fill="#e0e0e0" stroke="#999999" points="146,-19 59,-19 59,0 146,0 146,-19"/>
<text text-anchor="middle" x="102.5" y="-7" font-family="Helvetica,sans-Serif" font-size="10.00">QMainWindow</text>
</a>
</g>
</g>
<!-- Node2&#45;&gt;Node5 -->
<g id="edge4" class="edge">
<title>Node2&#45;&gt;Node5</title>
<path fill="none" stroke="#63b8ff" d="M120.87,-54.75C117.92,-47.65 113.67,-37.4 109.99,-28.56"/>
<polygon fill="#63b8ff" stroke="#63b8ff" points="113.13,-26.98 106.07,-19.09 106.67,-29.67 113.13,-26.98"/>
</g>
<!-- Node6&#45;&gt;Node2 -->
<g id="edge12" class="edge">
<title>Node6&#45;&gt;Node2</title>
<path fill="none" stroke="#63b8ff" d="M294.05,-109.98C259.54,-100.93 204.84,-86.58 166.94,-76.64"/>
<polygon fill="#63b8ff" stroke="#63b8ff" points="167.77,-73.23 157.21,-74.08 165.99,-80.01 167.77,-73.23"/>
</g>
<!-- Node6&#45;&gt;Node3 -->
<g id="edge15" class="edge">
<title>Node6&#45;&gt;Node3</title>
<path fill="none" stroke="#63b8ff" d="M292.3,-114.87C266.43,-110.13 232.54,-99.19 215.5,-74 206.62,-60.87 208.65,-42.49 212.14,-28.88"/>
<polygon fill="#63b8ff" stroke="#63b8ff" points="215.53,-29.76 215.07,-19.18 208.83,-27.74 215.53,-29.76"/>
</g>
<!-- Node7 -->
<g id="node7" class="node">
<title>Node7</title>
<g id="a_node7"><a xlink:href="diriteminfo_8h.html" target="_top" xlink:title=" ">
<polygon fill="white" stroke="#666666" points="490.5,-74 410.5,-74 410.5,-55 490.5,-55 490.5,-74"/>
<text text-anchor="middle" x="450.5" y="-62" font-family="Helvetica,sans-Serif" font-size="10.00">diriteminfo.h</text>
</a>
</g>
</g>
<!-- Node6&#45;&gt;Node7 -->
<g id="edge6" class="edge">
<title>Node6&#45;&gt;Node7</title>
<path fill="none" stroke="#63b8ff" d="M346.42,-109.98C366.55,-101.38 397.88,-87.99 420.91,-78.15"/>
<polygon fill="#63b8ff" stroke="#63b8ff" points="422.4,-81.32 430.21,-74.17 419.64,-74.88 422.4,-81.32"/>
</g>
<!-- Node9 -->
<g id="node9" class="node">
<title>Node9</title>
<g id="a_node9"><a xlink:title=" ">
<polygon fill="#e0e0e0" stroke="#999999" points="573,-19 514,-19 514,0 573,0 573,-19"/>
<text text-anchor="middle" x="543.5" y="-7" font-family="Helvetica,sans-Serif" font-size="10.00">QWidget</text>
</a>
</g>
</g>
<!-- Node6&#45;&gt;Node9 -->
<g id="edge16" class="edge">
<title>Node6&#45;&gt;Node9</title>
<path fill="none" stroke="#63b8ff" d="M360.75,-111.63C363.71,-111.07 366.65,-110.52 369.5,-110 417.81,-101.24 555.73,-111.44 587.5,-74 600.92,-58.18 582.06,-38.29 565.03,-25.03"/>
<polygon fill="#63b8ff" stroke="#63b8ff" points="567.09,-22.2 556.96,-19.1 562.94,-27.84 567.09,-22.2"/>
</g>
<!-- Node10 -->
<g id="node10" class="node">
<title>Node10</title>
<g id="a_node10"><a xlink:href="driveinfo_8h.html" target="_top" xlink:title=" ">
<polygon fill="white" stroke="#666666" points="578,-74 509,-74 509,-55 578,-55 578,-74"/>
<text text-anchor="middle" x="543.5" y="-62" font-family="Helvetica,sans-Serif" font-size="10.00">driveinfo.h</text>
</a>
</g>
</g>
<!-- Node6&#45;&gt;Node10 -->
<g id="edge9" class="edge">
<title>Node6&#45;&gt;Node10</title>
<path fill="none" stroke="#63b8ff" d="M360.88,-110.1C398.23,-100.98 458.02,-86.38 498.95,-76.38"/>
<polygon fill="#63b8ff" stroke="#63b8ff" points="500.03,-79.72 508.92,-73.95 498.37,-72.92 500.03,-79.72"/>
</g>
<!-- Node11 -->
<g id="node11" class="node">
<title>Node11</title>
<g id="a_node11"><a xlink:title=" ">
<polygon fill="#e0e0e0" stroke="#999999" points="336,-74 225,-74 225,-55 336,-55 336,-74"/>
<text text-anchor="middle" x="280.5" y="-62" font-family="Helvetica,sans-Serif" font-size="10.00">QAbstractItemView</text>
</a>
</g>
</g>
<!-- Node6&#45;&gt;Node11 -->
<g id="edge13" class="edge">
<title>Node6&#45;&gt;Node11</title>
<path fill="none" stroke="#63b8ff" d="M318.9,-109.75C312.34,-102.18 302.68,-91.05 294.69,-81.84"/>
<polygon fill="#63b8ff" stroke="#63b8ff" points="297.15,-79.35 287.95,-74.09 291.87,-83.94 297.15,-79.35"/>
</g>
<!-- Node12 -->
<g id="node12" class="node">
<title>Node12</title>
<g id="a_node12"><a xlink:title=" ">
<polygon fill="#e0e0e0" stroke="#999999" points="392.5,-74 354.5,-74 354.5,-55 392.5,-55 392.5,-74"/>
<text text-anchor="middle" x="373.5" y="-62" font-family="Helvetica,sans-Serif" font-size="10.00">QDir</text>
</a>
</g>
</g>
<!-- Node6&#45;&gt;Node12 -->
<g id="edge14" class="edge">
<title>Node6&#45;&gt;Node12</title>
<path fill="none" stroke="#63b8ff" d="M334.26,-109.75C340.97,-102.18 350.84,-91.05 359.01,-81.84"/>
<polygon fill="#63b8ff" stroke="#63b8ff" points="361.87,-83.89 365.88,-74.09 356.63,-79.25 361.87,-83.89"/>
</g>
<!-- Node8 -->
<g id="node8" class="node">
<title>Node8</title>
<g id="a_node8"><a xlink:title=" ">
<polygon fill="#e0e0e0" stroke="#999999" points="492.5,-19 412.5,-19 412.5,0 492.5,0 492.5,-19"/>
<text text-anchor="middle" x="452.5" y="-7" font-family="Helvetica,sans-Serif" font-size="10.00">QStorageInfo</text>
</a>
</g>
</g>
<!-- Node7&#45;&gt;Node8 -->
<g id="edge7" class="edge">
<title>Node7&#45;&gt;Node8</title>
<path fill="none" stroke="#63b8ff" d="M450.83,-54.75C451.09,-47.8 451.47,-37.85 451.8,-29.13"/>
<polygon fill="#63b8ff" stroke="#63b8ff" points="455.3,-29.21 452.18,-19.09 448.3,-28.95 455.3,-29.21"/>
</g>
<!-- Node7&#45;&gt;Node9 -->
<g id="edge8" class="edge">
<title>Node7&#45;&gt;Node9</title>
<path fill="none" stroke="#63b8ff" d="M465.44,-54.98C480,-46.69 502.37,-33.94 519.43,-24.22"/>
<polygon fill="#63b8ff" stroke="#63b8ff" points="521.33,-27.16 528.29,-19.17 517.86,-21.08 521.33,-27.16"/>
</g>
<!-- Node10&#45;&gt;Node8 -->
<g id="edge10" class="edge">
<title>Node10&#45;&gt;Node8</title>
<path fill="none" stroke="#63b8ff" d="M528.88,-54.98C514.64,-46.69 492.75,-33.94 476.05,-24.22"/>
<polygon fill="#63b8ff" stroke="#63b8ff" points="477.79,-21.18 467.39,-19.17 474.27,-27.23 477.79,-21.18"/>
</g>
<!-- Node10&#45;&gt;Node9 -->
<g id="edge11" class="edge">
<title>Node10&#45;&gt;Node9</title>
<path fill="none" stroke="#63b8ff" d="M543.5,-54.75C543.5,-47.8 543.5,-37.85 543.5,-29.13"/>
<polygon fill="#63b8ff" stroke="#63b8ff" points="547,-29.09 543.5,-19.09 540,-29.09 547,-29.09"/>
</g>
</g>
</svg>
