<?xml version="1.0" encoding="UTF-8" standalone="no"?>
<!DOCTYPE svg PUBLIC "-//W3C//DTD SVG 1.1//EN"
 "http://www.w3.org/Graphics/SVG/1.1/DTD/svg11.dtd">
<!-- Generated by graphviz version 2.43.0 (0)
 -->
<!-- Title: src/mainwindow.cpp Pages: 1 -->
<svg width="783pt" height="192pt"
 viewBox="0.00 0.00 783.00 192.00" xmlns="http://www.w3.org/2000/svg" xmlns:xlink="http://www.w3.org/1999/xlink">
<g id="graph0" class="graph" transform="scale(1 1) rotate(0) translate(4 188)">
<title>src/mainwindow.cpp</title>
<!-- Node1 -->
<g id="node1" class="node">
<title>Node1</title>
<g id="a_node1"><a xlink:title=" ">
<polygon fill="#999999" stroke="#666666" points="525.5,-184 409.5,-184 409.5,-165 525.5,-165 525.5,-184"/>
<text text-anchor="middle" x="467.5" y="-172" font-family="Helvetica,sans-Serif" font-size="10.00">src/mainwindow.cpp</text>
</a>
</g>
</g>
<!-- Node2 -->
<g id="node2" class="node">
<title>Node2</title>
<g id="a_node2"><a xlink:href="mainwindow_8h.html" target="_top" xlink:title=" ">
<polygon fill="white" stroke="#666666" points="149,-74 62,-74 62,-55 149,-55 149,-74"/>
<text text-anchor="middle" x="105.5" y="-62" font-family="Helvetica,sans-Serif" font-size="10.00">mainwindow.h</text>
</a>
</g>
</g>
<!-- Node1&#45;&gt;Node2 -->
<g id="edge1" class="edge">
<title>Node1&#45;&gt;Node2</title>
<path fill="none" stroke="#63b8ff" d="M409.26,-167.95C359.2,-161.98 285.65,-150.33 224.5,-129 188.55,-116.46 150.26,-94.23 127.11,-79.68"/>
<polygon fill="#63b8ff" stroke="#63b8ff" points="128.76,-76.58 118.44,-74.15 124.99,-82.48 128.76,-76.58"/>
</g>
<!-- Node5 -->
<g id="node5" class="node">
<title>Node5</title>
<g id="a_node5"><a xlink:href="navpage_8h.html" target="_top" xlink:title=" ">
<polygon fill="white" stroke="#666666" points="301.5,-129 233.5,-129 233.5,-110 301.5,-110 301.5,-129"/>
<text text-anchor="middle" x="267.5" y="-117" font-family="Helvetica,sans-Serif" font-size="10.00">navpage.h</text>
</a>
</g>
</g>
<!-- Node1&#45;&gt;Node5 -->
<g id="edge4" class="edge">
<title>Node1&#45;&gt;Node5</title>
<path fill="none" stroke="#63b8ff" d="M435.37,-164.98C401.35,-155.97 347.5,-141.7 310,-131.76"/>
<polygon fill="#63b8ff" stroke="#63b8ff" points="310.45,-128.26 299.89,-129.08 308.66,-135.03 310.45,-128.26"/>
</g>
<!-- Node12 -->
<g id="node12" class="node">
<title>Node12</title>
<g id="a_node12"><a xlink:title=" ">
<polygon fill="#e0e0e0" stroke="#999999" points="421,-129 320,-129 320,-110 421,-110 421,-129"/>
<text text-anchor="middle" x="370.5" y="-117" font-family="Helvetica,sans-Serif" font-size="10.00">ui_mainwindow.h</text>
</a>
</g>
</g>
<!-- Node1&#45;&gt;Node12 -->
<g id="edge13" class="edge">
<title>Node1&#45;&gt;Node12</title>
<path fill="none" stroke="#63b8ff" d="M451.92,-164.98C436.73,-156.69 413.4,-143.94 395.6,-134.22"/>
<polygon fill="#63b8ff" stroke="#63b8ff" points="396.82,-130.89 386.37,-129.17 393.47,-137.04 396.82,-130.89"/>
</g>
<!-- Node13 -->
<g id="node13" class="node">
<title>Node13</title>
<g id="a_node13"><a xlink:title=" ">
<polygon fill="#e0e0e0" stroke="#999999" points="495.5,-129 439.5,-129 439.5,-110 495.5,-110 495.5,-129"/>
<text text-anchor="middle" x="467.5" y="-117" font-family="Helvetica,sans-Serif" font-size="10.00">QDebug</text>
</a>
</g>
</g>
<!-- Node1&#45;&gt;Node13 -->
<g id="edge14" class="edge">
<title>Node1&#45;&gt;Node13</title>
<path fill="none" stroke="#63b8ff" d="M467.5,-164.75C467.5,-157.8 467.5,-147.85 467.5,-139.13"/>
<polygon fill="#63b8ff" stroke="#63b8ff" points="471,-139.09 467.5,-129.09 464,-139.09 471,-139.09"/>
</g>
<!-- Node14 -->
<g id="node14" class="node">
<title>Node14</title>
<g id="a_node14"><a xlink:title=" ">
<polygon fill="#e0e0e0" stroke="#999999" points="577,-129 514,-129 514,-110 577,-110 577,-129"/>
<text text-anchor="middle" x="545.5" y="-117" font-family="Helvetica,sans-Serif" font-size="10.00">QLineEdit</text>
</a>
</g>
</g>
<!-- Node1&#45;&gt;Node14 -->
<g id="edge15" class="edge">
<title>Node1&#45;&gt;Node14</title>
<path fill="none" stroke="#63b8ff" d="M480.03,-164.98C491.9,-156.92 509.96,-144.65 524.11,-135.03"/>
<polygon fill="#63b8ff" stroke="#63b8ff" points="526.44,-137.69 532.74,-129.17 522.5,-131.9 526.44,-137.69"/>
</g>
<!-- Node15 -->
<g id="node15" class="node">
<title>Node15</title>
<g id="a_node15"><a xlink:title=" ">
<polygon fill="#e0e0e0" stroke="#999999" points="681.5,-129 595.5,-129 595.5,-110 681.5,-110 681.5,-129"/>
<text text-anchor="middle" x="638.5" y="-117" font-family="Helvetica,sans-Serif" font-size="10.00">QMessageBox</text>
</a>
</g>
</g>
<!-- Node1&#45;&gt;Node15 -->
<g id="edge16" class="edge">
<title>Node1&#45;&gt;Node15</title>
<path fill="none" stroke="#63b8ff" d="M494.97,-164.98C523.68,-156.09 568.92,-142.07 600.92,-132.15"/>
<polygon fill="#63b8ff" stroke="#63b8ff" points="602.3,-135.39 610.81,-129.08 600.22,-128.7 602.3,-135.39"/>
</g>
<!-- Node16 -->
<g id="node16" class="node">
<title>Node16</title>
<g id="a_node16"><a xlink:title=" ">
<polygon fill="#e0e0e0" stroke="#999999" points="775,-129 700,-129 700,-110 775,-110 775,-129"/>
<text text-anchor="middle" x="737.5" y="-117" font-family="Helvetica,sans-Serif" font-size="10.00">QTabWidget</text>
</a>
</g>
</g>
<!-- Node1&#45;&gt;Node16 -->
<g id="edge17" class="edge">
<title>Node1&#45;&gt;Node16</title>
<path fill="none" stroke="#63b8ff" d="M510.88,-164.98C559.83,-155.38 639.21,-139.79 689.85,-129.85"/>
<polygon fill="#63b8ff" stroke="#63b8ff" points="690.75,-133.24 699.89,-127.88 689.4,-126.37 690.75,-133.24"/>
</g>
<!-- Node3 -->
<g id="node3" class="node">
<title>Node3</title>
<g id="a_node3"><a xlink:title=" ">
<polygon fill="#e0e0e0" stroke="#999999" points="41,-19 0,-19 0,0 41,0 41,-19"/>
<text text-anchor="middle" x="20.5" y="-7" font-family="Helvetica,sans-Serif" font-size="10.00">QList</text>
</a>
</g>
</g>
<!-- Node2&#45;&gt;Node3 -->
<g id="edge2" class="edge">
<title>Node2&#45;&gt;Node3</title>
<path fill="none" stroke="#63b8ff" d="M91.84,-54.98C78.66,-46.77 58.47,-34.18 42.93,-24.49"/>
<polygon fill="#63b8ff" stroke="#63b8ff" points="44.74,-21.49 34.41,-19.17 41.04,-27.43 44.74,-21.49"/>
</g>
<!-- Node4 -->
<g id="node4" class="node">
<title>Node4</title>
<g id="a_node4"><a xlink:title=" ">
<polygon fill="#e0e0e0" stroke="#999999" points="146,-19 59,-19 59,0 146,0 146,-19"/>
<text text-anchor="middle" x="102.5" y="-7" font-family="Helvetica,sans-Serif" font-size="10.00">QMainWindow</text>
</a>
</g>
</g>
<!-- Node2&#45;&gt;Node4 -->
<g id="edge3" class="edge">
<title>Node2&#45;&gt;Node4</title>
<path fill="none" stroke="#63b8ff" d="M105,-54.75C104.61,-47.8 104.05,-37.85 103.55,-29.13"/>
<polygon fill="#63b8ff" stroke="#63b8ff" points="107.05,-28.88 102.99,-19.09 100.06,-29.27 107.05,-28.88"/>
</g>
<!-- Node5&#45;&gt;Node2 -->
<g id="edge8" class="edge">
<title>Node5&#45;&gt;Node2</title>
<path fill="none" stroke="#63b8ff" d="M241.47,-109.98C214.39,-101.13 171.79,-87.19 141.49,-77.28"/>
<polygon fill="#63b8ff" stroke="#63b8ff" points="142.32,-73.87 131.73,-74.08 140.15,-80.52 142.32,-73.87"/>
</g>
<!-- Node6 -->
<g id="node6" class="node">
<title>Node6</title>
<g id="a_node6"><a xlink:href="driveinfo_8h.html" target="_top" xlink:title=" ">
<polygon fill="white" stroke="#666666" points="239,-74 170,-74 170,-55 239,-55 239,-74"/>
<text text-anchor="middle" x="204.5" y="-62" font-family="Helvetica,sans-Serif" font-size="10.00">driveinfo.h</text>
</a>
</g>
</g>
<!-- Node5&#45;&gt;Node6 -->
<g id="edge5" class="edge">
<title>Node5&#45;&gt;Node6</title>
<path fill="none" stroke="#63b8ff" d="M257.38,-109.98C248.06,-102.15 234.03,-90.34 222.76,-80.86"/>
<polygon fill="#63b8ff" stroke="#63b8ff" points="224.71,-77.93 214.81,-74.17 220.21,-83.29 224.71,-77.93"/>
</g>
<!-- Node8 -->
<g id="node8" class="node">
<title>Node8</title>
<g id="a_node8"><a xlink:title=" ">
<polygon fill="#e0e0e0" stroke="#999999" points="322,-19 263,-19 263,0 322,0 322,-19"/>
<text text-anchor="middle" x="292.5" y="-7" font-family="Helvetica,sans-Serif" font-size="10.00">QWidget</text>
</a>
</g>
</g>
<!-- Node5&#45;&gt;Node8 -->
<g id="edge12" class="edge">
<title>Node5&#45;&gt;Node8</title>
<path fill="none" stroke="#63b8ff" d="M269.55,-109.66C273.61,-92.09 282.79,-52.45 288.23,-28.95"/>
<polygon fill="#63b8ff" stroke="#63b8ff" points="291.65,-29.69 290.5,-19.16 284.83,-28.11 291.65,-29.69"/>
</g>
<!-- Node9 -->
<g id="node9" class="node">
<title>Node9</title>
<g id="a_node9"><a xlink:title=" ">
<polygon fill="#e0e0e0" stroke="#999999" points="407,-74 296,-74 296,-55 407,-55 407,-74"/>
<text text-anchor="middle" x="351.5" y="-62" font-family="Helvetica,sans-Serif" font-size="10.00">QAbstractItemView</text>
</a>
</g>
</g>
<!-- Node5&#45;&gt;Node9 -->
<g id="edge9" class="edge">
<title>Node5&#45;&gt;Node9</title>
<path fill="none" stroke="#63b8ff" d="M281,-109.98C293.9,-101.84 313.6,-89.41 328.9,-79.76"/>
<polygon fill="#63b8ff" stroke="#63b8ff" points="331.17,-82.47 337.76,-74.17 327.43,-76.55 331.17,-82.47"/>
</g>
<!-- Node10 -->
<g id="node10" class="node">
<title>Node10</title>
<g id="a_node10"><a xlink:title=" ">
<polygon fill="#e0e0e0" stroke="#999999" points="463.5,-74 425.5,-74 425.5,-55 463.5,-55 463.5,-74"/>
<text text-anchor="middle" x="444.5" y="-62" font-family="Helvetica,sans-Serif" font-size="10.00">QDir</text>
</a>
</g>
</g>
<!-- Node5&#45;&gt;Node10 -->
<g id="edge10" class="edge">
<title>Node5&#45;&gt;Node10</title>
<path fill="none" stroke="#63b8ff" d="M296.35,-109.92C324.44,-101.57 368.59,-88.41 415.49,-74.29"/>
<polygon fill="#63b8ff" stroke="#63b8ff" points="416.66,-77.6 425.22,-71.36 414.64,-70.9 416.66,-77.6"/>
</g>
<!-- Node11 -->
<g id="node11" class="node">
<title>Node11</title>
<g id="a_node11"><a xlink:title=" ">
<polygon fill="#e0e0e0" stroke="#999999" points="589.5,-74 481.5,-74 481.5,-55 589.5,-55 589.5,-74"/>
<text text-anchor="middle" x="535.5" y="-62" font-family="Helvetica,sans-Serif" font-size="10.00">QFileSystemModel</text>
</a>
</g>
</g>
<!-- Node5&#45;&gt;Node11 -->
<g id="edge11" class="edge">
<title>Node5&#45;&gt;Node11</title>
<path fill="none" stroke="#63b8ff" d="M301.71,-111.73C347.32,-102.72 428.49,-86.66 482.17,-76.05"/>
<polygon fill="#63b8ff" stroke="#63b8ff" points="483.05,-79.44 492.19,-74.07 481.7,-72.57 483.05,-79.44"/>
</g>
<!-- Node7 -->
<g id="node7" class="node">
<title>Node7</title>
<g id="a_node7"><a xlink:title=" ">
<polygon fill="#e0e0e0" stroke="#999999" points="244.5,-19 164.5,-19 164.5,0 244.5,0 244.5,-19"/>
<text text-anchor="middle" x="204.5" y="-7" font-family="Helvetica,sans-Serif" font-size="10.00">QStorageInfo</text>
</a>
</g>
</g>
<!-- Node6&#45;&gt;Node7 -->
<g id="edge6" class="edge">
<title>Node6&#45;&gt;Node7</title>
<path fill="none" stroke="#63b8ff" d="M204.5,-54.75C204.5,-47.8 204.5,-37.85 204.5,-29.13"/>
<polygon fill="#63b8ff" stroke="#63b8ff" points="208,-29.09 204.5,-19.09 201,-29.09 208,-29.09"/>
</g>
<!-- Node6&#45;&gt;Node8 -->
<g id="edge7" class="edge">
<title>Node6&#45;&gt;Node8</title>
<path fill="none" stroke="#63b8ff" d="M218.64,-54.98C232.29,-46.77 253.19,-34.18 269.28,-24.49"/>
<polygon fill="#63b8ff" stroke="#63b8ff" points="271.34,-27.33 278.1,-19.17 267.73,-21.33 271.34,-27.33"/>
</g>
</g>
</svg>
