<?xml version="1.0" encoding="UTF-8" standalone="no"?>
<!DOCTYPE svg PUBLIC "-//W3C//DTD SVG 1.1//EN"
 "http://www.w3.org/Graphics/SVG/1.1/DTD/svg11.dtd">
<!-- Generated by graphviz version 2.43.0 (0)
 -->
<!-- Title: src/navpage.cpp Pages: 1 -->
<svg width="853pt" height="192pt"
 viewBox="0.00 0.00 853.00 192.00" xmlns="http://www.w3.org/2000/svg" xmlns:xlink="http://www.w3.org/1999/xlink">
<g id="graph0" class="graph" transform="scale(1 1) rotate(0) translate(4 188)">
<title>src/navpage.cpp</title>
<!-- Node1 -->
<g id="node1" class="node">
<title>Node1</title>
<g id="a_node1"><a xlink:title=" ">
<polygon fill="#999999" stroke="#666666" points="603,-184 507,-184 507,-165 603,-165 603,-184"/>
<text text-anchor="middle" x="555" y="-172" font-family="Helvetica,sans-Serif" font-size="10.00">src/navpage.cpp</text>
</a>
</g>
</g>
<!-- Node2 -->
<g id="node2" class="node">
<title>Node2</title>
<g id="a_node2"><a xlink:href="navpage_8h.html" target="_top" xlink:title=" ">
<polygon fill="white" stroke="#666666" points="304,-129 236,-129 236,-110 304,-110 304,-129"/>
<text text-anchor="middle" x="270" y="-117" font-family="Helvetica,sans-Serif" font-size="10.00">navpage.h</text>
</a>
</g>
</g>
<!-- Node1&#45;&gt;Node2 -->
<g id="edge1" class="edge">
<title>Node1&#45;&gt;Node2</title>
<path fill="none" stroke="#63b8ff" d="M507.67,-164.99C460.95,-156.55 387.23,-143.11 314.1,-129.19"/>
<polygon fill="#63b8ff" stroke="#63b8ff" points="314.74,-125.75 304.26,-127.31 313.43,-132.63 314.74,-125.75"/>
</g>
<!-- Node13 -->
<g id="node13" class="node">
<title>Node13</title>
<g id="a_node13"><a xlink:title=" ">
<polygon fill="#e0e0e0" stroke="#999999" points="404,-129 322,-129 322,-110 404,-110 404,-129"/>
<text text-anchor="middle" x="363" y="-117" font-family="Helvetica,sans-Serif" font-size="10.00">ui_navpage.h</text>
</a>
</g>
</g>
<!-- Node1&#45;&gt;Node13 -->
<g id="edge15" class="edge">
<title>Node1&#45;&gt;Node13</title>
<path fill="none" stroke="#63b8ff" d="M524.15,-164.98C491.5,-155.97 439.8,-141.7 403.8,-131.76"/>
<polygon fill="#63b8ff" stroke="#63b8ff" points="404.66,-128.37 394.09,-129.08 402.8,-135.12 404.66,-128.37"/>
</g>
<!-- Node14 -->
<g id="node14" class="node">
<title>Node14</title>
<g id="a_node14"><a xlink:title=" ">
<polygon fill="#e0e0e0" stroke="#999999" points="508,-129 422,-129 422,-110 508,-110 508,-129"/>
<text text-anchor="middle" x="465" y="-117" font-family="Helvetica,sans-Serif" font-size="10.00">QColumnView</text>
</a>
</g>
</g>
<!-- Node1&#45;&gt;Node14 -->
<g id="edge16" class="edge">
<title>Node1&#45;&gt;Node14</title>
<path fill="none" stroke="#63b8ff" d="M540.54,-164.98C526.58,-156.77 505.21,-144.18 488.75,-134.49"/>
<polygon fill="#63b8ff" stroke="#63b8ff" points="490.12,-131.23 479.72,-129.17 486.56,-137.26 490.12,-131.23"/>
</g>
<!-- Node15 -->
<g id="node15" class="node">
<title>Node15</title>
<g id="a_node15"><a xlink:title=" ">
<polygon fill="#e0e0e0" stroke="#999999" points="583.5,-129 526.5,-129 526.5,-110 583.5,-110 583.5,-129"/>
<text text-anchor="middle" x="555" y="-117" font-family="Helvetica,sans-Serif" font-size="10.00">QLayout</text>
</a>
</g>
</g>
<!-- Node1&#45;&gt;Node15 -->
<g id="edge17" class="edge">
<title>Node1&#45;&gt;Node15</title>
<path fill="none" stroke="#63b8ff" d="M555,-164.75C555,-157.8 555,-147.85 555,-139.13"/>
<polygon fill="#63b8ff" stroke="#63b8ff" points="558.5,-139.09 555,-129.09 551.5,-139.09 558.5,-139.09"/>
</g>
<!-- Node16 -->
<g id="node16" class="node">
<title>Node16</title>
<g id="a_node16"><a xlink:title=" ">
<polygon fill="#e0e0e0" stroke="#999999" points="666.5,-129 601.5,-129 601.5,-110 666.5,-110 666.5,-129"/>
<text text-anchor="middle" x="634" y="-117" font-family="Helvetica,sans-Serif" font-size="10.00">QListView</text>
</a>
</g>
</g>
<!-- Node1&#45;&gt;Node16 -->
<g id="edge18" class="edge">
<title>Node1&#45;&gt;Node16</title>
<path fill="none" stroke="#63b8ff" d="M567.69,-164.98C579.83,-156.84 598.36,-144.41 612.75,-134.76"/>
<polygon fill="#63b8ff" stroke="#63b8ff" points="614.72,-137.65 621.08,-129.17 610.82,-131.84 614.72,-137.65"/>
</g>
<!-- Node17 -->
<g id="node17" class="node">
<title>Node17</title>
<g id="a_node17"><a xlink:title=" ">
<polygon fill="#e0e0e0" stroke="#999999" points="759,-129 685,-129 685,-110 759,-110 759,-129"/>
<text text-anchor="middle" x="722" y="-117" font-family="Helvetica,sans-Serif" font-size="10.00">QTableView</text>
</a>
</g>
</g>
<!-- Node1&#45;&gt;Node17 -->
<g id="edge19" class="edge">
<title>Node1&#45;&gt;Node17</title>
<path fill="none" stroke="#63b8ff" d="M581.83,-164.98C609.87,-156.09 654.05,-142.07 685.3,-132.15"/>
<polygon fill="#63b8ff" stroke="#63b8ff" points="686.49,-135.44 694.96,-129.08 684.37,-128.77 686.49,-135.44"/>
</g>
<!-- Node18 -->
<g id="node18" class="node">
<title>Node18</title>
<g id="a_node18"><a xlink:title=" ">
<polygon fill="#e0e0e0" stroke="#999999" points="845,-129 777,-129 777,-110 845,-110 845,-129"/>
<text text-anchor="middle" x="811" y="-117" font-family="Helvetica,sans-Serif" font-size="10.00">QTreeView</text>
</a>
</g>
</g>
<!-- Node1&#45;&gt;Node18 -->
<g id="edge20" class="edge">
<title>Node1&#45;&gt;Node18</title>
<path fill="none" stroke="#63b8ff" d="M596.13,-164.98C642.88,-155.31 718.89,-139.57 766.85,-129.64"/>
<polygon fill="#63b8ff" stroke="#63b8ff" points="767.85,-133.01 776.93,-127.55 766.43,-126.15 767.85,-133.01"/>
</g>
<!-- Node3 -->
<g id="node3" class="node">
<title>Node3</title>
<g id="a_node3"><a xlink:href="diriteminfo_8h.html" target="_top" xlink:title=" ">
<polygon fill="white" stroke="#666666" points="170,-74 90,-74 90,-55 170,-55 170,-74"/>
<text text-anchor="middle" x="130" y="-62" font-family="Helvetica,sans-Serif" font-size="10.00">diriteminfo.h</text>
</a>
</g>
</g>
<!-- Node2&#45;&gt;Node3 -->
<g id="edge2" class="edge">
<title>Node2&#45;&gt;Node3</title>
<path fill="none" stroke="#63b8ff" d="M247.51,-109.98C224.48,-101.27 188.46,-87.63 162.37,-77.75"/>
<polygon fill="#63b8ff" stroke="#63b8ff" points="163.49,-74.44 152.9,-74.17 161.02,-80.98 163.49,-74.44"/>
</g>
<!-- Node5 -->
<g id="node5" class="node">
<title>Node5</title>
<g id="a_node5"><a xlink:title=" ">
<polygon fill="#e0e0e0" stroke="#999999" points="159.5,-19 100.5,-19 100.5,0 159.5,0 159.5,-19"/>
<text text-anchor="middle" x="130" y="-7" font-family="Helvetica,sans-Serif" font-size="10.00">QWidget</text>
</a>
</g>
</g>
<!-- Node2&#45;&gt;Node5 -->
<g id="edge14" class="edge">
<title>Node2&#45;&gt;Node5</title>
<path fill="none" stroke="#63b8ff" d="M258.54,-109.66C234.53,-91.14 178.71,-48.08 149.15,-25.28"/>
<polygon fill="#63b8ff" stroke="#63b8ff" points="151.28,-22.5 141.22,-19.16 147,-28.04 151.28,-22.5"/>
</g>
<!-- Node6 -->
<g id="node6" class="node">
<title>Node6</title>
<g id="a_node6"><a xlink:href="driveinfo_8h.html" target="_top" xlink:title=" ">
<polygon fill="white" stroke="#666666" points="71.5,-74 2.5,-74 2.5,-55 71.5,-55 71.5,-74"/>
<text text-anchor="middle" x="37" y="-62" font-family="Helvetica,sans-Serif" font-size="10.00">driveinfo.h</text>
</a>
</g>
</g>
<!-- Node2&#45;&gt;Node6 -->
<g id="edge5" class="edge">
<title>Node2&#45;&gt;Node6</title>
<path fill="none" stroke="#63b8ff" d="M235.62,-110.68C194.66,-101.36 126.16,-85.78 81.28,-75.57"/>
<polygon fill="#63b8ff" stroke="#63b8ff" points="82.05,-72.16 71.52,-73.35 80.5,-78.98 82.05,-72.16"/>
</g>
<!-- Node7 -->
<g id="node7" class="node">
<title>Node7</title>
<g id="a_node7"><a xlink:href="mainwindow_8h.html" target="_top" xlink:title=" ">
<polygon fill="white" stroke="#666666" points="313.5,-74 226.5,-74 226.5,-55 313.5,-55 313.5,-74"/>
<text text-anchor="middle" x="270" y="-62" font-family="Helvetica,sans-Serif" font-size="10.00">mainwindow.h</text>
</a>
</g>
</g>
<!-- Node2&#45;&gt;Node7 -->
<g id="edge8" class="edge">
<title>Node2&#45;&gt;Node7</title>
<path fill="none" stroke="#63b8ff" d="M270,-109.75C270,-102.8 270,-92.85 270,-84.13"/>
<polygon fill="#63b8ff" stroke="#63b8ff" points="273.5,-84.09 270,-74.09 266.5,-84.09 273.5,-84.09"/>
</g>
<!-- Node10 -->
<g id="node10" class="node">
<title>Node10</title>
<g id="a_node10"><a xlink:title=" ">
<polygon fill="#e0e0e0" stroke="#999999" points="442.5,-74 331.5,-74 331.5,-55 442.5,-55 442.5,-74"/>
<text text-anchor="middle" x="387" y="-62" font-family="Helvetica,sans-Serif" font-size="10.00">QAbstractItemView</text>
</a>
</g>
</g>
<!-- Node2&#45;&gt;Node10 -->
<g id="edge11" class="edge">
<title>Node2&#45;&gt;Node10</title>
<path fill="none" stroke="#63b8ff" d="M288.8,-109.98C307.62,-101.46 336.82,-88.23 358.5,-78.41"/>
<polygon fill="#63b8ff" stroke="#63b8ff" points="360.2,-81.48 367.86,-74.17 357.31,-75.11 360.2,-81.48"/>
</g>
<!-- Node11 -->
<g id="node11" class="node">
<title>Node11</title>
<g id="a_node11"><a xlink:title=" ">
<polygon fill="#e0e0e0" stroke="#999999" points="499,-74 461,-74 461,-55 499,-55 499,-74"/>
<text text-anchor="middle" x="480" y="-62" font-family="Helvetica,sans-Serif" font-size="10.00">QDir</text>
</a>
</g>
</g>
<!-- Node2&#45;&gt;Node11 -->
<g id="edge12" class="edge">
<title>Node2&#45;&gt;Node11</title>
<path fill="none" stroke="#63b8ff" d="M304.02,-110.77C338.69,-102.76 394.21,-89.59 450.91,-74.19"/>
<polygon fill="#63b8ff" stroke="#63b8ff" points="452.04,-77.51 460.76,-71.49 450.19,-70.76 452.04,-77.51"/>
</g>
<!-- Node12 -->
<g id="node12" class="node">
<title>Node12</title>
<g id="a_node12"><a xlink:title=" ">
<polygon fill="#e0e0e0" stroke="#999999" points="625,-74 517,-74 517,-55 625,-55 625,-74"/>
<text text-anchor="middle" x="571" y="-62" font-family="Helvetica,sans-Serif" font-size="10.00">QFileSystemModel</text>
</a>
</g>
</g>
<!-- Node2&#45;&gt;Node12 -->
<g id="edge13" class="edge">
<title>Node2&#45;&gt;Node12</title>
<path fill="none" stroke="#63b8ff" d="M304.25,-111.65C307.21,-111.08 310.16,-110.53 313,-110 379.83,-97.63 456.61,-84.53 508.92,-75.77"/>
<polygon fill="#63b8ff" stroke="#63b8ff" points="509.76,-79.18 519.05,-74.08 508.61,-72.28 509.76,-79.18"/>
</g>
<!-- Node4 -->
<g id="node4" class="node">
<title>Node4</title>
<g id="a_node4"><a xlink:title=" ">
<polygon fill="#e0e0e0" stroke="#999999" points="80,-19 0,-19 0,0 80,0 80,-19"/>
<text text-anchor="middle" x="40" y="-7" font-family="Helvetica,sans-Serif" font-size="10.00">QStorageInfo</text>
</a>
</g>
</g>
<!-- Node3&#45;&gt;Node4 -->
<g id="edge3" class="edge">
<title>Node3&#45;&gt;Node4</title>
<path fill="none" stroke="#63b8ff" d="M115.54,-54.98C101.58,-46.77 80.21,-34.18 63.75,-24.49"/>
<polygon fill="#63b8ff" stroke="#63b8ff" points="65.12,-21.23 54.72,-19.17 61.56,-27.26 65.12,-21.23"/>
</g>
<!-- Node3&#45;&gt;Node5 -->
<g id="edge4" class="edge">
<title>Node3&#45;&gt;Node5</title>
<path fill="none" stroke="#63b8ff" d="M130,-54.75C130,-47.8 130,-37.85 130,-29.13"/>
<polygon fill="#63b8ff" stroke="#63b8ff" points="133.5,-29.09 130,-19.09 126.5,-29.09 133.5,-29.09"/>
</g>
<!-- Node6&#45;&gt;Node4 -->
<g id="edge6" class="edge">
<title>Node6&#45;&gt;Node4</title>
<path fill="none" stroke="#63b8ff" d="M37.5,-54.75C37.89,-47.8 38.45,-37.85 38.95,-29.13"/>
<polygon fill="#63b8ff" stroke="#63b8ff" points="42.44,-29.27 39.51,-19.09 35.45,-28.88 42.44,-29.27"/>
</g>
<!-- Node6&#45;&gt;Node5 -->
<g id="edge7" class="edge">
<title>Node6&#45;&gt;Node5</title>
<path fill="none" stroke="#63b8ff" d="M51.94,-54.98C66.5,-46.69 88.87,-33.94 105.93,-24.22"/>
<polygon fill="#63b8ff" stroke="#63b8ff" points="107.83,-27.16 114.79,-19.17 104.36,-21.08 107.83,-27.16"/>
</g>
<!-- Node8 -->
<g id="node8" class="node">
<title>Node8</title>
<g id="a_node8"><a xlink:title=" ">
<polygon fill="#e0e0e0" stroke="#999999" points="254.5,-19 213.5,-19 213.5,0 254.5,0 254.5,-19"/>
<text text-anchor="middle" x="234" y="-7" font-family="Helvetica,sans-Serif" font-size="10.00">QList</text>
</a>
</g>
</g>
<!-- Node7&#45;&gt;Node8 -->
<g id="edge9" class="edge">
<title>Node7&#45;&gt;Node8</title>
<path fill="none" stroke="#63b8ff" d="M264.06,-54.75C259.02,-47.34 251.66,-36.5 245.49,-27.41"/>
<polygon fill="#63b8ff" stroke="#63b8ff" points="248.35,-25.39 239.83,-19.09 242.56,-29.33 248.35,-25.39"/>
</g>
<!-- Node9 -->
<g id="node9" class="node">
<title>Node9</title>
<g id="a_node9"><a xlink:title=" ">
<polygon fill="#e0e0e0" stroke="#999999" points="359.5,-19 272.5,-19 272.5,0 359.5,0 359.5,-19"/>
<text text-anchor="middle" x="316" y="-7" font-family="Helvetica,sans-Serif" font-size="10.00">QMainWindow</text>
</a>
</g>
</g>
<!-- Node7&#45;&gt;Node9 -->
<g id="edge10" class="edge">
<title>Node7&#45;&gt;Node9</title>
<path fill="none" stroke="#63b8ff" d="M277.6,-54.75C284.16,-47.18 293.82,-36.05 301.81,-26.84"/>
<polygon fill="#63b8ff" stroke="#63b8ff" points="304.63,-28.94 308.55,-19.09 299.35,-24.35 304.63,-28.94"/>
</g>
</g>
</svg>
