<?xml version="1.0" encoding="UTF-8" standalone="no"?>
<!DOCTYPE svg PUBLIC "-//W3C//DTD SVG 1.1//EN"
 "http://www.w3.org/Graphics/SVG/1.1/DTD/svg11.dtd">
<!-- Generated by graphviz version 2.43.0 (0)
 -->
<!-- Title: src/navpage.h Pages: 1 -->
<svg width="484pt" height="137pt"
 viewBox="0.00 0.00 484.00 137.00" xmlns="http://www.w3.org/2000/svg" xmlns:xlink="http://www.w3.org/1999/xlink">
<g id="graph0" class="graph" transform="scale(1 1) rotate(0) translate(4 133)">
<title>src/navpage.h</title>
<!-- Node1 -->
<g id="node1" class="node">
<title>Node1</title>
<g id="a_node1"><a xlink:title=" ">
<polygon fill="#999999" stroke="#666666" points="296,-129 211,-129 211,-110 296,-110 296,-129"/>
<text text-anchor="middle" x="253.5" y="-117" font-family="Helvetica,sans-Serif" font-size="10.00">src/navpage.h</text>
</a>
</g>
</g>
<!-- Node2 -->
<g id="node2" class="node">
<title>Node2</title>
<g id="a_node2"><a xlink:href="mainwindow_8h.html" target="_top" xlink:title=" ">
<polygon fill="white" stroke="#666666" points="87,-74 0,-74 0,-55 87,-55 87,-74"/>
<text text-anchor="middle" x="43.5" y="-62" font-family="Helvetica,sans-Serif" font-size="10.00">mainwindow.h</text>
</a>
</g>
</g>
<!-- Node1&#45;&gt;Node2 -->
<g id="edge1" class="edge">
<title>Node1&#45;&gt;Node2</title>
<path fill="none" stroke="#63b8ff" d="M219.76,-109.98C183.82,-100.91 126.78,-86.52 87.37,-76.57"/>
<polygon fill="#63b8ff" stroke="#63b8ff" points="88.06,-73.14 77.5,-74.08 86.34,-79.92 88.06,-73.14"/>
</g>
<!-- Node4 -->
<g id="node4" class="node">
<title>Node4</title>
<g id="a_node4"><a xlink:title=" ">
<polygon fill="#e0e0e0" stroke="#999999" points="216,-74 105,-74 105,-55 216,-55 216,-74"/>
<text text-anchor="middle" x="160.5" y="-62" font-family="Helvetica,sans-Serif" font-size="10.00">QAbstractItemView</text>
</a>
</g>
</g>
<!-- Node1&#45;&gt;Node4 -->
<g id="edge3" class="edge">
<title>Node1&#45;&gt;Node4</title>
<path fill="none" stroke="#63b8ff" d="M238.56,-109.98C224,-101.69 201.63,-88.94 184.57,-79.22"/>
<polygon fill="#63b8ff" stroke="#63b8ff" points="186.14,-76.08 175.71,-74.17 182.67,-82.16 186.14,-76.08"/>
</g>
<!-- Node5 -->
<g id="node5" class="node">
<title>Node5</title>
<g id="a_node5"><a xlink:title=" ">
<polygon fill="#e0e0e0" stroke="#999999" points="272.5,-74 234.5,-74 234.5,-55 272.5,-55 272.5,-74"/>
<text text-anchor="middle" x="253.5" y="-62" font-family="Helvetica,sans-Serif" font-size="10.00">QDir</text>
</a>
</g>
</g>
<!-- Node1&#45;&gt;Node5 -->
<g id="edge4" class="edge">
<title>Node1&#45;&gt;Node5</title>
<path fill="none" stroke="#63b8ff" d="M253.5,-109.75C253.5,-102.8 253.5,-92.85 253.5,-84.13"/>
<polygon fill="#63b8ff" stroke="#63b8ff" points="257,-84.09 253.5,-74.09 250,-84.09 257,-84.09"/>
</g>
<!-- Node6 -->
<g id="node6" class="node">
<title>Node6</title>
<g id="a_node6"><a xlink:title=" ">
<polygon fill="#e0e0e0" stroke="#999999" points="398.5,-74 290.5,-74 290.5,-55 398.5,-55 398.5,-74"/>
<text text-anchor="middle" x="344.5" y="-62" font-family="Helvetica,sans-Serif" font-size="10.00">QFileSystemModel</text>
</a>
</g>
</g>
<!-- Node1&#45;&gt;Node6 -->
<g id="edge5" class="edge">
<title>Node1&#45;&gt;Node6</title>
<path fill="none" stroke="#63b8ff" d="M268.12,-109.98C282.36,-101.69 304.25,-88.94 320.95,-79.22"/>
<polygon fill="#63b8ff" stroke="#63b8ff" points="322.73,-82.23 329.61,-74.17 319.21,-76.18 322.73,-82.23"/>
</g>
<!-- Node7 -->
<g id="node7" class="node">
<title>Node7</title>
<g id="a_node7"><a xlink:title=" ">
<polygon fill="#e0e0e0" stroke="#999999" points="476,-74 417,-74 417,-55 476,-55 476,-74"/>
<text text-anchor="middle" x="446.5" y="-62" font-family="Helvetica,sans-Serif" font-size="10.00">QWidget</text>
</a>
</g>
</g>
<!-- Node1&#45;&gt;Node7 -->
<g id="edge6" class="edge">
<title>Node1&#45;&gt;Node7</title>
<path fill="none" stroke="#63b8ff" d="M284.51,-109.98C317.82,-100.84 370.84,-86.28 407.09,-76.32"/>
<polygon fill="#63b8ff" stroke="#63b8ff" points="408.12,-79.67 416.84,-73.65 406.27,-72.92 408.12,-79.67"/>
</g>
<!-- Node3 -->
<g id="node3" class="node">
<title>Node3</title>
<g id="a_node3"><a xlink:title=" ">
<polygon fill="#e0e0e0" stroke="#999999" points="87,-19 0,-19 0,0 87,0 87,-19"/>
<text text-anchor="middle" x="43.5" y="-7" font-family="Helvetica,sans-Serif" font-size="10.00">QMainWindow</text>
</a>
</g>
</g>
<!-- Node2&#45;&gt;Node3 -->
<g id="edge2" class="edge">
<title>Node2&#45;&gt;Node3</title>
<path fill="none" stroke="#63b8ff" d="M43.5,-54.75C43.5,-47.8 43.5,-37.85 43.5,-29.13"/>
<polygon fill="#63b8ff" stroke="#63b8ff" points="47,-29.09 43.5,-19.09 40,-29.09 47,-29.09"/>
</g>
</g>
</svg>
