<?xml version="1.0" encoding="UTF-8" standalone="no"?>
<!DOCTYPE svg PUBLIC "-//W3C//DTD SVG 1.1//EN"
 "http://www.w3.org/Graphics/SVG/1.1/DTD/svg11.dtd">
<!-- Generated by graphviz version 2.43.0 (0)
 -->
<!-- Title: src/navpage.cpp Pages: 1 -->
<svg width="819pt" height="192pt"
 viewBox="0.00 0.00 819.00 192.00" xmlns="http://www.w3.org/2000/svg" xmlns:xlink="http://www.w3.org/1999/xlink">
<g id="graph0" class="graph" transform="scale(1 1) rotate(0) translate(4 188)">
<title>src/navpage.cpp</title>
<!-- Node1 -->
<g id="node1" class="node">
<title>Node1</title>
<g id="a_node1"><a xlink:title=" ">
<polygon fill="#999999" stroke="#666666" points="569,-184 473,-184 473,-165 569,-165 569,-184"/>
<text text-anchor="middle" x="521" y="-172" font-family="Helvetica,sans-Serif" font-size="10.00">src/navpage.cpp</text>
</a>
</g>
</g>
<!-- Node2 -->
<g id="node2" class="node">
<title>Node2</title>
<g id="a_node2"><a xlink:href="navpage_8h.html" target="_top" xlink:title=" ">
<polygon fill="white" stroke="#666666" points="270,-129 202,-129 202,-110 270,-110 270,-129"/>
<text text-anchor="middle" x="236" y="-117" font-family="Helvetica,sans-Serif" font-size="10.00">navpage.h</text>
</a>
</g>
</g>
<!-- Node1&#45;&gt;Node2 -->
<g id="edge1" class="edge">
<title>Node1&#45;&gt;Node2</title>
<path fill="none" stroke="#63b8ff" d="M473.67,-164.99C426.95,-156.55 353.23,-143.11 280.1,-129.19"/>
<polygon fill="#63b8ff" stroke="#63b8ff" points="280.74,-125.75 270.26,-127.31 279.43,-132.63 280.74,-125.75"/>
</g>
<!-- Node13 -->
<g id="node13" class="node">
<title>Node13</title>
<g id="a_node13"><a xlink:title=" ">
<polygon fill="#e0e0e0" stroke="#999999" points="370,-129 288,-129 288,-110 370,-110 370,-129"/>
<text text-anchor="middle" x="329" y="-117" font-family="Helvetica,sans-Serif" font-size="10.00">ui_navpage.h</text>
</a>
</g>
</g>
<!-- Node1&#45;&gt;Node13 -->
<g id="edge16" class="edge">
<title>Node1&#45;&gt;Node13</title>
<path fill="none" stroke="#63b8ff" d="M490.15,-164.98C457.5,-155.97 405.8,-141.7 369.8,-131.76"/>
<polygon fill="#63b8ff" stroke="#63b8ff" points="370.66,-128.37 360.09,-129.08 368.8,-135.12 370.66,-128.37"/>
</g>
<!-- Node14 -->
<g id="node14" class="node">
<title>Node14</title>
<g id="a_node14"><a xlink:title=" ">
<polygon fill="#e0e0e0" stroke="#999999" points="474,-129 388,-129 388,-110 474,-110 474,-129"/>
<text text-anchor="middle" x="431" y="-117" font-family="Helvetica,sans-Serif" font-size="10.00">QColumnView</text>
</a>
</g>
</g>
<!-- Node1&#45;&gt;Node14 -->
<g id="edge17" class="edge">
<title>Node1&#45;&gt;Node14</title>
<path fill="none" stroke="#63b8ff" d="M506.54,-164.98C492.58,-156.77 471.21,-144.18 454.75,-134.49"/>
<polygon fill="#63b8ff" stroke="#63b8ff" points="456.12,-131.23 445.72,-129.17 452.56,-137.26 456.12,-131.23"/>
</g>
<!-- Node15 -->
<g id="node15" class="node">
<title>Node15</title>
<g id="a_node15"><a xlink:title=" ">
<polygon fill="#e0e0e0" stroke="#999999" points="549.5,-129 492.5,-129 492.5,-110 549.5,-110 549.5,-129"/>
<text text-anchor="middle" x="521" y="-117" font-family="Helvetica,sans-Serif" font-size="10.00">QLayout</text>
</a>
</g>
</g>
<!-- Node1&#45;&gt;Node15 -->
<g id="edge18" class="edge">
<title>Node1&#45;&gt;Node15</title>
<path fill="none" stroke="#63b8ff" d="M521,-164.75C521,-157.8 521,-147.85 521,-139.13"/>
<polygon fill="#63b8ff" stroke="#63b8ff" points="524.5,-139.09 521,-129.09 517.5,-139.09 524.5,-139.09"/>
</g>
<!-- Node16 -->
<g id="node16" class="node">
<title>Node16</title>
<g id="a_node16"><a xlink:title=" ">
<polygon fill="#e0e0e0" stroke="#999999" points="632.5,-129 567.5,-129 567.5,-110 632.5,-110 632.5,-129"/>
<text text-anchor="middle" x="600" y="-117" font-family="Helvetica,sans-Serif" font-size="10.00">QListView</text>
</a>
</g>
</g>
<!-- Node1&#45;&gt;Node16 -->
<g id="edge19" class="edge">
<title>Node1&#45;&gt;Node16</title>
<path fill="none" stroke="#63b8ff" d="M533.69,-164.98C545.83,-156.84 564.36,-144.41 578.75,-134.76"/>
<polygon fill="#63b8ff" stroke="#63b8ff" points="580.72,-137.65 587.08,-129.17 576.82,-131.84 580.72,-137.65"/>
</g>
<!-- Node17 -->
<g id="node17" class="node">
<title>Node17</title>
<g id="a_node17"><a xlink:title=" ">
<polygon fill="#e0e0e0" stroke="#999999" points="725,-129 651,-129 651,-110 725,-110 725,-129"/>
<text text-anchor="middle" x="688" y="-117" font-family="Helvetica,sans-Serif" font-size="10.00">QTableView</text>
</a>
</g>
</g>
<!-- Node1&#45;&gt;Node17 -->
<g id="edge20" class="edge">
<title>Node1&#45;&gt;Node17</title>
<path fill="none" stroke="#63b8ff" d="M547.83,-164.98C575.87,-156.09 620.05,-142.07 651.3,-132.15"/>
<polygon fill="#63b8ff" stroke="#63b8ff" points="652.49,-135.44 660.96,-129.08 650.37,-128.77 652.49,-135.44"/>
</g>
<!-- Node18 -->
<g id="node18" class="node">
<title>Node18</title>
<g id="a_node18"><a xlink:title=" ">
<polygon fill="#e0e0e0" stroke="#999999" points="811,-129 743,-129 743,-110 811,-110 811,-129"/>
<text text-anchor="middle" x="777" y="-117" font-family="Helvetica,sans-Serif" font-size="10.00">QTreeView</text>
</a>
</g>
</g>
<!-- Node1&#45;&gt;Node18 -->
<g id="edge21" class="edge">
<title>Node1&#45;&gt;Node18</title>
<path fill="none" stroke="#63b8ff" d="M562.13,-164.98C608.88,-155.31 684.89,-139.57 732.85,-129.64"/>
<polygon fill="#63b8ff" stroke="#63b8ff" points="733.85,-133.01 742.93,-127.55 732.43,-126.15 733.85,-133.01"/>
</g>
<!-- Node3 -->
<g id="node3" class="node">
<title>Node3</title>
<g id="a_node3"><a xlink:href="diriteminfo_8h.html" target="_top" xlink:title=" ">
<polygon fill="white" stroke="#666666" points="170,-74 90,-74 90,-55 170,-55 170,-74"/>
<text text-anchor="middle" x="130" y="-62" font-family="Helvetica,sans-Serif" font-size="10.00">diriteminfo.h</text>
</a>
</g>
</g>
<!-- Node2&#45;&gt;Node3 -->
<g id="edge2" class="edge">
<title>Node2&#45;&gt;Node3</title>
<path fill="none" stroke="#63b8ff" d="M218.97,-109.98C202.07,-101.54 175.94,-88.47 156.36,-78.68"/>
<polygon fill="#63b8ff" stroke="#63b8ff" points="157.85,-75.51 147.34,-74.17 154.72,-81.77 157.85,-75.51"/>
</g>
<!-- Node5 -->
<g id="node5" class="node">
<title>Node5</title>
<g id="a_node5"><a xlink:title=" ">
<polygon fill="#e0e0e0" stroke="#999999" points="159.5,-19 100.5,-19 100.5,0 159.5,0 159.5,-19"/>
<text text-anchor="middle" x="130" y="-7" font-family="Helvetica,sans-Serif" font-size="10.00">QWidget</text>
</a>
</g>
</g>
<!-- Node2&#45;&gt;Node5 -->
<g id="edge15" class="edge">
<title>Node2&#45;&gt;Node5</title>
<path fill="none" stroke="#63b8ff" d="M228.53,-109.62C217.89,-97.09 197.59,-73.7 179,-55 168.97,-44.92 157.19,-34.18 147.69,-25.78"/>
<polygon fill="#63b8ff" stroke="#63b8ff" points="149.86,-23.03 140.03,-19.08 145.25,-28.3 149.86,-23.03"/>
</g>
<!-- Node6 -->
<g id="node6" class="node">
<title>Node6</title>
<g id="a_node6"><a xlink:href="driveinfo_8h.html" target="_top" xlink:title=" ">
<polygon fill="white" stroke="#666666" points="71.5,-74 2.5,-74 2.5,-55 71.5,-55 71.5,-74"/>
<text text-anchor="middle" x="37" y="-62" font-family="Helvetica,sans-Serif" font-size="10.00">driveinfo.h</text>
</a>
</g>
</g>
<!-- Node2&#45;&gt;Node6 -->
<g id="edge5" class="edge">
<title>Node2&#45;&gt;Node6</title>
<path fill="none" stroke="#63b8ff" d="M204.03,-109.98C170.18,-100.97 116.6,-86.7 79.29,-76.76"/>
<polygon fill="#63b8ff" stroke="#63b8ff" points="79.79,-73.27 69.22,-74.08 77.99,-80.04 79.79,-73.27"/>
</g>
<!-- Node7 -->
<g id="node7" class="node">
<title>Node7</title>
<g id="a_node7"><a xlink:href="mainwindow_8h.html" target="_top" xlink:title=" ">
<polygon fill="white" stroke="#666666" points="351.5,-74 264.5,-74 264.5,-55 351.5,-55 351.5,-74"/>
<text text-anchor="middle" x="308" y="-62" font-family="Helvetica,sans-Serif" font-size="10.00">mainwindow.h</text>
</a>
</g>
</g>
<!-- Node2&#45;&gt;Node7 -->
<g id="edge8" class="edge">
<title>Node2&#45;&gt;Node7</title>
<path fill="none" stroke="#63b8ff" d="M247.57,-109.98C258.42,-102 274.88,-89.88 287.88,-80.31"/>
<polygon fill="#63b8ff" stroke="#63b8ff" points="290.24,-82.92 296.22,-74.17 286.09,-77.28 290.24,-82.92"/>
</g>
<!-- Node8 -->
<g id="node8" class="node">
<title>Node8</title>
<g id="a_node8"><a xlink:title=" ">
<polygon fill="#e0e0e0" stroke="#999999" points="288,-19 180,-19 180,0 288,0 288,-19"/>
<text text-anchor="middle" x="234" y="-7" font-family="Helvetica,sans-Serif" font-size="10.00">QFileSystemModel</text>
</a>
</g>
</g>
<!-- Node2&#45;&gt;Node8 -->
<g id="edge14" class="edge">
<title>Node2&#45;&gt;Node8</title>
<path fill="none" stroke="#63b8ff" d="M235.84,-109.66C235.51,-92.17 234.78,-52.8 234.35,-29.27"/>
<polygon fill="#63b8ff" stroke="#63b8ff" points="237.84,-29.09 234.16,-19.16 230.85,-29.22 237.84,-29.09"/>
</g>
<!-- Node11 -->
<g id="node11" class="node">
<title>Node11</title>
<g id="a_node11"><a xlink:title=" ">
<polygon fill="#e0e0e0" stroke="#999999" points="480.5,-74 369.5,-74 369.5,-55 480.5,-55 480.5,-74"/>
<text text-anchor="middle" x="425" y="-62" font-family="Helvetica,sans-Serif" font-size="10.00">QAbstractItemView</text>
</a>
</g>
</g>
<!-- Node2&#45;&gt;Node11 -->
<g id="edge12" class="edge">
<title>Node2&#45;&gt;Node11</title>
<path fill="none" stroke="#63b8ff" d="M266.37,-109.98C298.37,-101.01 348.96,-86.82 384.38,-76.89"/>
<polygon fill="#63b8ff" stroke="#63b8ff" points="385.71,-80.15 394.4,-74.08 383.82,-73.41 385.71,-80.15"/>
</g>
<!-- Node12 -->
<g id="node12" class="node">
<title>Node12</title>
<g id="a_node12"><a xlink:title=" ">
<polygon fill="#e0e0e0" stroke="#999999" points="537,-74 499,-74 499,-55 537,-55 537,-74"/>
<text text-anchor="middle" x="518" y="-62" font-family="Helvetica,sans-Serif" font-size="10.00">QDir</text>
</a>
</g>
</g>
<!-- Node2&#45;&gt;Node12 -->
<g id="edge13" class="edge">
<title>Node2&#45;&gt;Node12</title>
<path fill="none" stroke="#63b8ff" d="M270.25,-111.65C273.21,-111.08 276.16,-110.52 279,-110 369.45,-93.35 395.69,-95.68 488.95,-73.99"/>
<polygon fill="#63b8ff" stroke="#63b8ff" points="489.88,-77.37 498.81,-71.67 488.27,-70.56 489.88,-77.37"/>
</g>
<!-- Node4 -->
<g id="node4" class="node">
<title>Node4</title>
<g id="a_node4"><a xlink:title=" ">
<polygon fill="#e0e0e0" stroke="#999999" points="80,-19 0,-19 0,0 80,0 80,-19"/>
<text text-anchor="middle" x="40" y="-7" font-family="Helvetica,sans-Serif" font-size="10.00">QStorageInfo</text>
</a>
</g>
</g>
<!-- Node3&#45;&gt;Node4 -->
<g id="edge3" class="edge">
<title>Node3&#45;&gt;Node4</title>
<path fill="none" stroke="#63b8ff" d="M115.54,-54.98C101.58,-46.77 80.21,-34.18 63.75,-24.49"/>
<polygon fill="#63b8ff" stroke="#63b8ff" points="65.12,-21.23 54.72,-19.17 61.56,-27.26 65.12,-21.23"/>
</g>
<!-- Node3&#45;&gt;Node5 -->
<g id="edge4" class="edge">
<title>Node3&#45;&gt;Node5</title>
<path fill="none" stroke="#63b8ff" d="M130,-54.75C130,-47.8 130,-37.85 130,-29.13"/>
<polygon fill="#63b8ff" stroke="#63b8ff" points="133.5,-29.09 130,-19.09 126.5,-29.09 133.5,-29.09"/>
</g>
<!-- Node6&#45;&gt;Node4 -->
<g id="edge6" class="edge">
<title>Node6&#45;&gt;Node4</title>
<path fill="none" stroke="#63b8ff" d="M37.5,-54.75C37.89,-47.8 38.45,-37.85 38.95,-29.13"/>
<polygon fill="#63b8ff" stroke="#63b8ff" points="42.44,-29.27 39.51,-19.09 35.45,-28.88 42.44,-29.27"/>
</g>
<!-- Node6&#45;&gt;Node5 -->
<g id="edge7" class="edge">
<title>Node6&#45;&gt;Node5</title>
<path fill="none" stroke="#63b8ff" d="M51.94,-54.98C66.5,-46.69 88.87,-33.94 105.93,-24.22"/>
<polygon fill="#63b8ff" stroke="#63b8ff" points="107.83,-27.16 114.79,-19.17 104.36,-21.08 107.83,-27.16"/>
</g>
<!-- Node7&#45;&gt;Node8 -->
<g id="edge9" class="edge">
<title>Node7&#45;&gt;Node8</title>
<path fill="none" stroke="#63b8ff" d="M296.11,-54.98C284.85,-46.92 267.71,-34.65 254.29,-25.03"/>
<polygon fill="#63b8ff" stroke="#63b8ff" points="256.27,-22.15 246.11,-19.17 252.2,-27.84 256.27,-22.15"/>
</g>
<!-- Node9 -->
<g id="node9" class="node">
<title>Node9</title>
<g id="a_node9"><a xlink:title=" ">
<polygon fill="#e0e0e0" stroke="#999999" points="452.5,-19 411.5,-19 411.5,0 452.5,0 452.5,-19"/>
<text text-anchor="middle" x="432" y="-7" font-family="Helvetica,sans-Serif" font-size="10.00">QList</text>
</a>
</g>
</g>
<!-- Node7&#45;&gt;Node9 -->
<g id="edge10" class="edge">
<title>Node7&#45;&gt;Node9</title>
<path fill="none" stroke="#63b8ff" d="M327.92,-54.98C348.05,-46.38 379.38,-32.99 402.41,-23.15"/>
<polygon fill="#63b8ff" stroke="#63b8ff" points="403.9,-26.32 411.71,-19.17 401.14,-19.88 403.9,-26.32"/>
</g>
<!-- Node10 -->
<g id="node10" class="node">
<title>Node10</title>
<g id="a_node10"><a xlink:title=" ">
<polygon fill="#e0e0e0" stroke="#999999" points="393.5,-19 306.5,-19 306.5,0 393.5,0 393.5,-19"/>
<text text-anchor="middle" x="350" y="-7" font-family="Helvetica,sans-Serif" font-size="10.00">QMainWindow</text>
</a>
</g>
</g>
<!-- Node7&#45;&gt;Node10 -->
<g id="edge11" class="edge">
<title>Node7&#45;&gt;Node10</title>
<path fill="none" stroke="#63b8ff" d="M314.94,-54.75C320.87,-47.26 329.57,-36.28 336.82,-27.13"/>
<polygon fill="#63b8ff" stroke="#63b8ff" points="339.73,-29.1 343.19,-19.09 334.24,-24.75 339.73,-29.1"/>
</g>
</g>
</svg>
