<?xml version="1.0" encoding="UTF-8" standalone="no"?>
<!DOCTYPE svg PUBLIC "-//W3C//DTD SVG 1.1//EN"
 "http://www.w3.org/Graphics/SVG/1.1/DTD/svg11.dtd">
<!-- Generated by graphviz version 2.43.0 (0)
 -->
<!-- Title: src/navpage.cpp Pages: 1 -->
<svg width="850pt" height="192pt"
 viewBox="0.00 0.00 850.00 192.00" xmlns="http://www.w3.org/2000/svg" xmlns:xlink="http://www.w3.org/1999/xlink">
<g id="graph0" class="graph" transform="scale(1 1) rotate(0) translate(4 188)">
<title>src/navpage.cpp</title>
<!-- Node1 -->
<g id="node1" class="node">
<title>Node1</title>
<g id="a_node1"><a xlink:title=" ">
<polygon fill="#999999" stroke="#666666" points="600,-184 504,-184 504,-165 600,-165 600,-184"/>
<text text-anchor="middle" x="552" y="-172" font-family="Helvetica,sans-Serif" font-size="10.00">src/navpage.cpp</text>
</a>
</g>
</g>
<!-- Node2 -->
<g id="node2" class="node">
<title>Node2</title>
<g id="a_node2"><a xlink:href="navpage_8h.html" target="_top" xlink:title=" ">
<polygon fill="white" stroke="#666666" points="301,-129 233,-129 233,-110 301,-110 301,-129"/>
<text text-anchor="middle" x="267" y="-117" font-family="Helvetica,sans-Serif" font-size="10.00">navpage.h</text>
</a>
</g>
</g>
<!-- Node1&#45;&gt;Node2 -->
<g id="edge1" class="edge">
<title>Node1&#45;&gt;Node2</title>
<path fill="none" stroke="#63b8ff" d="M504.67,-164.99C457.95,-156.55 384.23,-143.11 311.1,-129.19"/>
<polygon fill="#63b8ff" stroke="#63b8ff" points="311.74,-125.75 301.26,-127.31 310.43,-132.63 311.74,-125.75"/>
</g>
<!-- Node11 -->
<g id="node11" class="node">
<title>Node11</title>
<g id="a_node11"><a xlink:title=" ">
<polygon fill="#e0e0e0" stroke="#999999" points="401,-129 319,-129 319,-110 401,-110 401,-129"/>
<text text-anchor="middle" x="360" y="-117" font-family="Helvetica,sans-Serif" font-size="10.00">ui_navpage.h</text>
</a>
</g>
</g>
<!-- Node1&#45;&gt;Node11 -->
<g id="edge11" class="edge">
<title>Node1&#45;&gt;Node11</title>
<path fill="none" stroke="#63b8ff" d="M521.15,-164.98C488.5,-155.97 436.8,-141.7 400.8,-131.76"/>
<polygon fill="#63b8ff" stroke="#63b8ff" points="401.66,-128.37 391.09,-129.08 399.8,-135.12 401.66,-128.37"/>
</g>
<!-- Node12 -->
<g id="node12" class="node">
<title>Node12</title>
<g id="a_node12"><a xlink:title=" ">
<polygon fill="#e0e0e0" stroke="#999999" points="505,-129 419,-129 419,-110 505,-110 505,-129"/>
<text text-anchor="middle" x="462" y="-117" font-family="Helvetica,sans-Serif" font-size="10.00">QColumnView</text>
</a>
</g>
</g>
<!-- Node1&#45;&gt;Node12 -->
<g id="edge12" class="edge">
<title>Node1&#45;&gt;Node12</title>
<path fill="none" stroke="#63b8ff" d="M537.54,-164.98C523.58,-156.77 502.21,-144.18 485.75,-134.49"/>
<polygon fill="#63b8ff" stroke="#63b8ff" points="487.12,-131.23 476.72,-129.17 483.56,-137.26 487.12,-131.23"/>
</g>
<!-- Node13 -->
<g id="node13" class="node">
<title>Node13</title>
<g id="a_node13"><a xlink:title=" ">
<polygon fill="#e0e0e0" stroke="#999999" points="580.5,-129 523.5,-129 523.5,-110 580.5,-110 580.5,-129"/>
<text text-anchor="middle" x="552" y="-117" font-family="Helvetica,sans-Serif" font-size="10.00">QLayout</text>
</a>
</g>
</g>
<!-- Node1&#45;&gt;Node13 -->
<g id="edge13" class="edge">
<title>Node1&#45;&gt;Node13</title>
<path fill="none" stroke="#63b8ff" d="M552,-164.75C552,-157.8 552,-147.85 552,-139.13"/>
<polygon fill="#63b8ff" stroke="#63b8ff" points="555.5,-139.09 552,-129.09 548.5,-139.09 555.5,-139.09"/>
</g>
<!-- Node14 -->
<g id="node14" class="node">
<title>Node14</title>
<g id="a_node14"><a xlink:title=" ">
<polygon fill="#e0e0e0" stroke="#999999" points="663.5,-129 598.5,-129 598.5,-110 663.5,-110 663.5,-129"/>
<text text-anchor="middle" x="631" y="-117" font-family="Helvetica,sans-Serif" font-size="10.00">QListView</text>
</a>
</g>
</g>
<!-- Node1&#45;&gt;Node14 -->
<g id="edge14" class="edge">
<title>Node1&#45;&gt;Node14</title>
<path fill="none" stroke="#63b8ff" d="M564.69,-164.98C576.83,-156.84 595.36,-144.41 609.75,-134.76"/>
<polygon fill="#63b8ff" stroke="#63b8ff" points="611.72,-137.65 618.08,-129.17 607.82,-131.84 611.72,-137.65"/>
</g>
<!-- Node15 -->
<g id="node15" class="node">
<title>Node15</title>
<g id="a_node15"><a xlink:title=" ">
<polygon fill="#e0e0e0" stroke="#999999" points="756,-129 682,-129 682,-110 756,-110 756,-129"/>
<text text-anchor="middle" x="719" y="-117" font-family="Helvetica,sans-Serif" font-size="10.00">QTableView</text>
</a>
</g>
</g>
<!-- Node1&#45;&gt;Node15 -->
<g id="edge15" class="edge">
<title>Node1&#45;&gt;Node15</title>
<path fill="none" stroke="#63b8ff" d="M578.83,-164.98C606.87,-156.09 651.05,-142.07 682.3,-132.15"/>
<polygon fill="#63b8ff" stroke="#63b8ff" points="683.49,-135.44 691.96,-129.08 681.37,-128.77 683.49,-135.44"/>
</g>
<!-- Node16 -->
<g id="node16" class="node">
<title>Node16</title>
<g id="a_node16"><a xlink:title=" ">
<polygon fill="#e0e0e0" stroke="#999999" points="842,-129 774,-129 774,-110 842,-110 842,-129"/>
<text text-anchor="middle" x="808" y="-117" font-family="Helvetica,sans-Serif" font-size="10.00">QTreeView</text>
</a>
</g>
</g>
<!-- Node1&#45;&gt;Node16 -->
<g id="edge16" class="edge">
<title>Node1&#45;&gt;Node16</title>
<path fill="none" stroke="#63b8ff" d="M593.13,-164.98C639.88,-155.31 715.89,-139.57 763.85,-129.64"/>
<polygon fill="#63b8ff" stroke="#63b8ff" points="764.85,-133.01 773.93,-127.55 763.43,-126.15 764.85,-133.01"/>
</g>
<!-- Node3 -->
<g id="node3" class="node">
<title>Node3</title>
<g id="a_node3"><a xlink:href="driveinfo_8h.html" target="_top" xlink:title=" ">
<polygon fill="white" stroke="#666666" points="108.5,-74 39.5,-74 39.5,-55 108.5,-55 108.5,-74"/>
<text text-anchor="middle" x="74" y="-62" font-family="Helvetica,sans-Serif" font-size="10.00">driveinfo.h</text>
</a>
</g>
</g>
<!-- Node2&#45;&gt;Node3 -->
<g id="edge2" class="edge">
<title>Node2&#45;&gt;Node3</title>
<path fill="none" stroke="#63b8ff" d="M235.99,-109.98C203.17,-100.97 151.2,-86.7 115.01,-76.76"/>
<polygon fill="#63b8ff" stroke="#63b8ff" points="115.82,-73.36 105.25,-74.08 113.97,-80.11 115.82,-73.36"/>
</g>
<!-- Node5 -->
<g id="node5" class="node">
<title>Node5</title>
<g id="a_node5"><a xlink:title=" ">
<polygon fill="#e0e0e0" stroke="#999999" points="157.5,-19 98.5,-19 98.5,0 157.5,0 157.5,-19"/>
<text text-anchor="middle" x="128" y="-7" font-family="Helvetica,sans-Serif" font-size="10.00">QWidget</text>
</a>
</g>
</g>
<!-- Node2&#45;&gt;Node5 -->
<g id="edge10" class="edge">
<title>Node2&#45;&gt;Node5</title>
<path fill="none" stroke="#63b8ff" d="M232.8,-111.72C209,-105.46 177.91,-94.01 157,-74 144.29,-61.83 136.67,-43.04 132.45,-29.06"/>
<polygon fill="#63b8ff" stroke="#63b8ff" points="135.75,-27.83 129.77,-19.08 128.99,-29.65 135.75,-27.83"/>
</g>
<!-- Node6 -->
<g id="node6" class="node">
<title>Node6</title>
<g id="a_node6"><a xlink:href="mainwindow_8h.html" target="_top" xlink:title=" ">
<polygon fill="white" stroke="#666666" points="252.5,-74 165.5,-74 165.5,-55 252.5,-55 252.5,-74"/>
<text text-anchor="middle" x="209" y="-62" font-family="Helvetica,sans-Serif" font-size="10.00">mainwindow.h</text>
</a>
</g>
</g>
<!-- Node2&#45;&gt;Node6 -->
<g id="edge5" class="edge">
<title>Node2&#45;&gt;Node6</title>
<path fill="none" stroke="#63b8ff" d="M257.68,-109.98C249.19,-102.23 236.44,-90.58 226.12,-81.14"/>
<polygon fill="#63b8ff" stroke="#63b8ff" points="228.23,-78.33 218.49,-74.17 223.51,-83.5 228.23,-78.33"/>
</g>
<!-- Node8 -->
<g id="node8" class="node">
<title>Node8</title>
<g id="a_node8"><a xlink:title=" ">
<polygon fill="#e0e0e0" stroke="#999999" points="381.5,-74 270.5,-74 270.5,-55 381.5,-55 381.5,-74"/>
<text text-anchor="middle" x="326" y="-62" font-family="Helvetica,sans-Serif" font-size="10.00">QAbstractItemView</text>
</a>
</g>
</g>
<!-- Node2&#45;&gt;Node8 -->
<g id="edge7" class="edge">
<title>Node2&#45;&gt;Node8</title>
<path fill="none" stroke="#63b8ff" d="M276.48,-109.98C285.2,-102.15 298.34,-90.34 308.9,-80.86"/>
<polygon fill="#63b8ff" stroke="#63b8ff" points="311.25,-83.46 316.35,-74.17 306.57,-78.25 311.25,-83.46"/>
</g>
<!-- Node9 -->
<g id="node9" class="node">
<title>Node9</title>
<g id="a_node9"><a xlink:title=" ">
<polygon fill="#e0e0e0" stroke="#999999" points="438,-74 400,-74 400,-55 438,-55 438,-74"/>
<text text-anchor="middle" x="419" y="-62" font-family="Helvetica,sans-Serif" font-size="10.00">QDir</text>
</a>
</g>
</g>
<!-- Node2&#45;&gt;Node9 -->
<g id="edge8" class="edge">
<title>Node2&#45;&gt;Node9</title>
<path fill="none" stroke="#63b8ff" d="M291.42,-109.98C318.33,-100.6 361.57,-85.53 390.13,-75.57"/>
<polygon fill="#63b8ff" stroke="#63b8ff" points="391.64,-78.75 399.93,-72.15 389.34,-72.14 391.64,-78.75"/>
</g>
<!-- Node10 -->
<g id="node10" class="node">
<title>Node10</title>
<g id="a_node10"><a xlink:title=" ">
<polygon fill="#e0e0e0" stroke="#999999" points="564,-74 456,-74 456,-55 564,-55 564,-74"/>
<text text-anchor="middle" x="510" y="-62" font-family="Helvetica,sans-Serif" font-size="10.00">QFileSystemModel</text>
</a>
</g>
</g>
<!-- Node2&#45;&gt;Node10 -->
<g id="edge9" class="edge">
<title>Node2&#45;&gt;Node10</title>
<path fill="none" stroke="#63b8ff" d="M301.04,-111.07C342.66,-102 413.4,-86.57 460.9,-76.21"/>
<polygon fill="#63b8ff" stroke="#63b8ff" points="461.94,-79.56 470.96,-74.01 460.45,-72.73 461.94,-79.56"/>
</g>
<!-- Node4 -->
<g id="node4" class="node">
<title>Node4</title>
<g id="a_node4"><a xlink:title=" ">
<polygon fill="#e0e0e0" stroke="#999999" points="80,-19 0,-19 0,0 80,0 80,-19"/>
<text text-anchor="middle" x="40" y="-7" font-family="Helvetica,sans-Serif" font-size="10.00">QStorageInfo</text>
</a>
</g>
</g>
<!-- Node3&#45;&gt;Node4 -->
<g id="edge3" class="edge">
<title>Node3&#45;&gt;Node4</title>
<path fill="none" stroke="#63b8ff" d="M68.39,-54.75C63.68,-47.42 56.83,-36.73 51.03,-27.7"/>
<polygon fill="#63b8ff" stroke="#63b8ff" points="53.86,-25.62 45.51,-19.09 47.96,-29.4 53.86,-25.62"/>
</g>
<!-- Node3&#45;&gt;Node5 -->
<g id="edge4" class="edge">
<title>Node3&#45;&gt;Node5</title>
<path fill="none" stroke="#63b8ff" d="M82.92,-54.75C90.78,-47.03 102.43,-35.6 111.92,-26.28"/>
<polygon fill="#63b8ff" stroke="#63b8ff" points="114.56,-28.59 119.25,-19.09 109.66,-23.6 114.56,-28.59"/>
</g>
<!-- Node7 -->
<g id="node7" class="node">
<title>Node7</title>
<g id="a_node7"><a xlink:title=" ">
<polygon fill="#e0e0e0" stroke="#999999" points="262.5,-19 175.5,-19 175.5,0 262.5,0 262.5,-19"/>
<text text-anchor="middle" x="219" y="-7" font-family="Helvetica,sans-Serif" font-size="10.00">QMainWindow</text>
</a>
</g>
</g>
<!-- Node6&#45;&gt;Node7 -->
<g id="edge6" class="edge">
<title>Node6&#45;&gt;Node7</title>
<path fill="none" stroke="#63b8ff" d="M210.65,-54.75C211.96,-47.8 213.84,-37.85 215.48,-29.13"/>
<polygon fill="#63b8ff" stroke="#63b8ff" points="218.96,-29.56 217.38,-19.09 212.09,-28.27 218.96,-29.56"/>
</g>
</g>
</svg>
