<?xml version="1.0" encoding="UTF-8" standalone="no"?>
<!DOCTYPE svg PUBLIC "-//W3C//DTD SVG 1.1//EN"
 "http://www.w3.org/Graphics/SVG/1.1/DTD/svg11.dtd">
<!-- Generated by graphviz version 2.43.0 (0)
 -->
<!-- Title: src/navpage.h Pages: 1 -->
<svg width="563pt" height="137pt"
 viewBox="0.00 0.00 563.00 137.00" xmlns="http://www.w3.org/2000/svg" xmlns:xlink="http://www.w3.org/1999/xlink">
<g id="graph0" class="graph" transform="scale(1 1) rotate(0) translate(4 133)">
<title>src/navpage.h</title>
<!-- Node1 -->
<g id="node1" class="node">
<title>Node1</title>
<g id="a_node1"><a xlink:title=" ">
<polygon fill="#999999" stroke="#666666" points="300.5,-129 215.5,-129 215.5,-110 300.5,-110 300.5,-129"/>
<text text-anchor="middle" x="258" y="-117" font-family="Helvetica,sans-Serif" font-size="10.00">src/navpage.h</text>
</a>
</g>
</g>
<!-- Node2 -->
<g id="node2" class="node">
<title>Node2</title>
<g id="a_node2"><a xlink:href="driveinfo_8h.html" target="_top" xlink:title=" ">
<polygon fill="white" stroke="#666666" points="99.5,-74 30.5,-74 30.5,-55 99.5,-55 99.5,-74"/>
<text text-anchor="middle" x="65" y="-62" font-family="Helvetica,sans-Serif" font-size="10.00">driveinfo.h</text>
</a>
</g>
</g>
<!-- Node1&#45;&gt;Node2 -->
<g id="edge1" class="edge">
<title>Node1&#45;&gt;Node2</title>
<path fill="none" stroke="#63b8ff" d="M226.99,-109.98C194.17,-100.97 142.2,-86.7 106.01,-76.76"/>
<polygon fill="#63b8ff" stroke="#63b8ff" points="106.82,-73.36 96.25,-74.08 104.97,-80.11 106.82,-73.36"/>
</g>
<!-- Node4 -->
<g id="node4" class="node">
<title>Node4</title>
<g id="a_node4"><a xlink:title=" ">
<polygon fill="#e0e0e0" stroke="#999999" points="157.5,-19 98.5,-19 98.5,0 157.5,0 157.5,-19"/>
<text text-anchor="middle" x="128" y="-7" font-family="Helvetica,sans-Serif" font-size="10.00">QWidget</text>
</a>
</g>
</g>
<!-- Node1&#45;&gt;Node4 -->
<g id="edge10" class="edge">
<title>Node1&#45;&gt;Node4</title>
<path fill="none" stroke="#63b8ff" d="M215.4,-110.82C192.24,-104.57 164.78,-93.47 147,-74 135.84,-61.79 131.23,-43.27 129.32,-29.37"/>
<polygon fill="#63b8ff" stroke="#63b8ff" points="132.76,-28.63 128.27,-19.03 125.8,-29.33 132.76,-28.63"/>
</g>
<!-- Node5 -->
<g id="node5" class="node">
<title>Node5</title>
<g id="a_node5"><a xlink:href="mainwindow_8h.html" target="_top" xlink:title=" ">
<polygon fill="white" stroke="#666666" points="243.5,-74 156.5,-74 156.5,-55 243.5,-55 243.5,-74"/>
<text text-anchor="middle" x="200" y="-62" font-family="Helvetica,sans-Serif" font-size="10.00">mainwindow.h</text>
</a>
</g>
</g>
<!-- Node1&#45;&gt;Node5 -->
<g id="edge4" class="edge">
<title>Node1&#45;&gt;Node5</title>
<path fill="none" stroke="#63b8ff" d="M248.68,-109.98C240.19,-102.23 227.44,-90.58 217.12,-81.14"/>
<polygon fill="#63b8ff" stroke="#63b8ff" points="219.23,-78.33 209.49,-74.17 214.51,-83.5 219.23,-78.33"/>
</g>
<!-- Node8 -->
<g id="node8" class="node">
<title>Node8</title>
<g id="a_node8"><a xlink:title=" ">
<polygon fill="#e0e0e0" stroke="#999999" points="372.5,-74 261.5,-74 261.5,-55 372.5,-55 372.5,-74"/>
<text text-anchor="middle" x="317" y="-62" font-family="Helvetica,sans-Serif" font-size="10.00">QAbstractItemView</text>
</a>
</g>
</g>
<!-- Node1&#45;&gt;Node8 -->
<g id="edge7" class="edge">
<title>Node1&#45;&gt;Node8</title>
<path fill="none" stroke="#63b8ff" d="M267.48,-109.98C276.2,-102.15 289.34,-90.34 299.9,-80.86"/>
<polygon fill="#63b8ff" stroke="#63b8ff" points="302.25,-83.46 307.35,-74.17 297.57,-78.25 302.25,-83.46"/>
</g>
<!-- Node9 -->
<g id="node9" class="node">
<title>Node9</title>
<g id="a_node9"><a xlink:title=" ">
<polygon fill="#e0e0e0" stroke="#999999" points="429,-74 391,-74 391,-55 429,-55 429,-74"/>
<text text-anchor="middle" x="410" y="-62" font-family="Helvetica,sans-Serif" font-size="10.00">QDir</text>
</a>
</g>
</g>
<!-- Node1&#45;&gt;Node9 -->
<g id="edge8" class="edge">
<title>Node1&#45;&gt;Node9</title>
<path fill="none" stroke="#63b8ff" d="M282.42,-109.98C309.33,-100.6 352.57,-85.53 381.13,-75.57"/>
<polygon fill="#63b8ff" stroke="#63b8ff" points="382.64,-78.75 390.93,-72.15 380.34,-72.14 382.64,-78.75"/>
</g>
<!-- Node10 -->
<g id="node10" class="node">
<title>Node10</title>
<g id="a_node10"><a xlink:title=" ">
<polygon fill="#e0e0e0" stroke="#999999" points="555,-74 447,-74 447,-55 555,-55 555,-74"/>
<text text-anchor="middle" x="501" y="-62" font-family="Helvetica,sans-Serif" font-size="10.00">QFileSystemModel</text>
</a>
</g>
</g>
<!-- Node1&#45;&gt;Node10 -->
<g id="edge9" class="edge">
<title>Node1&#45;&gt;Node10</title>
<path fill="none" stroke="#63b8ff" d="M297.04,-109.98C339.08,-100.82 406.04,-86.21 451.68,-76.26"/>
<polygon fill="#63b8ff" stroke="#63b8ff" points="452.63,-79.63 461.65,-74.08 451.14,-72.79 452.63,-79.63"/>
</g>
<!-- Node3 -->
<g id="node3" class="node">
<title>Node3</title>
<g id="a_node3"><a xlink:title=" ">
<polygon fill="#e0e0e0" stroke="#999999" points="80,-19 0,-19 0,0 80,0 80,-19"/>
<text text-anchor="middle" x="40" y="-7" font-family="Helvetica,sans-Serif" font-size="10.00">QStorageInfo</text>
</a>
</g>
</g>
<!-- Node2&#45;&gt;Node3 -->
<g id="edge2" class="edge">
<title>Node2&#45;&gt;Node3</title>
<path fill="none" stroke="#63b8ff" d="M60.87,-54.75C57.49,-47.57 52.58,-37.18 48.38,-28.27"/>
<polygon fill="#63b8ff" stroke="#63b8ff" points="51.48,-26.64 44.05,-19.09 45.15,-29.63 51.48,-26.64"/>
</g>
<!-- Node2&#45;&gt;Node4 -->
<g id="edge3" class="edge">
<title>Node2&#45;&gt;Node4</title>
<path fill="none" stroke="#63b8ff" d="M75.12,-54.98C84.44,-47.15 98.47,-35.34 109.74,-25.86"/>
<polygon fill="#63b8ff" stroke="#63b8ff" points="112.29,-28.29 117.69,-19.17 107.79,-22.93 112.29,-28.29"/>
</g>
<!-- Node6 -->
<g id="node6" class="node">
<title>Node6</title>
<g id="a_node6"><a xlink:title=" ">
<polygon fill="#e0e0e0" stroke="#999999" points="218.5,-19 177.5,-19 177.5,0 218.5,0 218.5,-19"/>
<text text-anchor="middle" x="198" y="-7" font-family="Helvetica,sans-Serif" font-size="10.00">QList</text>
</a>
</g>
</g>
<!-- Node5&#45;&gt;Node6 -->
<g id="edge5" class="edge">
<title>Node5&#45;&gt;Node6</title>
<path fill="none" stroke="#63b8ff" d="M199.67,-54.75C199.41,-47.8 199.03,-37.85 198.7,-29.13"/>
<polygon fill="#63b8ff" stroke="#63b8ff" points="202.2,-28.95 198.32,-19.09 195.2,-29.21 202.2,-28.95"/>
</g>
<!-- Node7 -->
<g id="node7" class="node">
<title>Node7</title>
<g id="a_node7"><a xlink:title=" ">
<polygon fill="#e0e0e0" stroke="#999999" points="323.5,-19 236.5,-19 236.5,0 323.5,0 323.5,-19"/>
<text text-anchor="middle" x="280" y="-7" font-family="Helvetica,sans-Serif" font-size="10.00">QMainWindow</text>
</a>
</g>
</g>
<!-- Node5&#45;&gt;Node7 -->
<g id="edge6" class="edge">
<title>Node5&#45;&gt;Node7</title>
<path fill="none" stroke="#63b8ff" d="M212.85,-54.98C225.14,-46.84 243.91,-34.41 258.48,-24.76"/>
<polygon fill="#63b8ff" stroke="#63b8ff" points="260.51,-27.61 266.91,-19.17 256.64,-21.78 260.51,-27.61"/>
</g>
</g>
</svg>
