<?xml version="1.0" encoding="UTF-8" standalone="no"?>
<!DOCTYPE svg PUBLIC "-//W3C//DTD SVG 1.1//EN"
 "http://www.w3.org/Graphics/SVG/1.1/DTD/svg11.dtd">
<!-- Generated by graphviz version 2.43.0 (0)
 -->
<!-- Title: src/navpage.cpp Pages: 1 -->
<svg width="945pt" height="192pt"
 viewBox="0.00 0.00 944.50 192.00" xmlns="http://www.w3.org/2000/svg" xmlns:xlink="http://www.w3.org/1999/xlink">
<g id="graph0" class="graph" transform="scale(1 1) rotate(0) translate(4 188)">
<title>src/navpage.cpp</title>
<!-- Node1 -->
<g id="node1" class="node">
<title>Node1</title>
<g id="a_node1"><a xlink:title=" ">
<polygon fill="#999999" stroke="#666666" points="649.5,-184 553.5,-184 553.5,-165 649.5,-165 649.5,-184"/>
<text text-anchor="middle" x="601.5" y="-172" font-family="Helvetica,sans-Serif" font-size="10.00">src/navpage.cpp</text>
</a>
</g>
</g>
<!-- Node2 -->
<g id="node2" class="node">
<title>Node2</title>
<g id="a_node2"><a xlink:href="navpage_8h.html" target="_top" xlink:title=" ">
<polygon fill="white" stroke="#666666" points="320.5,-129 252.5,-129 252.5,-110 320.5,-110 320.5,-129"/>
<text text-anchor="middle" x="286.5" y="-117" font-family="Helvetica,sans-Serif" font-size="10.00">navpage.h</text>
</a>
</g>
</g>
<!-- Node1&#45;&gt;Node2 -->
<g id="edge1" class="edge">
<title>Node1&#45;&gt;Node2</title>
<path fill="none" stroke="#63b8ff" d="M553.32,-165.39C492.67,-155.19 389.36,-137.81 330.67,-127.93"/>
<polygon fill="#63b8ff" stroke="#63b8ff" points="331.05,-124.45 320.6,-126.24 329.88,-131.35 331.05,-124.45"/>
</g>
<!-- Node7 -->
<g id="node7" class="node">
<title>Node7</title>
<g id="a_node7"><a xlink:title=" ">
<polygon fill="#e0e0e0" stroke="#999999" points="476.5,-74 368.5,-74 368.5,-55 476.5,-55 476.5,-74"/>
<text text-anchor="middle" x="422.5" y="-62" font-family="Helvetica,sans-Serif" font-size="10.00">QFileSystemModel</text>
</a>
</g>
</g>
<!-- Node1&#45;&gt;Node7 -->
<g id="edge10" class="edge">
<title>Node1&#45;&gt;Node7</title>
<path fill="none" stroke="#63b8ff" d="M553.25,-169.4C501.04,-163.84 422.78,-151.87 404.5,-129 393.92,-115.76 401.57,-96.63 409.92,-82.83"/>
<polygon fill="#63b8ff" stroke="#63b8ff" points="412.99,-84.54 415.59,-74.27 407.15,-80.67 412.99,-84.54"/>
</g>
<!-- Node9 -->
<g id="node9" class="node">
<title>Node9</title>
<g id="a_node9"><a xlink:title=" ">
<polygon fill="#e0e0e0" stroke="#999999" points="495.5,-129 413.5,-129 413.5,-110 495.5,-110 495.5,-129"/>
<text text-anchor="middle" x="454.5" y="-117" font-family="Helvetica,sans-Serif" font-size="10.00">ui_navpage.h</text>
</a>
</g>
</g>
<!-- Node1&#45;&gt;Node9 -->
<g id="edge8" class="edge">
<title>Node1&#45;&gt;Node9</title>
<path fill="none" stroke="#63b8ff" d="M577.88,-164.98C553.6,-156.23 515.55,-142.51 488.13,-132.62"/>
<polygon fill="#63b8ff" stroke="#63b8ff" points="489.14,-129.27 478.55,-129.17 486.77,-135.85 489.14,-129.27"/>
</g>
<!-- Node10 -->
<g id="node10" class="node">
<title>Node10</title>
<g id="a_node10"><a xlink:title=" ">
<polygon fill="#e0e0e0" stroke="#999999" points="599.5,-129 513.5,-129 513.5,-110 599.5,-110 599.5,-129"/>
<text text-anchor="middle" x="556.5" y="-117" font-family="Helvetica,sans-Serif" font-size="10.00">QColumnView</text>
</a>
</g>
</g>
<!-- Node1&#45;&gt;Node10 -->
<g id="edge9" class="edge">
<title>Node1&#45;&gt;Node10</title>
<path fill="none" stroke="#63b8ff" d="M594.07,-164.75C587.65,-157.18 578.19,-146.05 570.38,-136.84"/>
<polygon fill="#63b8ff" stroke="#63b8ff" points="572.93,-134.45 563.79,-129.09 567.6,-138.98 572.93,-134.45"/>
</g>
<!-- Node11 -->
<g id="node11" class="node">
<title>Node11</title>
<g id="a_node11"><a xlink:title=" ">
<polygon fill="#e0e0e0" stroke="#999999" points="675,-129 618,-129 618,-110 675,-110 675,-129"/>
<text text-anchor="middle" x="646.5" y="-117" font-family="Helvetica,sans-Serif" font-size="10.00">QLayout</text>
</a>
</g>
</g>
<!-- Node1&#45;&gt;Node11 -->
<g id="edge11" class="edge">
<title>Node1&#45;&gt;Node11</title>
<path fill="none" stroke="#63b8ff" d="M608.93,-164.75C615.35,-157.18 624.81,-146.05 632.62,-136.84"/>
<polygon fill="#63b8ff" stroke="#63b8ff" points="635.4,-138.98 639.21,-129.09 630.07,-134.45 635.4,-138.98"/>
</g>
<!-- Node12 -->
<g id="node12" class="node">
<title>Node12</title>
<g id="a_node12"><a xlink:title=" ">
<polygon fill="#e0e0e0" stroke="#999999" points="758,-129 693,-129 693,-110 758,-110 758,-129"/>
<text text-anchor="middle" x="725.5" y="-117" font-family="Helvetica,sans-Serif" font-size="10.00">QListView</text>
</a>
</g>
</g>
<!-- Node1&#45;&gt;Node12 -->
<g id="edge12" class="edge">
<title>Node1&#45;&gt;Node12</title>
<path fill="none" stroke="#63b8ff" d="M621.42,-164.98C641.55,-156.38 672.88,-142.99 695.91,-133.15"/>
<polygon fill="#63b8ff" stroke="#63b8ff" points="697.4,-136.32 705.21,-129.17 694.64,-129.88 697.4,-136.32"/>
</g>
<!-- Node13 -->
<g id="node13" class="node">
<title>Node13</title>
<g id="a_node13"><a xlink:title=" ">
<polygon fill="#e0e0e0" stroke="#999999" points="850.5,-129 776.5,-129 776.5,-110 850.5,-110 850.5,-129"/>
<text text-anchor="middle" x="813.5" y="-117" font-family="Helvetica,sans-Serif" font-size="10.00">QTableView</text>
</a>
</g>
</g>
<!-- Node1&#45;&gt;Node13 -->
<g id="edge13" class="edge">
<title>Node1&#45;&gt;Node13</title>
<path fill="none" stroke="#63b8ff" d="M635.56,-164.98C671.92,-155.89 729.67,-141.46 769.47,-131.51"/>
<polygon fill="#63b8ff" stroke="#63b8ff" points="770.32,-134.9 779.17,-129.08 768.62,-128.11 770.32,-134.9"/>
</g>
<!-- Node14 -->
<g id="node14" class="node">
<title>Node14</title>
<g id="a_node14"><a xlink:title=" ">
<polygon fill="#e0e0e0" stroke="#999999" points="936.5,-129 868.5,-129 868.5,-110 936.5,-110 936.5,-129"/>
<text text-anchor="middle" x="902.5" y="-117" font-family="Helvetica,sans-Serif" font-size="10.00">QTreeView</text>
</a>
</g>
</g>
<!-- Node1&#45;&gt;Node14 -->
<g id="edge14" class="edge">
<title>Node1&#45;&gt;Node14</title>
<path fill="none" stroke="#63b8ff" d="M649.59,-165.57C699.33,-157.28 779.51,-143.69 858.17,-129.21"/>
<polygon fill="#63b8ff" stroke="#63b8ff" points="859.05,-132.61 868.25,-127.35 857.78,-125.72 859.05,-132.61"/>
</g>
<!-- Node3 -->
<g id="node3" class="node">
<title>Node3</title>
<g id="a_node3"><a xlink:href="mainwindow_8h.html" target="_top" xlink:title=" ">
<polygon fill="white" stroke="#666666" points="87,-74 0,-74 0,-55 87,-55 87,-74"/>
<text text-anchor="middle" x="43.5" y="-62" font-family="Helvetica,sans-Serif" font-size="10.00">mainwindow.h</text>
</a>
</g>
</g>
<!-- Node2&#45;&gt;Node3 -->
<g id="edge2" class="edge">
<title>Node2&#45;&gt;Node3</title>
<path fill="none" stroke="#63b8ff" d="M252.46,-111.07C210.84,-102 140.1,-86.57 92.6,-76.21"/>
<polygon fill="#63b8ff" stroke="#63b8ff" points="93.05,-72.73 82.54,-74.01 91.56,-79.56 93.05,-72.73"/>
</g>
<!-- Node5 -->
<g id="node5" class="node">
<title>Node5</title>
<g id="a_node5"><a xlink:title=" ">
<polygon fill="#e0e0e0" stroke="#999999" points="216,-74 105,-74 105,-55 216,-55 216,-74"/>
<text text-anchor="middle" x="160.5" y="-62" font-family="Helvetica,sans-Serif" font-size="10.00">QAbstractItemView</text>
</a>
</g>
</g>
<!-- Node2&#45;&gt;Node5 -->
<g id="edge4" class="edge">
<title>Node2&#45;&gt;Node5</title>
<path fill="none" stroke="#63b8ff" d="M266.26,-109.98C245.8,-101.38 213.97,-87.99 190.57,-78.15"/>
<polygon fill="#63b8ff" stroke="#63b8ff" points="191.69,-74.82 181.11,-74.17 188.97,-81.27 191.69,-74.82"/>
</g>
<!-- Node6 -->
<g id="node6" class="node">
<title>Node6</title>
<g id="a_node6"><a xlink:title=" ">
<polygon fill="#e0e0e0" stroke="#999999" points="272.5,-74 234.5,-74 234.5,-55 272.5,-55 272.5,-74"/>
<text text-anchor="middle" x="253.5" y="-62" font-family="Helvetica,sans-Serif" font-size="10.00">QDir</text>
</a>
</g>
</g>
<!-- Node2&#45;&gt;Node6 -->
<g id="edge5" class="edge">
<title>Node2&#45;&gt;Node6</title>
<path fill="none" stroke="#63b8ff" d="M281.05,-109.75C276.49,-102.42 269.83,-91.73 264.21,-82.7"/>
<polygon fill="#63b8ff" stroke="#63b8ff" points="267.1,-80.73 258.85,-74.09 261.16,-84.43 267.1,-80.73"/>
</g>
<!-- Node2&#45;&gt;Node7 -->
<g id="edge6" class="edge">
<title>Node2&#45;&gt;Node7</title>
<path fill="none" stroke="#63b8ff" d="M308.35,-109.98C330.62,-101.3 365.4,-87.75 390.72,-77.88"/>
<polygon fill="#63b8ff" stroke="#63b8ff" points="392.21,-81.06 400.25,-74.17 389.66,-74.54 392.21,-81.06"/>
</g>
<!-- Node8 -->
<g id="node8" class="node">
<title>Node8</title>
<g id="a_node8"><a xlink:title=" ">
<polygon fill="#e0e0e0" stroke="#999999" points="350,-74 291,-74 291,-55 350,-55 350,-74"/>
<text text-anchor="middle" x="320.5" y="-62" font-family="Helvetica,sans-Serif" font-size="10.00">QWidget</text>
</a>
</g>
</g>
<!-- Node2&#45;&gt;Node8 -->
<g id="edge7" class="edge">
<title>Node2&#45;&gt;Node8</title>
<path fill="none" stroke="#63b8ff" d="M292.11,-109.75C296.82,-102.42 303.67,-91.73 309.47,-82.7"/>
<polygon fill="#63b8ff" stroke="#63b8ff" points="312.54,-84.4 314.99,-74.09 306.64,-80.62 312.54,-84.4"/>
</g>
<!-- Node4 -->
<g id="node4" class="node">
<title>Node4</title>
<g id="a_node4"><a xlink:title=" ">
<polygon fill="#e0e0e0" stroke="#999999" points="87,-19 0,-19 0,0 87,0 87,-19"/>
<text text-anchor="middle" x="43.5" y="-7" font-family="Helvetica,sans-Serif" font-size="10.00">QMainWindow</text>
</a>
</g>
</g>
<!-- Node3&#45;&gt;Node4 -->
<g id="edge3" class="edge">
<title>Node3&#45;&gt;Node4</title>
<path fill="none" stroke="#63b8ff" d="M43.5,-54.75C43.5,-47.8 43.5,-37.85 43.5,-29.13"/>
<polygon fill="#63b8ff" stroke="#63b8ff" points="47,-29.09 43.5,-19.09 40,-29.09 47,-29.09"/>
</g>
</g>
</svg>
