<?xml version="1.0" encoding="UTF-8" standalone="no"?>
<!DOCTYPE svg PUBLIC "-//W3C//DTD SVG 1.1//EN"
 "http://www.w3.org/Graphics/SVG/1.1/DTD/svg11.dtd">
<!-- Generated by graphviz version 2.43.0 (0)
 -->
<!-- Title: src/navpage.cpp Pages: 1 -->
<svg width="895pt" height="192pt"
 viewBox="0.00 0.00 894.50 192.00" xmlns="http://www.w3.org/2000/svg" xmlns:xlink="http://www.w3.org/1999/xlink">
<g id="graph0" class="graph" transform="scale(1 1) rotate(0) translate(4 188)">
<title>src/navpage.cpp</title>
<!-- Node1 -->
<g id="Node000001" class="node">
<title>Node1</title>
<g id="a_Node000001"><a xlink:title=" ">
<polygon fill="#999999" stroke="#666666" points="603.5,-184 507.5,-184 507.5,-165 603.5,-165 603.5,-184"/>
<text text-anchor="middle" x="555.5" y="-172" font-family="Helvetica,sans-Serif" font-size="10.00">src/navpage.cpp</text>
</a>
</g>
</g>
<!-- Node2 -->
<g id="Node000002" class="node">
<title>Node2</title>
<g id="a_Node000002"><a xlink:href="navpage_8h.html" target="_top" xlink:title=" ">
<polygon fill="white" stroke="#666666" points="265.5,-129 197.5,-129 197.5,-110 265.5,-110 265.5,-129"/>
<text text-anchor="middle" x="231.5" y="-117" font-family="Helvetica,sans-Serif" font-size="10.00">navpage.h</text>
</a>
</g>
</g>
<!-- Node1&#45;&gt;Node2 -->
<g id="edge1_Node000001_Node000002" class="edge">
<title>Node1&#45;&gt;Node2</title>
<g id="a_edge1_Node000001_Node000002"><a xlink:title=" ">
<path fill="none" stroke="#63b8ff" d="M507.43,-166.46C453.48,-158.43 363.1,-144.59 275.82,-129.18"/>
<polygon fill="#63b8ff" stroke="#63b8ff" points="276.2,-125.69 265.75,-127.39 274.98,-132.59 276.2,-125.69"/>
</a>
</g>
</g>
<!-- Node13 -->
<g id="Node000013" class="node">
<title>Node13</title>
<g id="a_Node000013"><a xlink:title=" ">
<polygon fill="#e0e0e0" stroke="#999999" points="365.5,-129 283.5,-129 283.5,-110 365.5,-110 365.5,-129"/>
<text text-anchor="middle" x="324.5" y="-117" font-family="Helvetica,sans-Serif" font-size="10.00">ui_navpage.h</text>
</a>
</g>
</g>
<!-- Node1&#45;&gt;Node13 -->
<g id="edge14_Node000001_Node000013" class="edge">
<title>Node1&#45;&gt;Node13</title>
<g id="a_edge14_Node000001_Node000013"><a xlink:title=" ">
<path fill="none" stroke="#63b8ff" d="M518.39,-164.98C478.51,-155.84 415.04,-141.27 371.66,-131.32"/>
<polygon fill="#63b8ff" stroke="#63b8ff" points="372.43,-127.91 361.91,-129.08 370.87,-134.73 372.43,-127.91"/>
</a>
</g>
</g>
<!-- Node14 -->
<g id="Node000014" class="node">
<title>Node14</title>
<g id="a_Node000014"><a xlink:title=" ">
<polygon fill="#e0e0e0" stroke="#999999" points="469.5,-129 383.5,-129 383.5,-110 469.5,-110 469.5,-129"/>
<text text-anchor="middle" x="426.5" y="-117" font-family="Helvetica,sans-Serif" font-size="10.00">QColumnView</text>
</a>
</g>
</g>
<!-- Node1&#45;&gt;Node14 -->
<g id="edge15_Node000001_Node000014" class="edge">
<title>Node1&#45;&gt;Node14</title>
<g id="a_edge15_Node000001_Node000014"><a xlink:title=" ">
<path fill="none" stroke="#63b8ff" d="M534.77,-164.98C513.74,-156.34 480.95,-142.87 456.96,-133.02"/>
<polygon fill="#63b8ff" stroke="#63b8ff" points="458.18,-129.73 447.6,-129.17 455.52,-136.21 458.18,-129.73"/>
</a>
</g>
</g>
<!-- Node15 -->
<g id="Node000015" class="node">
<title>Node15</title>
<g id="a_Node000015"><a xlink:title=" ">
<polygon fill="#e0e0e0" stroke="#999999" points="545,-129 488,-129 488,-110 545,-110 545,-129"/>
<text text-anchor="middle" x="516.5" y="-117" font-family="Helvetica,sans-Serif" font-size="10.00">QLayout</text>
</a>
</g>
</g>
<!-- Node1&#45;&gt;Node15 -->
<g id="edge16_Node000001_Node000015" class="edge">
<title>Node1&#45;&gt;Node15</title>
<g id="a_edge16_Node000001_Node000015"><a xlink:title=" ">
<path fill="none" stroke="#63b8ff" d="M549.06,-164.75C543.61,-157.34 535.64,-146.5 528.94,-137.41"/>
<polygon fill="#63b8ff" stroke="#63b8ff" points="531.57,-135.07 522.82,-129.09 525.93,-139.22 531.57,-135.07"/>
</a>
</g>
</g>
<!-- Node16 -->
<g id="Node000016" class="node">
<title>Node16</title>
<g id="a_Node000016"><a xlink:title=" ">
<polygon fill="#e0e0e0" stroke="#999999" points="628,-129 563,-129 563,-110 628,-110 628,-129"/>
<text text-anchor="middle" x="595.5" y="-117" font-family="Helvetica,sans-Serif" font-size="10.00">QListView</text>
</a>
</g>
</g>
<!-- Node1&#45;&gt;Node16 -->
<g id="edge17_Node000001_Node000016" class="edge">
<title>Node1&#45;&gt;Node16</title>
<g id="a_edge17_Node000001_Node000016"><a xlink:title=" ">
<path fill="none" stroke="#63b8ff" d="M562.11,-164.75C567.76,-157.26 576.04,-146.28 582.95,-137.13"/>
<polygon fill="#63b8ff" stroke="#63b8ff" points="585.79,-139.18 589.02,-129.09 580.2,-134.96 585.79,-139.18"/>
</a>
</g>
</g>
<!-- Node17 -->
<g id="Node000017" class="node">
<title>Node17</title>
<g id="a_Node000017"><a xlink:title=" ">
<polygon fill="#e0e0e0" stroke="#999999" points="708.5,-129 646.5,-129 646.5,-110 708.5,-110 708.5,-129"/>
<text text-anchor="middle" x="677.5" y="-117" font-family="Helvetica,sans-Serif" font-size="10.00">QProcess</text>
</a>
</g>
</g>
<!-- Node1&#45;&gt;Node17 -->
<g id="edge18_Node000001_Node000017" class="edge">
<title>Node1&#45;&gt;Node17</title>
<g id="a_edge18_Node000001_Node000017"><a xlink:title=" ">
<path fill="none" stroke="#63b8ff" d="M575.1,-164.98C594.82,-156.42 625.45,-143.11 648.08,-133.28"/>
<polygon fill="#63b8ff" stroke="#63b8ff" points="649.76,-136.37 657.54,-129.17 646.98,-129.94 649.76,-136.37"/>
</a>
</g>
</g>
<!-- Node18 -->
<g id="Node000018" class="node">
<title>Node18</title>
<g id="a_Node000018"><a xlink:title=" ">
<polygon fill="#e0e0e0" stroke="#999999" points="800.5,-129 726.5,-129 726.5,-110 800.5,-110 800.5,-129"/>
<text text-anchor="middle" x="763.5" y="-117" font-family="Helvetica,sans-Serif" font-size="10.00">QTableView</text>
</a>
</g>
</g>
<!-- Node1&#45;&gt;Node18 -->
<g id="edge19_Node000001_Node000018" class="edge">
<title>Node1&#45;&gt;Node18</title>
<g id="a_edge19_Node000001_Node000018"><a xlink:title=" ">
<path fill="none" stroke="#63b8ff" d="M588.92,-164.98C624.44,-155.93 680.77,-141.58 719.8,-131.64"/>
<polygon fill="#63b8ff" stroke="#63b8ff" points="720.99,-134.94 729.82,-129.08 719.26,-128.16 720.99,-134.94"/>
</a>
</g>
</g>
<!-- Node19 -->
<g id="Node000019" class="node">
<title>Node19</title>
<g id="a_Node000019"><a xlink:title=" ">
<polygon fill="#e0e0e0" stroke="#999999" points="886.5,-129 818.5,-129 818.5,-110 886.5,-110 886.5,-129"/>
<text text-anchor="middle" x="852.5" y="-117" font-family="Helvetica,sans-Serif" font-size="10.00">QTreeView</text>
</a>
</g>
</g>
<!-- Node1&#45;&gt;Node19 -->
<g id="edge20_Node000001_Node000019" class="edge">
<title>Node1&#45;&gt;Node19</title>
<g id="a_edge20_Node000001_Node000019"><a xlink:title=" ">
<path fill="none" stroke="#63b8ff" d="M603.78,-165.36C652.82,-157.03 731.22,-143.5 808.36,-129.18"/>
<polygon fill="#63b8ff" stroke="#63b8ff" points="809.05,-132.61 818.25,-127.34 807.77,-125.73 809.05,-132.61"/>
</a>
</g>
</g>
<!-- Node3 -->
<g id="Node000003" class="node">
<title>Node3</title>
<g id="a_Node000003"><a xlink:href="diriteminfo_8h.html" target="_top" xlink:title=" ">
<polygon fill="white" stroke="#666666" points="167.5,-74 87.5,-74 87.5,-55 167.5,-55 167.5,-74"/>
<text text-anchor="middle" x="127.5" y="-62" font-family="Helvetica,sans-Serif" font-size="10.00">diriteminfo.h</text>
</a>
</g>
</g>
<!-- Node2&#45;&gt;Node3 -->
<g id="edge2_Node000002_Node000003" class="edge">
<title>Node2&#45;&gt;Node3</title>
<g id="a_edge2_Node000002_Node000003"><a xlink:title=" ">
<path fill="none" stroke="#63b8ff" d="M214.79,-109.98C198.29,-101.57 172.8,-88.59 153.62,-78.81"/>
<polygon fill="#63b8ff" stroke="#63b8ff" points="155.01,-75.59 144.51,-74.17 151.83,-81.83 155.01,-75.59"/>
</a>
</g>
</g>
<!-- Node6 -->
<g id="Node000006" class="node">
<title>Node6</title>
<g id="a_Node000006"><a xlink:href="driveinfo_8h.html" target="_top" xlink:title=" ">
<polygon fill="white" stroke="#666666" points="69,-74 0,-74 0,-55 69,-55 69,-74"/>
<text text-anchor="middle" x="34.5" y="-62" font-family="Helvetica,sans-Serif" font-size="10.00">driveinfo.h</text>
</a>
</g>
</g>
<!-- Node2&#45;&gt;Node6 -->
<g id="edge5_Node000002_Node000006" class="edge">
<title>Node2&#45;&gt;Node6</title>
<g id="a_edge5_Node000002_Node000006"><a xlink:title=" ">
<path fill="none" stroke="#63b8ff" d="M199.85,-109.98C166.34,-100.97 113.3,-86.7 76.36,-76.76"/>
<polygon fill="#63b8ff" stroke="#63b8ff" points="76.97,-73.3 66.4,-74.08 75.15,-80.06 76.97,-73.3"/>
</a>
</g>
</g>
<!-- Node7 -->
<g id="Node000007" class="node">
<title>Node7</title>
<g id="a_Node000007"><a xlink:href="mainwindow_8h.html" target="_top" xlink:title=" ">
<polygon fill="white" stroke="#666666" points="275,-74 188,-74 188,-55 275,-55 275,-74"/>
<text text-anchor="middle" x="231.5" y="-62" font-family="Helvetica,sans-Serif" font-size="10.00">mainwindow.h</text>
</a>
</g>
</g>
<!-- Node2&#45;&gt;Node7 -->
<g id="edge8_Node000002_Node000007" class="edge">
<title>Node2&#45;&gt;Node7</title>
<g id="a_edge8_Node000002_Node000007"><a xlink:title=" ">
<path fill="none" stroke="#63b8ff" d="M231.5,-109.75C231.5,-102.8 231.5,-92.85 231.5,-84.13"/>
<polygon fill="#63b8ff" stroke="#63b8ff" points="235,-84.09 231.5,-74.09 228,-84.09 235,-84.09"/>
</a>
</g>
</g>
<!-- Node11 -->
<g id="Node000011" class="node">
<title>Node11</title>
<g id="a_Node000011"><a xlink:title=" ">
<polygon fill="#e0e0e0" stroke="#999999" points="404,-74 293,-74 293,-55 404,-55 404,-74"/>
<text text-anchor="middle" x="348.5" y="-62" font-family="Helvetica,sans-Serif" font-size="10.00">QAbstractItemView</text>
</a>
</g>
</g>
<!-- Node2&#45;&gt;Node11 -->
<g id="edge12_Node000002_Node000011" class="edge">
<title>Node2&#45;&gt;Node11</title>
<g id="a_edge12_Node000002_Node000011"><a xlink:title=" ">
<path fill="none" stroke="#63b8ff" d="M250.3,-109.98C269.12,-101.46 298.32,-88.23 320,-78.41"/>
<polygon fill="#63b8ff" stroke="#63b8ff" points="321.7,-81.48 329.36,-74.17 318.81,-75.11 321.7,-81.48"/>
</a>
</g>
</g>
<!-- Node12 -->
<g id="Node000012" class="node">
<title>Node12</title>
<g id="a_Node000012"><a xlink:title=" ">
<polygon fill="#e0e0e0" stroke="#999999" points="460.5,-74 422.5,-74 422.5,-55 460.5,-55 460.5,-74"/>
<text text-anchor="middle" x="441.5" y="-62" font-family="Helvetica,sans-Serif" font-size="10.00">QDir</text>
</a>
</g>
</g>
<!-- Node2&#45;&gt;Node12 -->
<g id="edge13_Node000002_Node000012" class="edge">
<title>Node2&#45;&gt;Node12</title>
<g id="a_edge13_Node000002_Node000012"><a xlink:title=" ">
<path fill="none" stroke="#63b8ff" d="M265.52,-110.77C300.19,-102.76 355.71,-89.59 412.41,-74.19"/>
<polygon fill="#63b8ff" stroke="#63b8ff" points="413.54,-77.51 422.26,-71.49 411.69,-70.76 413.54,-77.51"/>
</a>
</g>
</g>
<!-- Node4 -->
<g id="Node000004" class="node">
<title>Node4</title>
<g id="a_Node000004"><a xlink:title=" ">
<polygon fill="#e0e0e0" stroke="#999999" points="159.5,-19 79.5,-19 79.5,0 159.5,0 159.5,-19"/>
<text text-anchor="middle" x="119.5" y="-7" font-family="Helvetica,sans-Serif" font-size="10.00">QStorageInfo</text>
</a>
</g>
</g>
<!-- Node3&#45;&gt;Node4 -->
<g id="edge3_Node000003_Node000004" class="edge">
<title>Node3&#45;&gt;Node4</title>
<g id="a_edge3_Node000003_Node000004"><a xlink:title=" ">
<path fill="none" stroke="#63b8ff" d="M126.18,-54.75C125.13,-47.8 123.63,-37.85 122.31,-29.13"/>
<polygon fill="#63b8ff" stroke="#63b8ff" points="125.75,-28.45 120.8,-19.09 118.83,-29.5 125.75,-28.45"/>
</a>
</g>
</g>
<!-- Node5 -->
<g id="Node000005" class="node">
<title>Node5</title>
<g id="a_Node000005"><a xlink:title=" ">
<polygon fill="#e0e0e0" stroke="#999999" points="61,-19 2,-19 2,0 61,0 61,-19"/>
<text text-anchor="middle" x="31.5" y="-7" font-family="Helvetica,sans-Serif" font-size="10.00">QWidget</text>
</a>
</g>
</g>
<!-- Node3&#45;&gt;Node5 -->
<g id="edge4_Node000003_Node000005" class="edge">
<title>Node3&#45;&gt;Node5</title>
<g id="a_edge4_Node000003_Node000005"><a xlink:title=" ">
<path fill="none" stroke="#63b8ff" d="M112.08,-54.98C97.05,-46.69 73.96,-33.94 56.34,-24.22"/>
<polygon fill="#63b8ff" stroke="#63b8ff" points="57.65,-20.94 47.2,-19.17 54.27,-27.07 57.65,-20.94"/>
</a>
</g>
</g>
<!-- Node6&#45;&gt;Node4 -->
<g id="edge6_Node000006_Node000004" class="edge">
<title>Node6&#45;&gt;Node4</title>
<g id="a_edge6_Node000006_Node000004"><a xlink:title=" ">
<path fill="none" stroke="#63b8ff" d="M48.16,-54.98C61.34,-46.77 81.53,-34.18 97.07,-24.49"/>
<polygon fill="#63b8ff" stroke="#63b8ff" points="98.96,-27.43 105.59,-19.17 95.26,-21.49 98.96,-27.43"/>
</a>
</g>
</g>
<!-- Node6&#45;&gt;Node5 -->
<g id="edge7_Node000006_Node000005" class="edge">
<title>Node6&#45;&gt;Node5</title>
<g id="a_edge7_Node000006_Node000005"><a xlink:title=" ">
<path fill="none" stroke="#63b8ff" d="M34,-54.75C33.61,-47.8 33.05,-37.85 32.55,-29.13"/>
<polygon fill="#63b8ff" stroke="#63b8ff" points="36.05,-28.88 31.99,-19.09 29.06,-29.27 36.05,-28.88"/>
</a>
</g>
</g>
<!-- Node8 -->
<g id="Node000008" class="node">
<title>Node8</title>
<g id="a_Node000008"><a xlink:title=" ">
<polygon fill="#e0e0e0" stroke="#999999" points="285.5,-19 177.5,-19 177.5,0 285.5,0 285.5,-19"/>
<text text-anchor="middle" x="231.5" y="-7" font-family="Helvetica,sans-Serif" font-size="10.00">QFileSystemModel</text>
</a>
</g>
</g>
<!-- Node7&#45;&gt;Node8 -->
<g id="edge9_Node000007_Node000008" class="edge">
<title>Node7&#45;&gt;Node8</title>
<g id="a_edge9_Node000007_Node000008"><a xlink:title=" ">
<path fill="none" stroke="#63b8ff" d="M231.5,-54.75C231.5,-47.8 231.5,-37.85 231.5,-29.13"/>
<polygon fill="#63b8ff" stroke="#63b8ff" points="235,-29.09 231.5,-19.09 228,-29.09 235,-29.09"/>
</a>
</g>
</g>
<!-- Node9 -->
<g id="Node000009" class="node">
<title>Node9</title>
<g id="a_Node000009"><a xlink:title=" ">
<polygon fill="#e0e0e0" stroke="#999999" points="345,-19 304,-19 304,0 345,0 345,-19"/>
<text text-anchor="middle" x="324.5" y="-7" font-family="Helvetica,sans-Serif" font-size="10.00">QList</text>
</a>
</g>
</g>
<!-- Node7&#45;&gt;Node9 -->
<g id="edge10_Node000007_Node000009" class="edge">
<title>Node7&#45;&gt;Node9</title>
<g id="a_edge10_Node000007_Node000009"><a xlink:title=" ">
<path fill="none" stroke="#63b8ff" d="M246.44,-54.98C261,-46.69 283.37,-33.94 300.43,-24.22"/>
<polygon fill="#63b8ff" stroke="#63b8ff" points="302.33,-27.16 309.29,-19.17 298.86,-21.08 302.33,-27.16"/>
</a>
</g>
</g>
<!-- Node10 -->
<g id="Node000010" class="node">
<title>Node10</title>
<g id="a_Node000010"><a xlink:title=" ">
<polygon fill="#e0e0e0" stroke="#999999" points="450,-19 363,-19 363,0 450,0 450,-19"/>
<text text-anchor="middle" x="406.5" y="-7" font-family="Helvetica,sans-Serif" font-size="10.00">QMainWindow</text>
</a>
</g>
</g>
<!-- Node7&#45;&gt;Node10 -->
<g id="edge11_Node000007_Node000010" class="edge">
<title>Node7&#45;&gt;Node10</title>
<g id="a_edge11_Node000007_Node000010"><a xlink:title=" ">
<path fill="none" stroke="#63b8ff" d="M259.62,-54.98C289.12,-46.05 335.69,-31.94 368.47,-22.02"/>
<polygon fill="#63b8ff" stroke="#63b8ff" points="369.61,-25.33 378.16,-19.08 367.58,-18.63 369.61,-25.33"/>
</a>
</g>
</g>
</g>
</svg>
