<?xml version="1.0" encoding="UTF-8" standalone="no"?>
<!DOCTYPE svg PUBLIC "-//W3C//DTD SVG 1.1//EN"
 "http://www.w3.org/Graphics/SVG/1.1/DTD/svg11.dtd">
<!-- Generated by graphviz version 2.43.0 (0)
 -->
<!-- Title: src/navpage.cpp Pages: 1 -->
<svg width="841pt" height="192pt"
 viewBox="0.00 0.00 841.00 192.00" xmlns="http://www.w3.org/2000/svg" xmlns:xlink="http://www.w3.org/1999/xlink">
<g id="graph0" class="graph" transform="scale(1 1) rotate(0) translate(4 188)">
<title>src/navpage.cpp</title>
<!-- Node1 -->
<g id="node1" class="node">
<title>Node1</title>
<g id="a_node1"><a xlink:title=" ">
<polygon fill="#999999" stroke="#666666" points="591,-184 495,-184 495,-165 591,-165 591,-184"/>
<text text-anchor="middle" x="543" y="-172" font-family="Helvetica,sans-Serif" font-size="10.00">src/navpage.cpp</text>
</a>
</g>
</g>
<!-- Node2 -->
<g id="node2" class="node">
<title>Node2</title>
<g id="a_node2"><a xlink:href="navpage_8h.html" target="_top" xlink:title=" ">
<polygon fill="white" stroke="#666666" points="292,-129 224,-129 224,-110 292,-110 292,-129"/>
<text text-anchor="middle" x="258" y="-117" font-family="Helvetica,sans-Serif" font-size="10.00">navpage.h</text>
</a>
</g>
</g>
<!-- Node1&#45;&gt;Node2 -->
<g id="edge1" class="edge">
<title>Node1&#45;&gt;Node2</title>
<path fill="none" stroke="#63b8ff" d="M495.67,-164.99C448.95,-156.55 375.23,-143.11 302.1,-129.19"/>
<polygon fill="#63b8ff" stroke="#63b8ff" points="302.74,-125.75 292.26,-127.31 301.43,-132.63 302.74,-125.75"/>
</g>
<!-- Node12 -->
<g id="node12" class="node">
<title>Node12</title>
<g id="a_node12"><a xlink:title=" ">
<polygon fill="#e0e0e0" stroke="#999999" points="392,-129 310,-129 310,-110 392,-110 392,-129"/>
<text text-anchor="middle" x="351" y="-117" font-family="Helvetica,sans-Serif" font-size="10.00">ui_navpage.h</text>
</a>
</g>
</g>
<!-- Node1&#45;&gt;Node12 -->
<g id="edge12" class="edge">
<title>Node1&#45;&gt;Node12</title>
<path fill="none" stroke="#63b8ff" d="M512.15,-164.98C479.5,-155.97 427.8,-141.7 391.8,-131.76"/>
<polygon fill="#63b8ff" stroke="#63b8ff" points="392.66,-128.37 382.09,-129.08 390.8,-135.12 392.66,-128.37"/>
</g>
<!-- Node13 -->
<g id="node13" class="node">
<title>Node13</title>
<g id="a_node13"><a xlink:title=" ">
<polygon fill="#e0e0e0" stroke="#999999" points="496,-129 410,-129 410,-110 496,-110 496,-129"/>
<text text-anchor="middle" x="453" y="-117" font-family="Helvetica,sans-Serif" font-size="10.00">QColumnView</text>
</a>
</g>
</g>
<!-- Node1&#45;&gt;Node13 -->
<g id="edge13" class="edge">
<title>Node1&#45;&gt;Node13</title>
<path fill="none" stroke="#63b8ff" d="M528.54,-164.98C514.58,-156.77 493.21,-144.18 476.75,-134.49"/>
<polygon fill="#63b8ff" stroke="#63b8ff" points="478.12,-131.23 467.72,-129.17 474.56,-137.26 478.12,-131.23"/>
</g>
<!-- Node14 -->
<g id="node14" class="node">
<title>Node14</title>
<g id="a_node14"><a xlink:title=" ">
<polygon fill="#e0e0e0" stroke="#999999" points="571.5,-129 514.5,-129 514.5,-110 571.5,-110 571.5,-129"/>
<text text-anchor="middle" x="543" y="-117" font-family="Helvetica,sans-Serif" font-size="10.00">QLayout</text>
</a>
</g>
</g>
<!-- Node1&#45;&gt;Node14 -->
<g id="edge14" class="edge">
<title>Node1&#45;&gt;Node14</title>
<path fill="none" stroke="#63b8ff" d="M543,-164.75C543,-157.8 543,-147.85 543,-139.13"/>
<polygon fill="#63b8ff" stroke="#63b8ff" points="546.5,-139.09 543,-129.09 539.5,-139.09 546.5,-139.09"/>
</g>
<!-- Node15 -->
<g id="node15" class="node">
<title>Node15</title>
<g id="a_node15"><a xlink:title=" ">
<polygon fill="#e0e0e0" stroke="#999999" points="654.5,-129 589.5,-129 589.5,-110 654.5,-110 654.5,-129"/>
<text text-anchor="middle" x="622" y="-117" font-family="Helvetica,sans-Serif" font-size="10.00">QListView</text>
</a>
</g>
</g>
<!-- Node1&#45;&gt;Node15 -->
<g id="edge15" class="edge">
<title>Node1&#45;&gt;Node15</title>
<path fill="none" stroke="#63b8ff" d="M555.69,-164.98C567.83,-156.84 586.36,-144.41 600.75,-134.76"/>
<polygon fill="#63b8ff" stroke="#63b8ff" points="602.72,-137.65 609.08,-129.17 598.82,-131.84 602.72,-137.65"/>
</g>
<!-- Node16 -->
<g id="node16" class="node">
<title>Node16</title>
<g id="a_node16"><a xlink:title=" ">
<polygon fill="#e0e0e0" stroke="#999999" points="747,-129 673,-129 673,-110 747,-110 747,-129"/>
<text text-anchor="middle" x="710" y="-117" font-family="Helvetica,sans-Serif" font-size="10.00">QTableView</text>
</a>
</g>
</g>
<!-- Node1&#45;&gt;Node16 -->
<g id="edge16" class="edge">
<title>Node1&#45;&gt;Node16</title>
<path fill="none" stroke="#63b8ff" d="M569.83,-164.98C597.87,-156.09 642.05,-142.07 673.3,-132.15"/>
<polygon fill="#63b8ff" stroke="#63b8ff" points="674.49,-135.44 682.96,-129.08 672.37,-128.77 674.49,-135.44"/>
</g>
<!-- Node17 -->
<g id="node17" class="node">
<title>Node17</title>
<g id="a_node17"><a xlink:title=" ">
<polygon fill="#e0e0e0" stroke="#999999" points="833,-129 765,-129 765,-110 833,-110 833,-129"/>
<text text-anchor="middle" x="799" y="-117" font-family="Helvetica,sans-Serif" font-size="10.00">QTreeView</text>
</a>
</g>
</g>
<!-- Node1&#45;&gt;Node17 -->
<g id="edge17" class="edge">
<title>Node1&#45;&gt;Node17</title>
<path fill="none" stroke="#63b8ff" d="M584.13,-164.98C630.88,-155.31 706.89,-139.57 754.85,-129.64"/>
<polygon fill="#63b8ff" stroke="#63b8ff" points="755.85,-133.01 764.93,-127.55 754.43,-126.15 755.85,-133.01"/>
</g>
<!-- Node3 -->
<g id="node3" class="node">
<title>Node3</title>
<g id="a_node3"><a xlink:href="driveinfo_8h.html" target="_top" xlink:title=" ">
<polygon fill="white" stroke="#666666" points="99.5,-74 30.5,-74 30.5,-55 99.5,-55 99.5,-74"/>
<text text-anchor="middle" x="65" y="-62" font-family="Helvetica,sans-Serif" font-size="10.00">driveinfo.h</text>
</a>
</g>
</g>
<!-- Node2&#45;&gt;Node3 -->
<g id="edge2" class="edge">
<title>Node2&#45;&gt;Node3</title>
<path fill="none" stroke="#63b8ff" d="M226.99,-109.98C194.17,-100.97 142.2,-86.7 106.01,-76.76"/>
<polygon fill="#63b8ff" stroke="#63b8ff" points="106.82,-73.36 96.25,-74.08 104.97,-80.11 106.82,-73.36"/>
</g>
<!-- Node5 -->
<g id="node5" class="node">
<title>Node5</title>
<g id="a_node5"><a xlink:title=" ">
<polygon fill="#e0e0e0" stroke="#999999" points="157.5,-19 98.5,-19 98.5,0 157.5,0 157.5,-19"/>
<text text-anchor="middle" x="128" y="-7" font-family="Helvetica,sans-Serif" font-size="10.00">QWidget</text>
</a>
</g>
</g>
<!-- Node2&#45;&gt;Node5 -->
<g id="edge11" class="edge">
<title>Node2&#45;&gt;Node5</title>
<path fill="none" stroke="#63b8ff" d="M223.91,-112.96C199.31,-107.24 167.02,-95.92 147,-74 135.84,-61.79 131.23,-43.27 129.32,-29.37"/>
<polygon fill="#63b8ff" stroke="#63b8ff" points="132.76,-28.63 128.27,-19.03 125.8,-29.33 132.76,-28.63"/>
</g>
<!-- Node6 -->
<g id="node6" class="node">
<title>Node6</title>
<g id="a_node6"><a xlink:href="mainwindow_8h.html" target="_top" xlink:title=" ">
<polygon fill="white" stroke="#666666" points="243.5,-74 156.5,-74 156.5,-55 243.5,-55 243.5,-74"/>
<text text-anchor="middle" x="200" y="-62" font-family="Helvetica,sans-Serif" font-size="10.00">mainwindow.h</text>
</a>
</g>
</g>
<!-- Node2&#45;&gt;Node6 -->
<g id="edge5" class="edge">
<title>Node2&#45;&gt;Node6</title>
<path fill="none" stroke="#63b8ff" d="M248.68,-109.98C240.19,-102.23 227.44,-90.58 217.12,-81.14"/>
<polygon fill="#63b8ff" stroke="#63b8ff" points="219.23,-78.33 209.49,-74.17 214.51,-83.5 219.23,-78.33"/>
</g>
<!-- Node9 -->
<g id="node9" class="node">
<title>Node9</title>
<g id="a_node9"><a xlink:title=" ">
<polygon fill="#e0e0e0" stroke="#999999" points="372.5,-74 261.5,-74 261.5,-55 372.5,-55 372.5,-74"/>
<text text-anchor="middle" x="317" y="-62" font-family="Helvetica,sans-Serif" font-size="10.00">QAbstractItemView</text>
</a>
</g>
</g>
<!-- Node2&#45;&gt;Node9 -->
<g id="edge8" class="edge">
<title>Node2&#45;&gt;Node9</title>
<path fill="none" stroke="#63b8ff" d="M267.48,-109.98C276.2,-102.15 289.34,-90.34 299.9,-80.86"/>
<polygon fill="#63b8ff" stroke="#63b8ff" points="302.25,-83.46 307.35,-74.17 297.57,-78.25 302.25,-83.46"/>
</g>
<!-- Node10 -->
<g id="node10" class="node">
<title>Node10</title>
<g id="a_node10"><a xlink:title=" ">
<polygon fill="#e0e0e0" stroke="#999999" points="429,-74 391,-74 391,-55 429,-55 429,-74"/>
<text text-anchor="middle" x="410" y="-62" font-family="Helvetica,sans-Serif" font-size="10.00">QDir</text>
</a>
</g>
</g>
<!-- Node2&#45;&gt;Node10 -->
<g id="edge9" class="edge">
<title>Node2&#45;&gt;Node10</title>
<path fill="none" stroke="#63b8ff" d="M282.42,-109.98C309.33,-100.6 352.57,-85.53 381.13,-75.57"/>
<polygon fill="#63b8ff" stroke="#63b8ff" points="382.64,-78.75 390.93,-72.15 380.34,-72.14 382.64,-78.75"/>
</g>
<!-- Node11 -->
<g id="node11" class="node">
<title>Node11</title>
<g id="a_node11"><a xlink:title=" ">
<polygon fill="#e0e0e0" stroke="#999999" points="555,-74 447,-74 447,-55 555,-55 555,-74"/>
<text text-anchor="middle" x="501" y="-62" font-family="Helvetica,sans-Serif" font-size="10.00">QFileSystemModel</text>
</a>
</g>
</g>
<!-- Node2&#45;&gt;Node11 -->
<g id="edge10" class="edge">
<title>Node2&#45;&gt;Node11</title>
<path fill="none" stroke="#63b8ff" d="M292.04,-111.07C333.66,-102 404.4,-86.57 451.9,-76.21"/>
<polygon fill="#63b8ff" stroke="#63b8ff" points="452.94,-79.56 461.96,-74.01 451.45,-72.73 452.94,-79.56"/>
</g>
<!-- Node4 -->
<g id="node4" class="node">
<title>Node4</title>
<g id="a_node4"><a xlink:title=" ">
<polygon fill="#e0e0e0" stroke="#999999" points="80,-19 0,-19 0,0 80,0 80,-19"/>
<text text-anchor="middle" x="40" y="-7" font-family="Helvetica,sans-Serif" font-size="10.00">QStorageInfo</text>
</a>
</g>
</g>
<!-- Node3&#45;&gt;Node4 -->
<g id="edge3" class="edge">
<title>Node3&#45;&gt;Node4</title>
<path fill="none" stroke="#63b8ff" d="M60.87,-54.75C57.49,-47.57 52.58,-37.18 48.38,-28.27"/>
<polygon fill="#63b8ff" stroke="#63b8ff" points="51.48,-26.64 44.05,-19.09 45.15,-29.63 51.48,-26.64"/>
</g>
<!-- Node3&#45;&gt;Node5 -->
<g id="edge4" class="edge">
<title>Node3&#45;&gt;Node5</title>
<path fill="none" stroke="#63b8ff" d="M75.12,-54.98C84.44,-47.15 98.47,-35.34 109.74,-25.86"/>
<polygon fill="#63b8ff" stroke="#63b8ff" points="112.29,-28.29 117.69,-19.17 107.79,-22.93 112.29,-28.29"/>
</g>
<!-- Node7 -->
<g id="node7" class="node">
<title>Node7</title>
<g id="a_node7"><a xlink:title=" ">
<polygon fill="#e0e0e0" stroke="#999999" points="218.5,-19 177.5,-19 177.5,0 218.5,0 218.5,-19"/>
<text text-anchor="middle" x="198" y="-7" font-family="Helvetica,sans-Serif" font-size="10.00">QList</text>
</a>
</g>
</g>
<!-- Node6&#45;&gt;Node7 -->
<g id="edge6" class="edge">
<title>Node6&#45;&gt;Node7</title>
<path fill="none" stroke="#63b8ff" d="M199.67,-54.75C199.41,-47.8 199.03,-37.85 198.7,-29.13"/>
<polygon fill="#63b8ff" stroke="#63b8ff" points="202.2,-28.95 198.32,-19.09 195.2,-29.21 202.2,-28.95"/>
</g>
<!-- Node8 -->
<g id="node8" class="node">
<title>Node8</title>
<g id="a_node8"><a xlink:title=" ">
<polygon fill="#e0e0e0" stroke="#999999" points="323.5,-19 236.5,-19 236.5,0 323.5,0 323.5,-19"/>
<text text-anchor="middle" x="280" y="-7" font-family="Helvetica,sans-Serif" font-size="10.00">QMainWindow</text>
</a>
</g>
</g>
<!-- Node6&#45;&gt;Node8 -->
<g id="edge7" class="edge">
<title>Node6&#45;&gt;Node8</title>
<path fill="none" stroke="#63b8ff" d="M212.85,-54.98C225.14,-46.84 243.91,-34.41 258.48,-24.76"/>
<polygon fill="#63b8ff" stroke="#63b8ff" points="260.51,-27.61 266.91,-19.17 256.64,-21.78 260.51,-27.61"/>
</g>
</g>
</svg>
