<?xml version="1.0" encoding="UTF-8" standalone="no"?>
<!DOCTYPE svg PUBLIC "-//W3C//DTD SVG 1.1//EN"
 "http://www.w3.org/Graphics/SVG/1.1/DTD/svg11.dtd">
<!-- Generated by graphviz version 2.43.0 (0)
 -->
<!-- Title: src/qfileinfolistmodel.h Pages: 1 -->
<svg width="353pt" height="137pt"
 viewBox="0.00 0.00 352.50 137.00" xmlns="http://www.w3.org/2000/svg" xmlns:xlink="http://www.w3.org/1999/xlink">
<g id="graph0" class="graph" transform="scale(1 1) rotate(0) translate(4 133)">
<title>src/qfileinfolistmodel.h</title>
<!-- Node1 -->
<g id="node1" class="node">
<title>Node1</title>
<g id="a_node1"><a xlink:title=" ">
<polygon fill="#999999" stroke="#666666" points="206,-129 78,-129 78,-110 206,-110 206,-129"/>
<text text-anchor="middle" x="142" y="-117" font-family="Helvetica,sans-Serif" font-size="10.00">src/qfileinfolistmodel.h</text>
</a>
</g>
</g>
<!-- Node2 -->
<g id="node2" class="node">
<title>Node2</title>
<g id="a_node2"><a xlink:href="qfileinfolistmodel_8cpp.html" target="_top" xlink:title=" ">
<polygon fill="white" stroke="#666666" points="140,-74 0,-74 0,-55 140,-55 140,-74"/>
<text text-anchor="middle" x="70" y="-62" font-family="Helvetica,sans-Serif" font-size="10.00">src/qfileinfolistmodel.cpp</text>
</a>
</g>
</g>
<!-- Node1&#45;&gt;Node2 -->
<g id="edge1" class="edge">
<title>Node1&#45;&gt;Node2</title>
<path fill="none" stroke="#63b8ff" d="M122.13,-103.88C109.18,-94.34 92.7,-82.21 81.78,-74.17"/>
<polygon fill="#63b8ff" stroke="#63b8ff" points="120.3,-106.88 130.43,-109.98 124.45,-101.24 120.3,-106.88"/>
</g>
<!-- Node3 -->
<g id="node3" class="node">
<title>Node3</title>
<g id="a_node3"><a xlink:href="searchwindow_8h.html" target="_top" xlink:title=" ">
<polygon fill="white" stroke="#666666" points="270,-74 158,-74 158,-55 270,-55 270,-74"/>
<text text-anchor="middle" x="214" y="-62" font-family="Helvetica,sans-Serif" font-size="10.00">src/searchwindow.h</text>
</a>
</g>
</g>
<!-- Node1&#45;&gt;Node3 -->
<g id="edge2" class="edge">
<title>Node1&#45;&gt;Node3</title>
<path fill="none" stroke="#63b8ff" d="M161.87,-103.88C174.82,-94.34 191.3,-82.21 202.22,-74.17"/>
<polygon fill="#63b8ff" stroke="#63b8ff" points="159.55,-101.24 153.57,-109.98 163.7,-106.88 159.55,-101.24"/>
</g>
<!-- Node4 -->
<g id="node4" class="node">
<title>Node4</title>
<g id="a_node4"><a xlink:href="mainwindow_8cpp.html" target="_top" xlink:title=" ">
<polygon fill="white" stroke="#666666" points="203,-19 87,-19 87,0 203,0 203,-19"/>
<text text-anchor="middle" x="145" y="-7" font-family="Helvetica,sans-Serif" font-size="10.00">src/mainwindow.cpp</text>
</a>
</g>
</g>
<!-- Node3&#45;&gt;Node4 -->
<g id="edge3" class="edge">
<title>Node3&#45;&gt;Node4</title>
<path fill="none" stroke="#63b8ff" d="M194.96,-48.88C182.54,-39.34 166.76,-27.21 156.29,-19.17"/>
<polygon fill="#63b8ff" stroke="#63b8ff" points="192.85,-51.67 202.91,-54.98 197.12,-46.12 192.85,-51.67"/>
</g>
<!-- Node5 -->
<g id="node5" class="node">
<title>Node5</title>
<g id="a_node5"><a xlink:href="searchwindow_8cpp.html" target="_top" xlink:title=" ">
<polygon fill="white" stroke="#666666" points="344.5,-19 221.5,-19 221.5,0 344.5,0 344.5,-19"/>
<text text-anchor="middle" x="283" y="-7" font-family="Helvetica,sans-Serif" font-size="10.00">src/searchwindow.cpp</text>
</a>
</g>
</g>
<!-- Node3&#45;&gt;Node5 -->
<g id="edge4" class="edge">
<title>Node3&#45;&gt;Node5</title>
<path fill="none" stroke="#63b8ff" d="M233.04,-48.88C245.46,-39.34 261.24,-27.21 271.71,-19.17"/>
<polygon fill="#63b8ff" stroke="#63b8ff" points="230.88,-46.12 225.09,-54.98 235.15,-51.67 230.88,-46.12"/>
</g>
</g>
</svg>
