<?xml version="1.0" encoding="UTF-8" standalone="no"?>
<!DOCTYPE svg PUBLIC "-//W3C//DTD SVG 1.1//EN"
 "http://www.w3.org/Graphics/SVG/1.1/DTD/svg11.dtd">
<!-- Generated by graphviz version 2.43.0 (0)
 -->
<!-- Title: src/qfileinfolistmodel.h Pages: 1 -->
<svg width="372pt" height="137pt"
 viewBox="0.00 0.00 372.00 137.00" xmlns="http://www.w3.org/2000/svg" xmlns:xlink="http://www.w3.org/1999/xlink">
<g id="graph0" class="graph" transform="scale(1 1) rotate(0) translate(4 133)">
<title>src/qfileinfolistmodel.h</title>
<!-- Node1 -->
<g id="node1" class="node">
<title>Node1</title>
<g id="a_node1"><a xlink:title=" ">
<polygon fill="#999999" stroke="#666666" points="232,-129 104,-129 104,-110 232,-110 232,-129"/>
<text text-anchor="middle" x="168" y="-117" font-family="Helvetica,sans-Serif" font-size="10.00">src/qfileinfolistmodel.h</text>
</a>
</g>
</g>
<!-- Node2 -->
<g id="node2" class="node">
<title>Node2</title>
<g id="a_node2"><a xlink:href="qfileinfolistmodel_8cpp.html" target="_top" xlink:title=" ">
<polygon fill="white" stroke="#666666" points="140,-74 0,-74 0,-55 140,-55 140,-74"/>
<text text-anchor="middle" x="70" y="-62" font-family="Helvetica,sans-Serif" font-size="10.00">src/qfileinfolistmodel.cpp</text>
</a>
</g>
</g>
<!-- Node1&#45;&gt;Node2 -->
<g id="edge1" class="edge">
<title>Node1&#45;&gt;Node2</title>
<path fill="none" stroke="#63b8ff" d="M142.97,-104.97C125.06,-95.28 101.47,-82.52 86.03,-74.17"/>
<polygon fill="#63b8ff" stroke="#63b8ff" points="141.79,-108.31 152.25,-109.98 145.12,-102.15 141.79,-108.31"/>
</g>
<!-- Node3 -->
<g id="node3" class="node">
<title>Node3</title>
<g id="a_node3"><a xlink:href="searchwindow_8cpp.html" target="_top" xlink:title=" ">
<polygon fill="white" stroke="#666666" points="229.5,-19 106.5,-19 106.5,0 229.5,0 229.5,-19"/>
<text text-anchor="middle" x="168" y="-7" font-family="Helvetica,sans-Serif" font-size="10.00">src/searchwindow.cpp</text>
</a>
</g>
</g>
<!-- Node1&#45;&gt;Node3 -->
<g id="edge2" class="edge">
<title>Node1&#45;&gt;Node3</title>
<path fill="none" stroke="#63b8ff" d="M168,-99.48C168,-75.84 168,-36.5 168,-19.16"/>
<polygon fill="#63b8ff" stroke="#63b8ff" points="164.5,-99.66 168,-109.66 171.5,-99.66 164.5,-99.66"/>
</g>
<!-- Node4 -->
<g id="node4" class="node">
<title>Node4</title>
<g id="a_node4"><a xlink:href="searchwindow_8h.html" target="_top" xlink:title=" ">
<polygon fill="white" stroke="#666666" points="308,-74 196,-74 196,-55 308,-55 308,-74"/>
<text text-anchor="middle" x="252" y="-62" font-family="Helvetica,sans-Serif" font-size="10.00">src/searchwindow.h</text>
</a>
</g>
</g>
<!-- Node1&#45;&gt;Node4 -->
<g id="edge3" class="edge">
<title>Node1&#45;&gt;Node4</title>
<path fill="none" stroke="#63b8ff" d="M190.31,-104.42C205.55,-94.81 225.27,-82.37 238.26,-74.17"/>
<polygon fill="#63b8ff" stroke="#63b8ff" points="188.09,-101.69 181.5,-109.98 191.82,-107.61 188.09,-101.69"/>
</g>
<!-- Node4&#45;&gt;Node3 -->
<g id="edge5" class="edge">
<title>Node4&#45;&gt;Node3</title>
<path fill="none" stroke="#63b8ff" d="M229.69,-49.42C214.45,-39.81 194.73,-27.37 181.74,-19.17"/>
<polygon fill="#63b8ff" stroke="#63b8ff" points="228.18,-52.61 238.5,-54.98 231.91,-46.69 228.18,-52.61"/>
</g>
<!-- Node5 -->
<g id="node5" class="node">
<title>Node5</title>
<g id="a_node5"><a xlink:href="mainwindow_8cpp.html" target="_top" xlink:title=" ">
<polygon fill="white" stroke="#666666" points="364,-19 248,-19 248,0 364,0 364,-19"/>
<text text-anchor="middle" x="306" y="-7" font-family="Helvetica,sans-Serif" font-size="10.00">src/mainwindow.cpp</text>
</a>
</g>
</g>
<!-- Node4&#45;&gt;Node5 -->
<g id="edge4" class="edge">
<title>Node4&#45;&gt;Node5</title>
<path fill="none" stroke="#63b8ff" d="M268.28,-47.52C277.8,-38.18 289.44,-26.75 297.25,-19.09"/>
<polygon fill="#63b8ff" stroke="#63b8ff" points="265.6,-45.25 260.92,-54.75 270.51,-50.24 265.6,-45.25"/>
</g>
</g>
</svg>
