<?xml version="1.0" encoding="UTF-8" standalone="no"?>
<!DOCTYPE svg PUBLIC "-//W3C//DTD SVG 1.1//EN"
 "http://www.w3.org/Graphics/SVG/1.1/DTD/svg11.dtd">
<!-- Generated by graphviz version 2.43.0 (0)
 -->
<!-- Title: src/searchwindow.cpp Pages: 1 -->
<svg width="641pt" height="192pt"
 viewBox="0.00 0.00 641.00 192.00" xmlns="http://www.w3.org/2000/svg" xmlns:xlink="http://www.w3.org/1999/xlink">
<g id="graph0" class="graph" transform="scale(1 1) rotate(0) translate(4 188)">
<title>src/searchwindow.cpp</title>
<!-- Node1 -->
<g id="node1" class="node">
<title>Node1</title>
<g id="a_node1"><a xlink:title=" ">
<polygon fill="#999999" stroke="#666666" points="402.5,-184 279.5,-184 279.5,-165 402.5,-165 402.5,-184"/>
<text text-anchor="middle" x="341" y="-172" font-family="Helvetica,sans-Serif" font-size="10.00">src/searchwindow.cpp</text>
</a>
</g>
</g>
<!-- Node2 -->
<g id="node2" class="node">
<title>Node2</title>
<g id="a_node2"><a xlink:href="searchwindow_8h.html" target="_top" xlink:title=" ">
<polygon fill="white" stroke="#666666" points="213.5,-129 118.5,-129 118.5,-110 213.5,-110 213.5,-129"/>
<text text-anchor="middle" x="166" y="-117" font-family="Helvetica,sans-Serif" font-size="10.00">searchwindow.h</text>
</a>
</g>
</g>
<!-- Node1&#45;&gt;Node2 -->
<g id="edge1" class="edge">
<title>Node1&#45;&gt;Node2</title>
<path fill="none" stroke="#63b8ff" d="M312.88,-164.98C283.38,-156.05 236.81,-141.94 204.03,-132.02"/>
<polygon fill="#63b8ff" stroke="#63b8ff" points="204.92,-128.63 194.34,-129.08 202.89,-135.33 204.92,-128.63"/>
</g>
<!-- Node3 -->
<g id="node3" class="node">
<title>Node3</title>
<g id="a_node3"><a xlink:href="qfileinfolistmodel_8h.html" target="_top" xlink:title=" ">
<polygon fill="white" stroke="#666666" points="139.5,-74 28.5,-74 28.5,-55 139.5,-55 139.5,-74"/>
<text text-anchor="middle" x="84" y="-62" font-family="Helvetica,sans-Serif" font-size="10.00">qfileinfolistmodel.h</text>
</a>
</g>
</g>
<!-- Node1&#45;&gt;Node3 -->
<g id="edge7" class="edge">
<title>Node1&#45;&gt;Node3</title>
<path fill="none" stroke="#63b8ff" d="M279.36,-168.37C219.62,-162.25 134.41,-150.08 109,-129 95.76,-118.02 89.5,-99.07 86.56,-84.72"/>
<polygon fill="#63b8ff" stroke="#63b8ff" points="89.94,-83.73 84.84,-74.44 83.03,-84.88 89.94,-83.73"/>
</g>
<!-- Node7 -->
<g id="node7" class="node">
<title>Node7</title>
<g id="a_node7"><a xlink:title=" ">
<polygon fill="#e0e0e0" stroke="#999999" points="340.5,-129 231.5,-129 231.5,-110 340.5,-110 340.5,-129"/>
<text text-anchor="middle" x="286" y="-117" font-family="Helvetica,sans-Serif" font-size="10.00">ui_searchwindow.h</text>
</a>
</g>
</g>
<!-- Node1&#45;&gt;Node7 -->
<g id="edge8" class="edge">
<title>Node1&#45;&gt;Node7</title>
<path fill="none" stroke="#63b8ff" d="M331.92,-164.75C323.91,-157.03 312.04,-145.6 302.38,-136.28"/>
<polygon fill="#63b8ff" stroke="#63b8ff" points="304.54,-133.51 294.91,-129.09 299.69,-138.55 304.54,-133.51"/>
</g>
<!-- Node8 -->
<g id="node8" class="node">
<title>Node8</title>
<g id="a_node8"><a xlink:title=" ">
<polygon fill="#e0e0e0" stroke="#999999" points="433,-129 359,-129 359,-110 433,-110 433,-129"/>
<text text-anchor="middle" x="396" y="-117" font-family="Helvetica,sans-Serif" font-size="10.00">QDirIterator</text>
</a>
</g>
</g>
<!-- Node1&#45;&gt;Node8 -->
<g id="edge9" class="edge">
<title>Node1&#45;&gt;Node8</title>
<path fill="none" stroke="#63b8ff" d="M350.08,-164.75C358.09,-157.03 369.96,-145.6 379.62,-136.28"/>
<polygon fill="#63b8ff" stroke="#63b8ff" points="382.31,-138.55 387.09,-129.09 377.46,-133.51 382.31,-138.55"/>
</g>
<!-- Node9 -->
<g id="node9" class="node">
<title>Node9</title>
<g id="a_node9"><a xlink:title=" ">
<polygon fill="#e0e0e0" stroke="#999999" points="534.5,-129 451.5,-129 451.5,-110 534.5,-110 534.5,-129"/>
<text text-anchor="middle" x="493" y="-117" font-family="Helvetica,sans-Serif" font-size="10.00">QHeaderView</text>
</a>
</g>
</g>
<!-- Node1&#45;&gt;Node9 -->
<g id="edge10" class="edge">
<title>Node1&#45;&gt;Node9</title>
<path fill="none" stroke="#63b8ff" d="M365.42,-164.98C390.72,-156.16 430.45,-142.31 458.86,-132.41"/>
<polygon fill="#63b8ff" stroke="#63b8ff" points="460.1,-135.68 468.39,-129.08 457.79,-129.07 460.1,-135.68"/>
</g>
<!-- Node10 -->
<g id="node10" class="node">
<title>Node10</title>
<g id="a_node10"><a xlink:title=" ">
<polygon fill="#e0e0e0" stroke="#999999" points="633,-129 553,-129 553,-110 633,-110 633,-129"/>
<text text-anchor="middle" x="593" y="-117" font-family="Helvetica,sans-Serif" font-size="10.00">QPushButton</text>
</a>
</g>
</g>
<!-- Node1&#45;&gt;Node10 -->
<g id="edge11" class="edge">
<title>Node1&#45;&gt;Node10</title>
<path fill="none" stroke="#63b8ff" d="M381.49,-164.98C425.3,-155.77 495.23,-141.06 542.57,-131.11"/>
<polygon fill="#63b8ff" stroke="#63b8ff" points="543.55,-134.48 552.61,-128.99 542.11,-127.63 543.55,-134.48"/>
</g>
<!-- Node2&#45;&gt;Node3 -->
<g id="edge2" class="edge">
<title>Node2&#45;&gt;Node3</title>
<path fill="none" stroke="#63b8ff" d="M152.83,-109.98C140.23,-101.84 121,-89.41 106.06,-79.76"/>
<polygon fill="#63b8ff" stroke="#63b8ff" points="107.71,-76.66 97.41,-74.17 103.91,-82.54 107.71,-76.66"/>
</g>
<!-- Node5 -->
<g id="node5" class="node">
<title>Node5</title>
<g id="a_node5"><a xlink:title=" ">
<polygon fill="#e0e0e0" stroke="#999999" points="198,-19 138,-19 138,0 198,0 198,-19"/>
<text text-anchor="middle" x="168" y="-7" font-family="Helvetica,sans-Serif" font-size="10.00">QFileInfo</text>
</a>
</g>
</g>
<!-- Node2&#45;&gt;Node5 -->
<g id="edge5" class="edge">
<title>Node2&#45;&gt;Node5</title>
<path fill="none" stroke="#63b8ff" d="M166.16,-109.66C166.49,-92.17 167.22,-52.8 167.65,-29.27"/>
<polygon fill="#63b8ff" stroke="#63b8ff" points="171.15,-29.22 167.84,-19.16 164.16,-29.09 171.15,-29.22"/>
</g>
<!-- Node6 -->
<g id="node6" class="node">
<title>Node6</title>
<g id="a_node6"><a xlink:title=" ">
<polygon fill="#e0e0e0" stroke="#999999" points="283.5,-74 196.5,-74 196.5,-55 283.5,-55 283.5,-74"/>
<text text-anchor="middle" x="240" y="-62" font-family="Helvetica,sans-Serif" font-size="10.00">QMainWindow</text>
</a>
</g>
</g>
<!-- Node2&#45;&gt;Node6 -->
<g id="edge6" class="edge">
<title>Node2&#45;&gt;Node6</title>
<path fill="none" stroke="#63b8ff" d="M177.89,-109.98C189.15,-101.92 206.29,-89.65 219.71,-80.03"/>
<polygon fill="#63b8ff" stroke="#63b8ff" points="221.8,-82.84 227.89,-74.17 217.73,-77.15 221.8,-82.84"/>
</g>
<!-- Node4 -->
<g id="node4" class="node">
<title>Node4</title>
<g id="a_node4"><a xlink:title=" ">
<polygon fill="#e0e0e0" stroke="#999999" points="120,-19 0,-19 0,0 120,0 120,-19"/>
<text text-anchor="middle" x="60" y="-7" font-family="Helvetica,sans-Serif" font-size="10.00">QAbstractTableModel</text>
</a>
</g>
</g>
<!-- Node3&#45;&gt;Node4 -->
<g id="edge3" class="edge">
<title>Node3&#45;&gt;Node4</title>
<path fill="none" stroke="#63b8ff" d="M80.04,-54.75C76.79,-47.57 72.08,-37.18 68.05,-28.27"/>
<polygon fill="#63b8ff" stroke="#63b8ff" points="71.2,-26.75 63.89,-19.09 64.83,-29.64 71.2,-26.75"/>
</g>
<!-- Node3&#45;&gt;Node5 -->
<g id="edge4" class="edge">
<title>Node3&#45;&gt;Node5</title>
<path fill="none" stroke="#63b8ff" d="M97.5,-54.98C110.4,-46.84 130.1,-34.41 145.4,-24.76"/>
<polygon fill="#63b8ff" stroke="#63b8ff" points="147.67,-27.47 154.26,-19.17 143.93,-21.55 147.67,-27.47"/>
</g>
</g>
</svg>
