<?xml version="1.0" encoding="UTF-8" standalone="no"?>
<!DOCTYPE svg PUBLIC "-//W3C//DTD SVG 1.1//EN"
 "http://www.w3.org/Graphics/SVG/1.1/DTD/svg11.dtd">
<!-- Generated by graphviz version 2.43.0 (0)
 -->
<!-- Title: src/searchwindow.h Pages: 1 -->
<svg width="283pt" height="137pt"
 viewBox="0.00 0.00 282.50 137.00" xmlns="http://www.w3.org/2000/svg" xmlns:xlink="http://www.w3.org/1999/xlink">
<g id="graph0" class="graph" transform="scale(1 1) rotate(0) translate(4 133)">
<title>src/searchwindow.h</title>
<!-- Node1 -->
<g id="Node000001" class="node">
<title>Node1</title>
<g id="a_Node000001"><a xlink:title=" ">
<polygon fill="#999999" stroke="#666666" points="228,-129 116,-129 116,-110 228,-110 228,-129"/>
<text text-anchor="middle" x="172" y="-117" font-family="Helvetica,sans-Serif" font-size="10.00">src/searchwindow.h</text>
</a>
</g>
</g>
<!-- Node2 -->
<g id="Node000002" class="node">
<title>Node2</title>
<g id="a_Node000002"><a xlink:href="qfileinfolistmodel_8h.html" target="_top" xlink:title=" ">
<polygon fill="white" stroke="#666666" points="169.5,-74 58.5,-74 58.5,-55 169.5,-55 169.5,-74"/>
<text text-anchor="middle" x="114" y="-62" font-family="Helvetica,sans-Serif" font-size="10.00">qfileinfolistmodel.h</text>
</a>
</g>
</g>
<!-- Node1&#45;&gt;Node2 -->
<g id="edge1_Node000001_Node000002" class="edge">
<title>Node1&#45;&gt;Node2</title>
<g id="a_edge1_Node000001_Node000002"><a xlink:title=" ">
<path fill="none" stroke="#63b8ff" d="M162.68,-109.98C154.19,-102.23 141.44,-90.58 131.12,-81.14"/>
<polygon fill="#63b8ff" stroke="#63b8ff" points="133.23,-78.33 123.49,-74.17 128.51,-83.5 133.23,-78.33"/>
</a>
</g>
</g>
<!-- Node5 -->
<g id="Node000005" class="node">
<title>Node5</title>
<g id="a_Node000005"><a xlink:title=" ">
<polygon fill="#e0e0e0" stroke="#999999" points="274.5,-74 187.5,-74 187.5,-55 274.5,-55 274.5,-74"/>
<text text-anchor="middle" x="231" y="-62" font-family="Helvetica,sans-Serif" font-size="10.00">QMainWindow</text>
</a>
</g>
</g>
<!-- Node1&#45;&gt;Node5 -->
<g id="edge4_Node000001_Node000005" class="edge">
<title>Node1&#45;&gt;Node5</title>
<g id="a_edge4_Node000001_Node000005"><a xlink:title=" ">
<path fill="none" stroke="#63b8ff" d="M181.48,-109.98C190.2,-102.15 203.34,-90.34 213.9,-80.86"/>
<polygon fill="#63b8ff" stroke="#63b8ff" points="216.25,-83.46 221.35,-74.17 211.57,-78.25 216.25,-83.46"/>
</a>
</g>
</g>
<!-- Node3 -->
<g id="Node000003" class="node">
<title>Node3</title>
<g id="a_Node000003"><a xlink:title=" ">
<polygon fill="#e0e0e0" stroke="#999999" points="120,-19 0,-19 0,0 120,0 120,-19"/>
<text text-anchor="middle" x="60" y="-7" font-family="Helvetica,sans-Serif" font-size="10.00">QAbstractTableModel</text>
</a>
</g>
</g>
<!-- Node2&#45;&gt;Node3 -->
<g id="edge2_Node000002_Node000003" class="edge">
<title>Node2&#45;&gt;Node3</title>
<g id="a_edge2_Node000002_Node000003"><a xlink:title=" ">
<path fill="none" stroke="#63b8ff" d="M105.08,-54.75C97.22,-47.03 85.57,-35.6 76.08,-26.28"/>
<polygon fill="#63b8ff" stroke="#63b8ff" points="78.34,-23.6 68.75,-19.09 73.44,-28.59 78.34,-23.6"/>
</a>
</g>
</g>
<!-- Node4 -->
<g id="Node000004" class="node">
<title>Node4</title>
<g id="a_Node000004"><a xlink:title=" ">
<polygon fill="#e0e0e0" stroke="#999999" points="198,-19 138,-19 138,0 198,0 198,-19"/>
<text text-anchor="middle" x="168" y="-7" font-family="Helvetica,sans-Serif" font-size="10.00">QFileInfo</text>
</a>
</g>
</g>
<!-- Node2&#45;&gt;Node4 -->
<g id="edge3_Node000002_Node000004" class="edge">
<title>Node2&#45;&gt;Node4</title>
<g id="a_edge3_Node000002_Node000004"><a xlink:title=" ">
<path fill="none" stroke="#63b8ff" d="M122.92,-54.75C130.78,-47.03 142.43,-35.6 151.92,-26.28"/>
<polygon fill="#63b8ff" stroke="#63b8ff" points="154.56,-28.59 159.25,-19.09 149.66,-23.6 154.56,-28.59"/>
</a>
</g>
</g>
</g>
</svg>
